<?xml version="1.0" encoding="UTF-8" standalone="no"?>
<svg
   xmlns:dc="http://purl.org/dc/elements/1.1/"
   xmlns:cc="http://creativecommons.org/ns#"
   xmlns:rdf="http://www.w3.org/1999/02/22-rdf-syntax-ns#"
   xmlns:svg="http://www.w3.org/2000/svg"
   xmlns="http://www.w3.org/2000/svg"
   viewBox="0 0 157.22533 157.22667"
   height="157.22667"
   width="157.22533"
   xml:space="preserve"
   id="svg2"
   version="1.1"><metadata
     id="metadata8"><rdf:RDF><cc:Work
         rdf:about=""><dc:format>image/svg+xml</dc:format><dc:type
           rdf:resource="http://purl.org/dc/dcmitype/StillImage" /><dc:title></dc:title></cc:Work></rdf:RDF></metadata><defs
     id="defs6" /><g
     transform="matrix(1.3333333,0,0,-1.3333333,-250.19401,407.41999)"
     id="g10"><path
       d="m -528.95452,157.5603 h 459.816639 c 12.505944,0 22.738546,-10.44898 22.738546,-23.2217 v -469.58688 c 0,-12.7725 -10.232602,-23.22159 -22.738546,-23.22159 H -528.95452 c -12.50595,0 -22.73844,10.44909 -22.73844,23.22159 V 134.3386 c 0,12.77272 10.23249,23.2217 22.73844,23.2217 v 0"
       style="fill:#1c2b4e;fill-opacity:1;fill-rule:evenodd;stroke:none;stroke-width:0.103532"
       id="path14" /><path
       d="m -454.9997,76.786621 c 26.3882,0 47.9082,-21.52 47.9082,-47.909 0,-26.3880004 -21.52,-47.908 -47.9082,-47.908 -26.3875,0 -47.9086,21.5199996 -47.9086,47.908 0,26.389 21.5211,47.909 47.9086,47.909 z m 0,11.051 c 32.4742,0 58.9592,-26.486 58.9592,-58.96 0,-32.4740004 -26.485,-58.96 -58.9592,-58.96 -32.4738,0 -58.9598,26.4859996 -58.9598,58.96 0,32.474 26.486,58.96 58.9598,58.96 v 0"
       style="fill:#ffffff;fill-opacity:1;fill-rule:evenodd;stroke:none;stroke-width:0.1"
       id="path16" /><path
       d="m -454.9997,-72.971379 c 26.3882,0 47.9082,-21.521 47.9082,-47.908001 0,-26.388 -21.52,-47.909 -47.9082,-47.909 -26.3875,0 -47.9086,21.521 -47.9086,47.909 0,26.387001 21.5211,47.908001 47.9086,47.908001 z m 0,11.051 c 32.4742,0 58.9592,-26.486 58.9592,-58.959001 0,-32.475 -26.485,-58.96 -58.9592,-58.96 -32.4738,0 -58.9598,26.485 -58.9598,58.96 0,32.473001 26.486,58.959001 58.9598,58.959001 v 0"
       style="fill:#ffffff;fill-opacity:1;fill-rule:evenodd;stroke:none;stroke-width:0.1"
       id="path18" /><path
       d="m -454.9997,-220.37038 c 26.3882,0 47.9082,-21.522 47.9082,-47.9099 0,-26.3871 -21.52,-47.9082 -47.9082,-47.9082 -26.3875,0 -47.9086,21.5211 -47.9086,47.9082 0,26.3879 21.5211,47.9099 47.9086,47.9099 z m 0,11.05 c 32.4742,0 58.9592,-26.485 58.9592,-58.9599 0,-32.473 -26.485,-58.959 -58.9592,-58.959 -32.4738,0 -58.9598,26.486 -58.9598,58.959 0,32.4749 26.486,58.9599 58.9598,58.9599 v 0"
       style="fill:#ffffff;fill-opacity:1;fill-rule:evenodd;stroke:none;stroke-width:0.1"
       id="path20" /><path
       d="m -307.5995,74.427621 c 26.388,0 47.908,-21.52 47.908,-47.908 0,-26.38800036 -21.52,-47.908 -47.908,-47.908 -26.389,0 -47.909,21.51999964 -47.909,47.908 0,26.388 21.52,47.908 47.909,47.908 z m 0,11.052 c 32.474,0 58.958,-26.486 58.958,-58.96 0,-32.4740004 -26.484,-58.96 -58.958,-58.96 -32.475,0 -58.961,26.4859996 -58.961,58.96 0,32.474 26.486,58.96 58.961,58.96 v 0"
       style="fill:#ffffff;fill-opacity:1;fill-rule:evenodd;stroke:none;stroke-width:0.1"
       id="path22" /><path
       d="m -154.67235,78.440039 c 26.387,0 47.908,-21.52 47.908,-47.908 0,-26.3879996 -21.521,-47.908 -47.908,-47.908 -26.389,0 -47.91,21.5200004 -47.91,47.908 0,26.388 21.521,47.908 47.91,47.908 z m 0,11.052 c 32.472,0 58.959005,-26.486 58.959005,-58.96 0,-32.4739996 -26.487005,-58.96 -58.959005,-58.96 -32.475,0 -58.961,26.4860004 -58.961,58.96 0,32.474 26.486,58.96 58.961,58.96 v 0"
       style="fill:#ffffff;fill-opacity:1;fill-rule:evenodd;stroke:none;stroke-width:0.1"
       id="path24" /><path
       d="m -307.5995,-72.971379 c 26.388,0 47.908,-21.521 47.908,-47.908001 0,-26.388 -21.52,-47.909 -47.908,-47.909 -26.389,0 -47.909,21.521 -47.909,47.909 0,26.387001 21.52,47.908001 47.909,47.908001 z m 0,11.051 c 32.474,0 58.958,-26.486 58.958,-58.959001 0,-32.475 -26.484,-58.96 -58.958,-58.96 -32.475,0 -58.961,26.485 -58.961,58.96 0,32.473001 26.486,58.959001 58.961,58.959001 v 0"
       style="fill:#ffffff;fill-opacity:1;fill-rule:evenodd;stroke:none;stroke-width:0.1"
       id="path26" /><path
       d="m -307.5995,-220.37038 c 26.388,0 47.908,-21.522 47.908,-47.9099 0,-26.3871 -21.52,-47.9082 -47.908,-47.9082 -26.389,0 -47.909,21.5211 -47.909,47.9082 0,26.3879 21.52,47.9099 47.909,47.9099 z m 0,11.05 c 32.474,0 58.958,-26.485 58.958,-58.9599 0,-32.473 -26.484,-58.959 -58.958,-58.959 -32.475,0 -58.961,26.486 -58.961,58.959 0,32.4749 26.486,58.9599 58.961,58.9599 v 0"
       style="fill:#ffffff;fill-opacity:1;fill-rule:evenodd;stroke:none;stroke-width:0.1"
       id="path28" /><path
       d="m 41.110712,90.760927 c 26.387,0 47.908,-21.521 47.908,-47.908001 0,-26.388 -21.521,-47.9090004 -47.908,-47.9090004 -26.389,0 -47.9100003,21.5210004 -47.9100003,47.9090004 0,26.387001 21.5210003,47.908001 47.9100003,47.908001 z m 0,11.051003 c 32.472,0 58.958998,-26.486003 58.958998,-58.959004 0,-32.475 -26.486998,-58.96 -58.958998,-58.96 -32.4750003,0 -58.961,26.485 -58.961,58.96 0,32.473001 26.4859997,58.959004 58.961,58.959004 v 0"
       style="fill:#ffffff;fill-opacity:1;fill-rule:evenodd;stroke:none;stroke-width:0.1"
       id="path30" /><path
       d="m -160.1995,-220.37038 c 26.387,0 47.908,-21.522 47.908,-47.9099 0,-26.3871 -21.521,-47.9082 -47.908,-47.9082 -26.389,0 -47.91,21.5211 -47.91,47.9082 0,26.3879 21.521,47.9099 47.91,47.9099 z m 0,11.05 c 32.472,0 58.959,-26.485 58.959,-58.9599 0,-32.473 -26.487,-58.959 -58.959,-58.959 -32.475,0 -58.961,26.486 -58.961,58.959 0,32.4749 26.486,58.9599 58.961,58.9599 v 0"
       style="fill:#ffffff;fill-opacity:1;fill-rule:evenodd;stroke:none;stroke-width:0.1"
       id="path32" /><path
       d="m -448.2445,32.001621 c 0.856,-0.435 1.54,-1.692 2.569,-1.304 1.029,0.387 1.496,1.794 2.048,3.044 0.55,1.248 0.811,2.897 1.216,4.346 0.121,-0.796 0.59,-1.022 0.364,-2.39 -0.227,-1.368 -1.253,-4.346 -1.691,-5.653 -0.438,-1.305 -0.197,-1.834 -0.934,-2.173 -0.738,-0.339 -1.708,-0.117 -2.372,0.652 -0.665,0.769 -0.801,2.318 -1.2,3.478 z M -472.3536,9.3166206 c 1.1699,0.362 3.2883,1.2840004 4.459,1.6460004 5.9414,2.432 11.8289,3.002 17.6811,2.453 -3.666,-1.497 -7.4835,-2.772 -10.1877,-6.3030004 -2.1586,-4.348 -4.318,-8.696 -6.4762,-13.044 0.4312,2.32 0.8625,4.637 1.2937,6.956 0.27,1.74 0.5387,3.478 0.8086,5.217 -0.4789,0.943 -0.5101,2.32 -0.9894,3.261 -1.7352,0.145 -4.8539,-0.331 -6.5891,-0.186 z m 15.1289,34.9670004 c 2.1973,0.797 4.9512,2.029 7.1482,2.826 -6.7595,-8.273 -11.7384,-14.638 -14.0044,-23.477 -0.7571,-3.478 -1.5582,-6.303 -2.3141,-9.782 -2.6371,-0.942 -4.9859,-3.188 -7.6234,-4.1300004 0.2636,1.5210004 0.5261,3.0430004 0.7882,4.5650004 0.5497,1.376 1.0973,2.753 1.6454,4.129 0.0191,0.653 0.0398,1.305 0.0586,1.958 -0.4196,0.507 -0.8391,1.013 -1.259,1.521 0.0136,0.435 0.0257,0.869 0.0402,1.304 1.2988,-0.144 2.0508,0.084 3.3512,-0.062 -1.2145,0.58 -1.8813,0.787 -3.0957,1.367 0.0851,0.434 0.1703,0.869 0.2566,1.303 0.9527,0.364 1.9055,0.726 2.8578,1.088 2.3895,1.016 3.5504,2.204 4.9125,4.348 -0.6961,0.94 -0.9644,1.666 -1.6609,2.608 2.0785,3.842 4.3726,8.646 8.8988,10.434 z m -9.2215,-13.008 c -0.0519,0.271 -6.4832,2.881 -9.0484,2.771 -2.5645,-0.108 0.7883,-3.444 3.1687,-3.098 0.5227,0.077 0.2028,-3.116 0.5024,-2.949 1.6555,0.926 5.4805,2.732 5.3773,3.276 z m 19.3937,-23.9690004 c 2.432,-1.481 5.985,-6.95699996 4.919,-10.001 0.256,1.223 -10.234,1.389 -12.9732,-1.249 -2.3442,2.692 4.5662,6.516 7.6082,5.435 2.866,-1.01899996 -3.702,9.1900004 0.446,5.815 z m 5.446,48.5990004 c -0.028,-5.041 0.693,-5.394 0.057,-10.414 -0.47,-3.721 2.861,-3.488 1.72,-7.197 -0.633,-2.064 -1.292,-5.942 -1.632,-8.066 -0.485,-3.026 0.15,-12.173 0.219,-15.22 0.025,-1.084 -0.723,-2.391 -0.097,-3.261 1.427,-1.9830004 0.39,-5.9050004 1.719,-7.9570004 1.179,-1.821 4.359,-6.853 3.245,-9.316 -1.32,-0.809 -14.338,0.682 -18.1523,-1.36 -3.3219,-1.779 -8.7293,-1.8 -12.4426,-1.631 -1.2641,0.058 -2.1348,1.305 -3.2023,1.957 1.1687,3.861 4.3082,12.053 1.666,15.002 -0.5953,0.664 -7.6246,-2.504 -8.5863,-0.673 -0.9055,1.723 2.1785,8.3070004 2.3945,10.2730004 0.2394,2.19 -1.0078,1.603 -0.7434,2.446 0.4137,1.314 0.6367,2.895 -0.0211,3.819 -0.5625,0.788 1.7629,1.336 2.1739,2.078 0.4093,0.742 -0.3746,0.78 -1.1496,1.288 -3.6188,2.376 -4.9364,3.985 -4.5973,5.08 0.9922,3.207 12.8074,9.226 16.5047,14.499 0.4511,0.644 0.7965,1.419 0.8234,2.14 0.1211,-0.056 0.2465,-0.063 0.3766,-10e-4 3.2195,1.538 4.9582,-1.514 4.6301,-3.261 1.6265,-0.033 4.5097,1.74 6.4377,2.609 -1.957,1.848 -5.8225,4.259 -7.5081,5.218 -1.6855,0.958 -2.6004,0.182 -3.5914,-0.164 -0.9922,-0.346 -1.398,0.094 -1.4972,-0.978 -0.0266,-0.286 0.007,-0.694 0.0859,-1.131 -0.9894,2.506 1.3106,6.828 7.6582,10.528 5.2956,3.086 13.5526,1.504 13.5096,-6.307 v 0"
       style="fill:#ffffff;fill-opacity:1;fill-rule:evenodd;stroke:none;stroke-width:0.1"
       id="path34" /><path
       d="m -318.6315,11.132621 h 21.863 V 9.6306206 h -21.863 v 1.5020004 0"
       style="fill:#ffffff;fill-opacity:1;fill-rule:nonzero;stroke:none;stroke-width:0.1"
       id="path36" /><path
       d="m -319.3325,14.329621 h 23.266 l -0.536,-2.061 h -22.195 l -0.535,2.061 v 0"
       style="fill:#ffffff;fill-opacity:1;fill-rule:nonzero;stroke:none;stroke-width:0.1"
       id="path38" /><path
       d="m -313.2925,30.529621 h 11.185 l -0.536,-1.651 h -9.98 l -0.669,1.651 v 0"
       style="fill:#ffffff;fill-opacity:1;fill-rule:nonzero;stroke:none;stroke-width:0.1"
       id="path40" /><path
       d="m -159.6805,-241.36438 c 1.356,-2.28 8.174,-5.517 7.508,-5.696 -0.076,-0.02 -0.355,-0.241 -0.681,-0.058 -2.997,1.68 -11.713,1.257 -13.696,-0.02 -0.238,-0.153 -0.47,0.033 -0.539,0.078 -0.48,0.318 6.211,3.588 7.408,5.696 v 0"
       style="fill:#ffffff;fill-opacity:1;fill-rule:evenodd;stroke:none;stroke-width:0.1"
       id="path42" /><path
       d="m -159.6215,-239.75038 c 0.926,0 1.682,-0.694 1.682,-1.543 0,-0.85 -0.756,-1.543 -1.682,-1.543 -0.928,0 -1.684,0.693 -1.684,1.543 0,0.849 0.756,1.543 1.684,1.543 v 0"
       style="fill:#ffffff;fill-opacity:1;fill-rule:evenodd;stroke:none;stroke-width:0.1"
       id="path44" /><path
       d="m -159.6215,-230.49438 0.607,-4.313 0.608,-4.312 h -2.43 l 0.608,4.312 0.607,4.313 v 0"
       style="fill:#ffffff;fill-opacity:1;fill-rule:evenodd;stroke:none;stroke-width:0.1"
       id="path46" /><path
       d="m -152.2875,-248.48338 c 3.498,-2.322 5.807,-6.789 5.807,-9.87 0,-3.08 -0.346,-3.358 -0.973,-4.859 h -24.338 c -0.625,1.501 -0.971,1.784 -0.971,4.859 0,3.076 2.297,7.53 5.782,9.855 0.107,-0.063 0.267,-0.12 0.431,-0.01 1.983,1.336 10.699,1.777 13.696,0.02 0.23,-0.135 0.437,-0.058 0.566,0.005 v 0"
       style="fill:#ffffff;fill-opacity:1;fill-rule:evenodd;stroke:none;stroke-width:0.1"
       id="path48" /><path
       d="m -189.5885,-255.45738 h 3.045 l 1.057,-36.7721 h -5.129 l 1.027,36.7721 v 0"
       style="fill:#ffffff;fill-opacity:1;fill-rule:evenodd;stroke:none;stroke-width:0.1"
       id="path50" /><path
       d="m -188.0515,-247.82838 c 1.782,0 3.233,-2.014 3.233,-4.484 0,-0.116 -0.002,-0.23 -0.008,-0.344 h -6.447 c -0.006,0.114 -0.01,0.228 -0.01,0.344 0,2.47 1.453,4.484 3.232,4.484 v 0"
       style="fill:#ffffff;fill-opacity:1;fill-rule:evenodd;stroke:none;stroke-width:0.1"
       id="path52" /><path
       d="m -191.9885,-253.41038 h 7.875 l -0.684,-2.25 h -6.506 l -0.685,2.25 v 0"
       style="fill:#ffffff;fill-opacity:1;fill-rule:evenodd;stroke:none;stroke-width:0.1"
       id="path54" /><path
       d="m -188.0515,-245.46838 c 0.541,0 0.983,-0.403 0.983,-0.899 0,-0.497 -0.442,-0.9 -0.983,-0.9 -0.541,0 -0.98,0.403 -0.98,0.9 0,0.496 0.439,0.899 0.98,0.899 v 0"
       style="fill:#ffffff;fill-opacity:1;fill-rule:evenodd;stroke:none;stroke-width:0.1"
       id="path56" /><path
       d="m -188.0515,-240.06938 0.356,-2.515 0.353,-2.516 h -1.416 l 0.354,2.516 0.353,2.515 v 0"
       style="fill:#ffffff;fill-opacity:1;fill-rule:evenodd;stroke:none;stroke-width:0.1"
       id="path58" /><path
       d="m -181.2075,-264.02438 h 2.475 c 0.701,0 1.275,-0.574 1.275,-1.276 v 0 c 0,-0.702 -0.574,-1.2771 -1.275,-1.2771 h -2.475 c -0.703,0 -1.277,0.5751 -1.277,1.2771 v 0 c 0,0.702 0.574,1.276 1.277,1.276 v 0"
       style="fill:#ffffff;fill-opacity:1;fill-rule:evenodd;stroke:none;stroke-width:0.1"
       id="path60" /><path
       d="m -179.9715,-258.27738 0.834,-1.15 0.832,-1.149 -0.318,-1.862 -0.316,-1.861 h -1.032 -1.029 l -0.318,1.861 -0.319,1.862 0.834,1.149 0.832,1.15 v 0"
       style="fill:#ffffff;fill-opacity:1;fill-rule:evenodd;stroke:none;stroke-width:0.1"
       id="path62" /><path
       d="m -129.5765,-255.77838 h -3.043 l -1.057,-36.771 h 5.127 l -1.027,36.771 v 0"
       style="fill:#ffffff;fill-opacity:1;fill-rule:evenodd;stroke:none;stroke-width:0.1"
       id="path64" /><path
       d="m -131.1135,-248.14938 c -1.78,0 -3.233,-2.014 -3.233,-4.483 0,-0.116 0.004,-0.232 0.01,-0.345 h 6.447 c 0.006,0.113 0.01,0.229 0.01,0.345 0,2.469 -1.453,4.483 -3.234,4.483 v 0"
       style="fill:#ffffff;fill-opacity:1;fill-rule:evenodd;stroke:none;stroke-width:0.1"
       id="path66" /><path
       d="m -127.4825,-253.73138 h -7.26 l 0.631,-2.251 h 5.998 l 0.631,2.251 v 0"
       style="fill:#ffffff;fill-opacity:1;fill-rule:evenodd;stroke:none;stroke-width:0.1"
       id="path68" /><path
       d="m -131.1115,-245.78838 c -0.541,0 -0.983,-0.405 -0.983,-0.9 0,-0.496 0.442,-0.9 0.983,-0.9 0.539,0 0.98,0.404 0.98,0.9 0,0.495 -0.441,0.9 -0.98,0.9 v 0"
       style="fill:#ffffff;fill-opacity:1;fill-rule:evenodd;stroke:none;stroke-width:0.1"
       id="path70" /><path
       d="m -131.1115,-240.38938 -0.356,-2.516 -0.353,-2.515 h 1.416 l -0.354,2.515 -0.353,2.516 v 0"
       style="fill:#ffffff;fill-opacity:1;fill-rule:evenodd;stroke:none;stroke-width:0.1"
       id="path72" /><path
       d="m -137.9555,-264.34438 h -2.475 c -0.703,0 -1.277,-0.574 -1.277,-1.276 v 0 c 0,-0.7028 0.574,-1.2778 1.277,-1.2778 h 2.475 c 0.701,0 1.277,0.575 1.277,1.2778 v 0 c 0,0.702 -0.576,1.276 -1.277,1.276 v 0"
       style="fill:#ffffff;fill-opacity:1;fill-rule:evenodd;stroke:none;stroke-width:0.1"
       id="path74" /><path
       d="m -139.1935,-258.59738 -0.832,-1.15 -0.834,-1.151 0.318,-1.86 0.318,-1.861 h 1.03 1.031 l 0.318,1.861 0.319,1.86 -0.834,1.151 -0.834,1.15 v 0"
       style="fill:#ffffff;fill-opacity:1;fill-rule:evenodd;stroke:none;stroke-width:0.1"
       id="path76" /><path
       d="m -192.8035,-290.15528 h 12.565 v -6.5222 h -12.565 v 6.5222 0"
       style="fill:#ffffff;fill-opacity:1;fill-rule:evenodd;stroke:none;stroke-width:0.1"
       id="path78" /><path
       d="m -125.9325,-290.15528 h -12.564 v -6.5222 h 12.564 v 6.5222 0"
       style="fill:#ffffff;fill-opacity:1;fill-rule:evenodd;stroke:none;stroke-width:0.1"
       id="path80" /><path
       d="m -192.7775,-294.81428 h 66.763 v -3.857 h -66.763 v 3.857 0"
       style="fill:#ffffff;fill-opacity:1;fill-rule:evenodd;stroke:none;stroke-width:0.1"
       id="path82" /><path
       d="m -139.7255,-293.22518 v 11.4809 l -0.044,0.4289 -0.102,0.68 -0.195,0.5801 -0.397,0.611 -0.555,0.6699 -0.871,0.85 -0.74,0.6398 -0.949,0.7301 -0.889,-0.6898 -0.724,-0.6301 -0.805,-0.7301 -0.545,-0.541 -0.342,-0.4391 -0.211,-0.3797 -0.224,-0.5402 -0.08,-0.4988 -0.039,-0.652 v -11.5582 z m -39.712,-0.0641 v 11.525 l 0.044,0.4321 0.102,0.6816 0.193,0.5813 0.399,0.614 0.553,0.6719 0.873,0.8531 0.74,0.643 0.949,0.7328 0.889,-0.6918 0.724,-0.634 0.803,-0.7332 0.545,-0.5418 0.344,-0.441 0.211,-0.382 0.226,-0.5422 0.076,-0.5008 0.039,-0.6531 v -11.6051 z m 15.285,-1.6632 v 17.3632 l 0.052,0.6469 0.122,1.0289 0.228,0.8781 0.467,0.9231 0.65,1.0121 1.024,1.2859 0.871,0.968 1.117,1.1051 1.043,-1.0442 0.851,-0.9539 0.944,-1.1043 0.64,-0.816 0.405,-0.6656 0.246,-0.5754 0.265,-0.8156 0.092,-0.7563 0.045,-0.9828 v -17.4832 z m 27.646,27.7191 h -13.224 v 2.179 h -19.782 v -2.179 h -13.146 v -29.4441 h 13.146 0.957 17.948 0.877 13.224 v 29.4441 0"
       style="fill:#ffffff;fill-opacity:1;fill-rule:evenodd;stroke:none;stroke-width:0.1"
       id="path84" /><path
       d="m -315.8575,-264.70238 2.484,-0.504 0.556,-0.9 -0.524,-1.4399 -0.053,-0.3672 0.053,-0.3398 0.209,-0.236 -0.209,-0.4461 -0.576,-0.4191 -0.643,-0.8848 -0.389,0.1668 v 0.47 l -0.13,0.4461 -0.132,0.4449 -0.315,0.3402 0.052,0.6008 -0.052,0.6031 -0.181,0.4449 -1.52,1.6791 -0.184,0.555 1.583,-0.232 z m 15.357,-14.622 c -1.021,-0.716 -2.238,-1.6059 -4.133,-2.8231 -5.195,-3.3359 -6.308,-7.8961 -11.196,-10.2039 -1.26,-0.5949 -2.655,-1.43 -2.399,-3.1058 5.077,1.9277 6.011,5.1277 10.006,8.6047 -2.584,-3.9399 -3.219,-7.7817 -5.872,-11.6668 -1.727,-2.5282 -3.011,-1.8309 -3.758,-4.9602 1.623,1.8133 3.556,1.5141 5.019,3.3902 -2.206,-4.164 -4.299,-5.7453 -5.793,-10.0191 0.533,-0.1398 1.069,-0.2691 1.608,-0.3898 2.521,4.4218 4.294,6.8328 6.224,12.1609 -0.348,-2.0789 -0.267,-1.866 -1,-3.8832 1.45,2.032 2.653,4.6 2.906,7.082 0.586,5.7711 1.717,7.8731 5.142,11.9082 0.119,2.3731 1.619,2.009 3.246,3.9059 z m 3.398,-31.1531 c 0.047,0.0113 0.094,0.0222 0.141,0.032 -0.047,-0.01 -0.094,-0.0207 -0.141,-0.032 z m -1.064,-0.227 c 0.279,0.0551 0.559,0.1141 0.836,0.175 -0.279,-0.0598 -0.557,-0.1199 -0.836,-0.175 z m -4.074,-0.6258 c -0.188,-0.0211 -0.375,-0.0383 -0.565,-0.057 0.184,0.5398 0.356,1.1238 0.522,1.7648 0.031,-0.5668 0.053,-1.139 0.043,-1.7078 z m -3.451,-0.239 c 0.011,0 0.025,0 0.037,7e-4 z m -0.816,-0.0192 c 0.198,0.003 0.396,0.007 0.593,0.0121 -0.197,-0.005 -0.395,-0.009 -0.593,-0.0121 z m -0.145,-8e-4 c 0.048,0 0.096,0 0.143,8e-4 -0.047,-8e-4 -0.095,-8e-4 -0.143,-8e-4 z m -0.145,-0.002 c 0.021,0 0.043,8e-4 0.064,8e-4 -0.021,0 -0.043,-8e-4 -0.064,-8e-4 z m -0.308,-0.001 c 0.025,0 0.049,0 0.074,0 z m -0.09,0 c 0.03,0 0.06,0 0.09,0 -0.03,0 -0.06,0 -0.09,0 z m -0.09,0.001 c 0.02,-0.001 0.04,0 0.06,-0.001 -0.02,0.001 -0.04,0 -0.06,0.001 z m -0.15,8e-4 c 0.03,0 0.06,-8e-4 0.089,-8e-4 -0.029,0 -0.059,8e-4 -0.089,8e-4 z m 13.775,21.514 0.021,-0.2672 v -1.7289 l -0.287,-1.5937 -0.08,-0.9461 -0.285,-0.7582 0.285,-1.177 1.154,-3.9289 -0.576,-1.28 0.254,-0.52 5.047,6.3168 0.065,0.5891 v 0.55 l 0.158,0.0793 0.078,0.8367 0.211,0.4981 0.471,0.525 0.39,0.2339 h 0.367 l 0.42,-0.1308 0.078,0.5769 0.393,0.42 0.603,-0.0809 1.215,1.4301 -1.066,0.5449 0.588,0.5598 -5.537,3.6179 -0.157,-0.6629 -0.716,0.177 z m -16.917,15.2379 c 1.452,-2.4929 1.97,-2.9929 4.472,-3.4238 0.15,-0.0172 0.304,-0.032 0.464,-0.0441 -0.007,-0.007 -0.017,-0.0141 -0.025,-0.0211 0.199,-0.0258 0.408,-0.0457 0.625,-0.0629 -0.707,-0.659 -1.131,-0.8539 -2.042,-1.1 0.871,-0.2602 0.212,-0.4258 -0.393,-0.7328 -0.507,-0.2571 -1.099,-0.3141 -1.648,-0.418 1.643,-0.3942 -1.015,-0.7301 -1.598,-0.707 l 0.656,-0.2891 c -0.745,-0.3031 -3.336,-1.6313 -3.495,-1.4231 -1.594,0.3282 0.565,3.4051 0.964,4.4161 0.553,1.4019 -0.372,3.2558 0.066,4.6738 l 0.303,-0.4699 c 0.016,0.141 0.04,0.2789 0.075,0.4121 l -0.147,0.3121 c 0.164,0.0199 0.298,0.0199 0.412,0.002 0.645,0.4219 1.056,-0.5679 1.311,-1.1242 z m -3.313,2.9942 c -0.157,-0.5039 -0.291,-1.0161 -0.432,-1.525 0.035,0.473 0.054,0.9539 0.054,1.4437 v 0 c -0.339,-1.0887 -0.564,-2.2226 -1.021,-3.268 -1.182,-2.7046 -3.27,-5.1457 -4.032,-8.0398 -0.422,-1.5969 -0.689,-3.0359 -0.689,-4.6691 h 0.232 c -0.002,-0.109 -0.003,-0.22 -0.003,-0.3309 h 1.048 c 2.085,5.6129 4.843,10.341 4.843,16.3891 z m 1.457,9.4619 0.257,0.403 -0.314,-0.269 -0.357,-0.305 v 0 l 0.433,0.534 0.536,0.563 0.842,0.559 0.029,0.012 0.433,0.353 1.075,0.446 1.334,0.289 1.335,0.052 1.074,-0.104 1.072,-0.237 0.944,-0.391 0.76,-0.368 0.888,-0.707 0.354,-1.119 c -0.479,0.321 -0.705,0.527 -1.227,0.865 l -0.795,0.298 -0.843,0.409 -1.073,0.357 -1.096,0.204 -0.411,0.037 c -1.799,0.007 -3.613,-0.597 -5.25,-1.731 z m 8.185,-3.285 c -0.711,0.595 -1.686,0.563 -2.274,1.461 l 0.616,-0.237 0.666,-0.255 0.484,-0.281 0.459,-0.613 z m -1.613,-1.8551 0.629,0.0282 0.263,0.0308 0.239,0.136 0.101,0.332 0.332,-0.1027 -0.205,-0.1774 0.01,-0.0687 0.019,0.007 0.366,0.209 0.103,0.341 0.342,-0.1063 -0.209,-0.1816 0.025,-0.2102 0.053,-0.3679 -0.078,-0.4449 -0.158,-0.418 -0.444,-0.2621 -0.367,-0.0781 -0.105,0.006 -0.143,-0.0852 -0.357,-0.0761 -0.51,0.0242 -0.384,0.359 -0.177,0.4578 v -0.843 l -0.13,-0.2359 -0.315,-0.1301 h -0.237 l -0.009,-0.016 -0.306,-0.127 h -0.126 l 0.102,-0.041 h 1.021 l 0.236,-0.4437 -0.262,0.0519 -0.323,-0.15 0.016,-0.0293 -0.108,0.0211 h -0.108 l -0.057,0.0231 -0.314,-0.1469 h -0.179 l -0.165,0.0668 -0.226,-0.152 -0.434,-0.057 -0.039,-0.0269 0.628,-0.0211 0.368,0.0519 h 0.313 l 0.289,-0.0519 0.285,0.0261 h 0.29 l 0.026,-0.2621 -0.236,-0.1558 h -0.402 l -0.162,-0.1063 h -0.433 l -0.391,0.0172 0.105,-0.0691 0.262,-0.1039 h 0.445 0.419 l 0.42,-0.1059 0.235,-0.1039 v -0.3141 l -0.054,-0.2883 -0.208,-0.1828 -0.681,-0.1832 -0.227,0.0184 -0.325,-0.0883 -0.663,0.0512 -0.562,0.1769 -0.281,0.1289 -0.28,0.2313 -0.256,0.3558 -0.152,0.5872 v 0.6636 l 0.076,0.7653 -0.154,0.382 -0.459,0.4348 -0.204,0.332 -0.229,0.3312 -0.051,0.3071 0.051,0.384 0.229,0.05 0.077,-0.2563 0.127,-0.0801 -0.015,0.0942 0.052,0.3941 0.236,0.0508 0.038,-0.127 h 0.25 0.006 l -0.059,0.127 0.237,0.0793 h 0.313 0.261 v -0.1301 l -0.052,-0.2891 -0.287,-0.157 h 0.437 l 0.038,0.0379 v 0.2301 h 0.179 l 0.091,-0.234 0.066,0.018 0.173,0.173 -0.152,0.1969 0.256,0.2031 0.096,0.268 -0.095,0.005 -0.027,-0.0422 -0.33,-0.1797 -0.512,0.0258 -0.562,0.025 -0.714,-0.025 -0.766,-0.1532 -0.255,0.1532 1.046,0.766 0.867,0.561 0.613,0.306 0.715,0.281 0.485,0.254 0.535,0.64 0.143,-0.298 c 0.068,0.064 0.133,0.129 0.194,0.196 l -0.26,0.229 v 0.415 c -0.092,-0.119 -0.205,-0.266 -0.345,-0.446 -0.026,-0.006 -0.052,-0.014 -0.078,-0.02 l -0.317,-0.408 -0.587,-0.408 -0.74,-0.256 -0.74,-0.179 -0.612,-0.255 -0.335,-0.211 c -0.103,-0.124 -0.207,-0.257 -0.314,-0.404 l -0.367,-0.34 -0.167,0.034 -0.273,-0.252 -0.383,0.0758 v 0 l -0.05,0.4332 0.128,0.357 0.127,0.613 -0.038,0.448 0.283,0.491 0.167,-0.138 0.231,0.399 0.445,-0.365 0.051,0.058 -0.448,0.491 0.377,0.586 0.262,-0.379 0.296,0.46 0.393,-0.562 0.125,0.073 -0.393,0.783 0.471,0.373 0.183,-0.344 0.474,0.376 0.251,-0.587 0.034,0.006 -0.211,0.9 0.541,0.165 0.075,-0.286 0.407,0.123 0.313,-0.716 h 0.006 v 0.997 h 0.658 v -0.16 h 0.52 v -0.837 l 0.147,-0.025 0.252,0.904 0.612,-0.165 -0.043,-0.16 0.533,-0.143 -0.293,-0.699 0.154,-0.049 0.285,0.607 0.27,-0.282 0.098,0.242 0.506,-0.527 -0.227,-0.449 0.186,-0.25 0.132,0.142 0.125,-0.232 0.336,0.37 0.338,-0.624 -0.369,-0.438 0.508,-0.624 0.363,-0.48 v -0.288 l 0.002,-0.106 -0.275,0.072 v -0.197 l -0.385,-0.102 -0.566,0.147 c 0.107,-0.158 0.205,-0.3459 0.283,-0.574 l -0.496,0.1582 -0.284,0.0457 0.145,-0.4149 -0.484,0.1531 -0.791,0.1278 -0.869,-0.102 v 0 l -0.307,0.025 0.051,-0.1758 0.13,-0.314 v -1.0391 l 0.075,0.4559 v 0 l 0.552,0.025 z m -21.3,22.8491 1.001,0.101 1.094,-0.012 0.879,-0.084 0.488,-0.126 0.04,-0.394 -0.159,-0.614 -0.515,0.097 -0.763,0.048 -1.235,-0.002 -0.951,-0.023 -0.379,-0.139 0.408,0.415 0.2,0.495 z m -1.26,-5.143 0.9,0.148 0.398,-0.034 0.978,-0.249 0.19,-0.229 0.098,-0.39 -0.2,-0.244 -0.351,-0.134 -1.17,0.204 -0.907,0.057 -0.413,0.073 -0.065,0.616 0.542,0.255 z m -0.248,1.355 1.254,0.427 1.807,-0.161 0.142,-0.308 0.02,-0.331 -0.309,-0.255 -0.556,-0.057 -0.959,0.051 -0.858,-0.243 -0.468,-0.026 -0.224,0.144 -0.135,0.338 0.17,0.268 z m -0.286,1.297 1.429,0.586 0.465,0.096 1.516,-0.268 0.437,-0.728 -0.334,-0.284 -0.439,-0.095 -0.486,0.076 -1.068,0.016 -0.982,-0.236 -0.329,-0.11 -0.348,0.658 z m 0.624,2.696 -1.067,-1.095 -0.066,-0.456 0.148,-0.345 0.405,-0.376 0.415,0.067 -0.022,0.368 0.847,0.858 0.175,0.491 -0.04,0.394 -0.132,0.211 -0.288,0.044 z m 2.804,-8.51 c 0.996,-0.031 1.366,1.565 1.436,1.894 0.91,-2.13 -0.352,-1.602 0.375,-2.863 l 0.067,-1.257 c 0.23,-2.094 -1.865,-4.183 -1.065,-1.433 0.205,0.705 -1.531,5.728 -0.813,3.659 z m 2.128,5.251 -0.368,0.037 -0.62,0.311 -0.303,0.217 -0.295,0.42 -0.181,0.404 0.139,0.263 0.295,0.154 0.442,-0.203 0.915,-0.454 0.462,-0.403 0.04,-0.394 -0.226,-0.272 z m 3.676,-21.304 0.173,0.0179 -0.005,0.0473 c 0.142,-0.001 0.978,0.559 1.34,0.4098 0.411,-0.168 0.396,-1.1071 0.163,-1.3848 -2.111,-2.516 -1.219,-1.8 -0.393,-1.9024 1.881,-0.2308 -0.565,-4.4539 -2.702,-5.1097 -0.278,-0.1551 0.332,-0.186 -0.74,-0.2653 -1.072,-0.0769 1.769,2.568 1.237,3.434 -0.532,0.866 -3.13,-0.8668 -3.677,-0.3187 -0.547,0.5469 2.693,1.2679 2.446,1.889 -0.248,0.6207 -2.873,-0.3332 -3.012,0.3641 -0.139,0.6977 0.162,0.7188 1.348,1.0508 1.185,0.332 2.051,0.416 3.445,1.4711 0.131,0.1051 0.258,0.2058 0.377,0.2969 z m -7.029,29.827 c -0.193,0.579 -0.878,1.185 -0.878,1.734 0,0.549 0.349,1.442 0.542,1.892 0.256,-0.385 0.513,-0.771 0.77,-1.156 0.257,0.834 0.514,2.576 0.771,3.41 0.193,-0.771 1.009,-2.736 0.976,-3.507 -0.032,-0.772 -1.175,-1.666 -1.432,-2.373 -0.45,0 -0.3,0 -0.749,0 z m 2.277,-28.0419 -0.329,-0.2851 -0.209,-0.6008 v -1.2571 l -0.524,-0.548 -0.418,-0.7082 -0.131,-0.7348 0.131,-0.9152 0.445,-1.7289 0.472,-1.2031 0.392,-0.3911 0.524,-0.2636 0.446,-0.0512 0.623,-0.3051 -0.262,-0.9437 -0.262,-0.7602 0.077,-0.5211 0.132,-0.4461 0.315,-0.3679 1.728,-0.6789 -0.341,-1.729 -0.681,-3.0902 -0.078,-0.809 0.132,-0.6558 0.287,-0.6008 2.382,-2.7223 -0.524,-1.3629 -0.052,-0.707 0.052,-0.6012 0.129,-0.5769 -2.668,-5.3399 -0.341,-1.1539 -0.104,-0.916 0.104,-0.6012 0.341,-0.6027 0.813,-0.5512 0.887,-0.18 0.708,-0.7879 0.26,-0.784 -0.26,-1.2832 -1.546,-2.436 v -0.7839 l 0.32,-1.018 c 4.422,-1.482 9.14,-2.3031 14.041,-2.341 -0.519,0.005 -1.033,0.0199 -1.547,0.0422 0.49,2.082 2.827,3.8168 3.042,6.3808 0.524,6.2531 0.961,11.7192 4.758,19.0031 v 0 c -2.603,-7.0043 -2.074,-17.8929 -3.517,-25.366 -0.055,-0.289 -0.59,-0.0269 -0.887,-0.0371 2.539,0.0828 5.023,0.375 7.443,0.8621 -0.103,-0.0211 -0.205,-0.041 -0.306,-0.0609 1.281,5 2.289,7.8879 0.789,13.2348 -1.202,-2.9711 -2.579,-6.4778 -3.78,-9.452 0.342,2.3441 -0.375,3.3371 1.684,7.8621 2.057,4.5231 0.658,10.2418 -0.188,16.9789 2.565,-7.1648 5.905,-18.3558 4.508,-26.5558 -0.056,-0.3262 -0.31,-0.8571 -0.574,-1.5262 1.371,0.3461 2.719,0.7539 4.037,1.2191 l -0.158,1.925 0.838,0.1059 0.679,0.2879 0.42,0.7851 0.159,0.943 v 1.5441 1.5469 l 3.216,4.161 0.864,0.2859 0.472,0.2902 0.211,0.6789 0.367,0.1578 0.338,0.2614 0.133,0.6558 0.733,0.0512 0.261,0.3918 v 0.4969 l 0.891,0.2113 0.131,0.3648 v 0.3168 l -0.446,0.8883 0.995,1.4668 -0.393,1.0992 1.205,0.3938 -0.471,1.2551 -8.484,5.63 -0.492,-1.4558 -0.844,0.3289 -1.83,-2.3031 -0.604,-0.2602 h -0.392 l -0.471,0.1813 -0.523,0.5769 -0.602,1.2828 -0.76,1.8614 -0.759,2.6418 -0.393,0.7871 -0.338,0.2859 -0.447,0.184 -1.389,0.734 -0.42,0.207 -0.259,0.6031 -0.526,0.5239 -0.25,0.0601 -0.301,1.143 -0.025,0.2301 v 0.032 h -0.002 l -0.076,0.6808 -0.076,1.0219 0.549,0.4449 0.287,0.2872 0.027,0.446 -0.941,3.561 0.548,0.2859 0.079,0.3949 -0.34,1.2813 0.418,1.0649 7.07,1.24 -0.02,0.305 -7,0.549 -0.105,0.422 5.893,3.409 -0.055,0.197 -6.512,-1.561 -0.357,0.512 4.699,6.089 -0.27,0.218 -6.55,-5.026 c -0.77,0.333 -0.203,0.259 -1.039,0.33 l -0.995,8.177 -0.475,-0.002 -1.21,-8.121 -1.075,0.029 -5.908,5.555 -0.337,-0.269 4.07,-6.387 -0.593,-0.688 -5.345,0.832 -0.043,-0.485 4.353,-2.345 -0.344,-0.581 -4.574,-0.956 -0.858,-0.221 -0.643,1.75 c -1.271,2.268 -1.549,4.892 -3.343,10.272 l 0.083,0.856 0.394,1.907 0.039,0.454 -0.095,0.388 -0.397,1.68 -0.007,0.348 -0.064,0.341 -0.193,0.255 -0.701,0.55 0.192,1.416 0.978,0.526 c 0.439,0.376 0.775,0.593 1.008,1.125 l -0.113,1.109 -0.357,0.19 -0.163,1.603 c -0.162,0.781 -0.098,0.209 -1.032,0.514 l -1.017,-0.033 c 0.024,0.235 0.787,0.686 0.968,0.836 2.991,2.485 -1.185,9.208 -3.096,11.834 0.197,-2.589 0.15,-4.109 -0.802,-6.448 0.348,0.826 -0.385,3.646 -1.273,4.383 0.113,-0.909 -0.25,-3.482 -0.908,-4.73 -0.659,-1.248 -2.126,-3.412 -0.351,-5.103 l 1.289,-0.783 -1.808,-0.022 -0.898,-0.78 -0.059,-1.702 -0.353,-0.384 0.109,-1.061 0.499,-0.497 0.677,-0.887 0.468,-0.176 -0.228,-0.821 0.003,-0.299 0.113,-0.261 0.277,-0.52 0.061,-0.317 -0.072,-0.384 0.124,-0.407 0.203,-0.355 -0.211,-0.37 0.047,-0.469 0.191,-0.351 -0.238,-0.576 0.045,-0.446 0.153,-0.38 0.198,-0.579 0.422,-0.554 0.783,-0.817 0.572,-0.64 0.034,-0.346 -0.348,-0.435 -0.11,-0.308 0.135,-0.51 0.398,-0.308 0.499,-0.223 0.119,-0.885 -0.097,-0.434 -0.012,-0.425 0.34,-1.079 0.17,-0.282 0.38,-0.135 0.313,-0.069 0.109,-0.238 c 0.525,-1.751 0.391,-4.968 0.682,-6.723 l -0.01,-0.7489 0.147,-0.6062 0.075,-0.2008 v 0"
       style="fill:#ffffff;fill-opacity:1;fill-rule:evenodd;stroke:none;stroke-width:0.1"
       id="path86" /><path
       d="m -274.3285,33.846621 -0.205,-1.964 1.693,-0.563 -1.638,-0.726 0.459,-1.901 -1.43,1.24 -1.235,-1.337 0.207,1.967 -1.693,0.562 1.637,0.724 -0.459,1.901 1.43,-1.239 z m -66.927,-3.328 0.525,-1.85 -1.53,-0.825 1.692,-0.421 -0.123,-1.899 1.165,1.429 1.406,-1.076 -0.525,1.85 1.529,0.824 -1.691,0.421 0.123,1.9 -1.165,-1.43 z m 4.303,0.316 c 4.748,1.12 6.813,1.544 10.853,-0.216 -3.865,0.808 -4.283,0.685 -9.437,-1.009 -0.172,0.388 -1.242,0.837 -1.416,1.225 z m 1.142,12.174 c 6.619,-2.679 7.228,-4.078 11.403,-10.123 -5.743,5.418 -6.275,6.688 -13.138,7.51 0.092,0.846 1.643,1.767 1.735,2.613 z m -6.512,3.304 0.526,-2.499 2.148,0.323 -1.584,-1.848 1.258,-2.027 -2.111,0.652 -0.889,-2.348 -0.525,2.498 -2.148,-0.322 1.584,1.848 -1.259,2.027 2.112,-0.652 z m 13.251,8.297 -1.608,-1.18 -1.354,1.188 0.203,-1.796 -1.891,-0.567 1.81,-0.617 -0.536,-1.755 1.608,1.18 1.354,-1.188 -0.203,1.796 1.891,0.569 -1.81,0.614 z m 50.331,-21.203 c -5,0.296 -7.164,0.361 -10.944,-2.133 3.77,1.5 4.215,1.45 9.727,0.644 0.107,0.424 1.111,1.067 1.217,1.489 z m -2.217,11.023 c -6.619,-2.678 -7.229,-4.078 -11.404,-10.123 5.744,5.419 6.275,6.687 13.138,7.509 -0.091,0.847 -1.642,1.769 -1.734,2.614 z m 6.512,3.305 -0.528,-2.499 -2.146,0.323 1.584,-1.848 -1.258,-2.028 2.109,0.652 0.891,-2.348 0.525,2.5 2.147,-0.323 -1.584,1.847 1.26,2.027 -2.112,-0.653 z m -13.25,7.806 1.607,-1.181 1.354,1.188 -0.202,-1.796 1.889,-0.569 -1.81,-0.614 0.537,-1.757 -1.608,1.181 -1.355,-1.188 0.203,1.796 -1.891,0.569 1.811,0.614 z m -3.367,-4.979 c -3.391,-5.684 -3.375,-7.022 -4.475,-13.398 2.383,7.181 2.703,7.66 6.955,12.531 -0.439,0.43 -2.041,0.436 -2.48,0.867 z m -13.198,4.421 -0.443,-2.63 c -0.08,-0.48 -0.654,-0.727 -1.305,-0.876 -1.276,-0.293 -2.553,-0.293 -3.83,0 -0.649,0.149 -1.224,0.396 -1.305,0.876 l -0.442,2.63 c -0.487,2.895 7.814,2.898 7.325,0 z m -4.695,-31.119 c -0.575,-3.39 -1.265,-6.639 -2.07,-9.748 h 6.175 c -0.804,3.109 -1.494,6.358 -2.07,9.748 z m -3.148,7.114 c 0.26,1.834 1.438,8.019 2.221,19.154 h 1.956 1.953 c 0.87,-13.021 2.182,-16.159 2.202,-19.154 z m -5.049,-18.582 c 1.629,4.587 3.026,9.436 4.194,14.564 h 10.042 c 1.168,-5.128 2.564,-9.977 4.193,-14.564 z m 9.215,-7.2680004 c -5.695,-0.675 -10.704,-8.306 -10.634,-16.1289996 h -11.105 c 4.392,6.1799996 7.863,11.53499964 10.905,19.1119996 h 21.668 c 3.041,-7.57699996 7.003,-12.932 11.396,-19.1119996 h -11.105 c 0.07,7.8229996 -5.43,15.4539996 -11.125,16.1289996 z m 0.071,61.8660004 1.247,-8.996 c -0.871,0.439 -1.743,0.439 -2.616,0 z m -17.839,-17.361 c 3.39,-5.686 3.375,-7.022 4.476,-13.399 -2.384,7.182 -2.704,7.66 -6.957,12.53 0.439,0.431 2.042,0.438 2.481,0.869 v 0"
       style="fill:#ffffff;fill-opacity:1;fill-rule:evenodd;stroke:none;stroke-width:0.1"
       id="path88" /><path
       d="m -147.41735,47.956039 v -7.393 h -14.514 v 7.393 l -0.969,2.082 h 16.453 z m -7.256,17.536 c 0.98,-5.523 2.898,-10.366 5.514,-14.211 h -11.03 c 2.717,4.265 4.36,9.108 5.516,14.211 z m -12.397,-33.546 h 24.793 v -5.18 h -1.359 v 2.953 c 0,0.479 -0.396,0.873 -0.883,0.873 v 0 c -0.484,0 -0.881,-0.394 -0.881,-0.873 v -2.953 h -2.334 v 2.953 c 0,0.479 -0.396,0.873 -0.882,0.873 v 0 c -0.485,0 -0.881,-0.394 -0.881,-0.873 v -2.953 h -2.334 v 2.953 c 0,0.479 -0.399,0.873 -0.883,0.873 v 0 c -0.486,0 -0.883,-0.394 -0.883,-0.873 v -2.953 h -0.795 -0.562 -0.797 v 2.953 c 0,0.479 -0.397,0.873 -0.881,0.873 v 0 c -0.486,0 -0.883,-0.394 -0.883,-0.873 v -2.953 h -2.334 v 2.953 c 0,0.479 -0.396,0.873 -0.883,0.873 v 0 c -0.484,0 -0.881,-0.394 -0.881,-0.873 v -2.953 h -2.336 v 2.953 c 0,0.479 -0.396,0.873 -0.88,0.873 v 0 c -0.485,0 -0.881,-0.394 -0.881,-0.873 v -2.953 h -1.36 z m 1.993,-35.7549996 v -6.3760004 c -1.166,0.3070004 -2.311,0.6640004 -3.436,1.0700004 v 5.306 h -2.947 v 5.071 h 33.574 v -5.071 h -2.949 v -5.305 c -1.123,-0.406 -2.268,-0.764 -3.434,-1.0710004 v 6.3760004 h -2.625 v -6.9750004 c -1.131,-0.219 -2.275,-0.392 -3.435,-0.517 v 7.4920004 h -2.627 v -7.6840004 c -0.569,-0.024 -1.143,-0.039 -1.717,-0.039 -0.576,0 -1.149,0.015 -1.719,0.039 v 7.6840004 h -2.625 v -7.4920004 c -1.16,0.124 -2.305,0.298 -3.435,0.516 v 6.9760004 z m 18.609,40.7489996 4.008,-4.349 h -24.426 l 3.846,4.533 -1.049,1.953 h 18.609 l -0.941,-2.137 z m -18.494,-12.355 h 20.58 V 4.9560394 h -20.58 z m -5.596,2.065 h 31.768 V 2.8910394 h -31.768 z m 0.072,4.444 1.116,-1.969 1.117,-1.965 h -2.252 l 0.01,1.965 z m 31.629,0 -1.115,-1.969 -1.117,-1.965 h 2.252 l -0.01,1.965 z m -11.121,-14.394 -3.388,-1.713 -0.739,-0.374 0.151,-2.303 h -0.623 -0.627 l 0.119,1.807 -1.666,-0.844 -0.274,0.494 -0.273,0.496 2.271,0.757 0.139,2.116 0.311,4.822 0.308,-4.822 0.119,-1.824 0.51,0.17 z m -4.693,6.197 c 4.455,0 8.09,-3.637 8.09,-8.091 0,-4.458 -3.635,-8.0909996 -8.09,-8.0909996 -4.459,0 -8.092,3.6329996 -8.092,8.0909996 0,4.454 3.633,8.091 8.092,8.091 z m -0.016,49.699 1.434,-2.799 -0.703,-4.141 h -1.385 l -0.779,4.141 1.433,2.799 v 0"
       style="fill:#ffffff;fill-opacity:1;fill-rule:evenodd;stroke:none;stroke-width:0.1"
       id="path90" /><path
       d="m -454.3805,-145.87338 8.105,18.845 -12.2578,-11.645 z m 39.437,17.143 -16.821,-2.379 -10.441,14.42 -11.367,-10.996 -3.3315,4.202 9.5265,26.520001 -17.0124,-15.635001 -1.5848,2.232 22.7452,21.385001 z m -72.4242,-7.078 11.5473,25.371 -15.7762,-15.535 z m 31.9625,6.407 -8.3265,-7.345 -24.8281,-2.587 -5.9012,13.713 20.5762,20.428 c 6.1714,-7.983 12.6668,-15.964 18.4796,-24.209 z m 31.0487,-16.805 -31.2647,-3.579 -5.4039,10.798 -0.4808,0.971 0.7636,0.694 17.8568,16.026 18.529,-24.91 v 0"
       style="fill:#ffffff;fill-opacity:1;fill-rule:evenodd;stroke:none;stroke-width:0.1"
       id="path92" /><path
       d="m -483.4735,-248.51838 h 56.396 v -4.858 h -56.396 z m 47.161,-8.577 h 0.006 l -0.742,2.298 5.374,0.008 -0.862,-2.317 h -0.02 l 0.457,-19.9442 h -0.006 l 1.254,-3.1148 -7.121,0.073 1.173,3.043 z m -10.433,0 h 0.008 l -0.743,2.298 5.375,0.008 -0.862,-2.317 h -0.021 l 0.457,-19.9442 h -0.006 l 1.255,-3.1148 -7.121,0.073 1.173,3.043 z m -10.4311,0 h 0.008 l -0.7426,2.298 5.3739,0.008 -0.862,-2.317 h -0.02 l 0.456,-19.9442 h -0.005 l 1.254,-3.1148 -7.1215,0.073 1.1723,3.043 z m -10.4325,0 h 0.009 l -0.7425,2.298 5.3742,0.008 -0.8633,-2.317 h -0.0195 l 0.457,-19.9442 h -0.006 l 1.2539,-3.1148 -7.1214,0.073 1.1734,3.043 z m -13.9718,-25.0669 h 52.6114 v -2.4281 h -52.6114 z m -3.7852,-3.9242 h 60.1816 v -3.1239 h -60.1816 z m -2.6496,-4.8797 h 65.4812 v -3.8172 h -65.4812 z m 32.6066,53.5058 15.8506,-7.214 h -31.4338 z m 0.134,4.756 30.6486,-13.732 h -61.2974 z m -22.766,-24.391 h 0.008 l -0.7426,2.298 5.375,0.008 -0.8625,-2.317 h -0.0203 l 0.4563,-19.9442 h -0.005 l 1.2555,-3.1148 -7.1219,0.073 1.1727,3.043 0.4855,19.954 v 0"
       style="fill:#ffffff;fill-opacity:1;fill-rule:evenodd;stroke:none;stroke-width:0.1"
       id="path94" /><path
       d="m 54.000712,82.103927 c 0.028,0.203 0.209,0.307 0.409,0.241 0.199,-0.061 0.341,-0.287 0.316,-0.489 -0.045,-0.323 -0.088,-0.639 -0.133,-0.963 -0.023,-0.202 -0.213,-0.3 -0.412,-0.239 -0.197,0.067 -0.336,0.277 -0.303,0.48 0.038,0.324 0.08,0.647 0.123,0.97 z m -1.775,0.512 c 0.025,0.202 0.215,0.323 0.414,0.277 0.197,-0.052 0.334,-0.27 0.313,-0.473 -0.043,-0.323 -0.086,-0.647 -0.131,-0.969 -0.026,-0.196 -0.211,-0.301 -0.414,-0.256 -0.2,0.045 -0.346,0.248 -0.313,0.45 0.045,0.324 0.088,0.647 0.131,0.971 z m -1.787,0.427 c 0.025,0.203 0.215,0.332 0.418,0.286 0.203,-0.038 0.338,-0.248 0.312,-0.451 -0.046,-0.323 -0.091,-0.646 -0.132,-0.969 -0.032,-0.204 -0.217,-0.316 -0.414,-0.279 -0.209,0.045 -0.346,0.241 -0.315,0.445 0.041,0.322 0.088,0.646 0.131,0.968 z m -1.809,0.286 c 0.03,0.203 0.219,0.353 0.43,0.346 0.203,-0.023 0.336,-0.218 0.313,-0.429 -0.041,-0.323 -0.092,-0.638 -0.131,-0.962 -0.032,-0.203 -0.219,-0.323 -0.422,-0.308 -0.203,0.016 -0.35,0.181 -0.321,0.384 0.045,0.323 0.088,0.646 0.131,0.969 z m 7.137,-1.857 c 0.025,0.203 0.211,0.309 0.412,0.233 0.192,-0.082 0.326,-0.315 0.305,-0.518 -0.045,-0.316 -0.088,-0.631 -0.131,-0.954 -0.021,-0.196 -0.203,-0.286 -0.4,-0.203 -0.204,0.067 -0.34,0.285 -0.309,0.488 0.037,0.316 0.08,0.64 0.123,0.954 z m -8.971,1.94 c 0.03,0.203 0.225,0.361 0.426,0.361 0.205,-0.008 0.352,-0.181 0.322,-0.384 -0.043,-0.323 -0.089,-0.646 -0.134,-0.969 -0.03,-0.203 -0.217,-0.354 -0.424,-0.345 -0.207,0 -0.356,0.164 -0.326,0.367 0.045,0.323 0.093,0.647 0.136,0.97 z m -1.845,-0.015 c 0.027,0.203 0.226,0.376 0.429,0.376 0.209,0.015 0.356,-0.151 0.327,-0.354 -0.051,-0.322 -0.098,-0.646 -0.141,-0.969 -0.025,-0.203 -0.223,-0.353 -0.43,-0.369 -0.207,0 -0.355,0.151 -0.326,0.353 0.047,0.316 0.09,0.64 0.141,0.963 z m -1.868,-0.135 c 0.028,0.202 0.223,0.383 0.438,0.405 0.207,0.015 0.355,-0.135 0.326,-0.338 -0.047,-0.323 -0.09,-0.638 -0.142,-0.962 -0.028,-0.203 -0.225,-0.369 -0.436,-0.383 -0.211,-0.023 -0.359,0.12 -0.33,0.315 0.051,0.324 0.096,0.64 0.144,0.963 z m -0.808,-2.711 c 2.408,0.15 4.799,0.26 7.144,-0.113 2.325,-0.37 4.606,-1.181 6.879,-2.037 -0.418,-3.165 -0.836,-6.329 -1.246,-9.486 -2.312,0.774 -4.627,1.515 -6.98,1.886 -2.367,0.373 -4.78,0.316 -7.203,0.226 0.463,3.164 0.937,6.344 1.406,9.524 z m -7.895,-11.262 c 2.25,0.444 4.481,0.828 6.674,1.007 2.197,0.181 4.373,0.183 6.524,-0.127 2.125,-0.306 4.22,-0.909 6.295,-1.669 2.072,-0.759 4.128,-1.698 6.183,-2.683 -0.049,-0.369 -0.101,-0.738 -0.144,-1.098 -0.161,0.075 -0.319,0.149 -0.479,0.223 -0.486,-3.877001 -0.976,-7.755001 -1.475,-11.632001 -1.998,0.758 -3.996,1.496 -6.007,2.104 -2.008,0.608 -4.035,1.106 -6.08,1.391 -2.063,0.287 -4.155,0.346 -6.25,0.293 -2.096,-0.053 -4.213,-0.24 -6.346,-0.474 0.609,3.911 1.221,7.828001 1.826,11.733001 -0.297,-0.053 -0.592,-0.109 -0.891,-0.165 0.063,0.361 0.114,0.729 0.17,1.097 z m -1.886,-13.424001 c 2.238,0.275 4.457,0.498 6.654,0.567 0.156,0.005 0.312,0.008 0.467,0.012 2.078,0.059 4.144,-0.011 6.187,-0.295 2.26,-0.314 4.489,-0.88 6.705,-1.578 2.215,-0.7 4.424,-1.557 6.621,-2.458 -0.05,-0.399 -0.097,-0.79 -0.148,-1.189 -0.26,0.105 -0.52,0.209 -0.779,0.312 -0.518,-4.149 -1.041,-8.3 -1.561,-12.456 -2.146,0.674 -4.293,1.319 -6.447,1.864 -2.152,0.544 -4.315,1.017 -6.494,1.32 -2.192,0.303 -4.399,0.437 -6.617,0.467 -2.217,0.031 -4.45,-0.039 -6.696,-0.145 0.645,4.109 1.281,8.22 1.916,12.33 -0.211,-0.027 -0.42,-0.055 -0.629,-0.083 0.065,0.399 0.127,0.789 0.194,1.188 0.205,0.028 0.412,0.058 0.617,0.085 0.004,0.02 0.006,0.039 0.01,0.059 z m 21.64,-5.126 v 0 c 0.887,-0.301 1.51,-1.211 1.397,-2 -0.348,-2.465 -0.699,-4.923 -1.057,-7.396 -1.082,0.338 -2.17,0.639 -3.267,0.931 0.371,2.511 0.744,4.999 1.103,7.503 0.117,0.803 0.941,1.248 1.824,0.962 z m 1.492,14.004001 v 0 c 0.829,-0.323 1.418,-1.173001 1.315,-1.880001 -0.318,-2.179 -0.643,-4.359 -0.959,-6.546 -1.012,0.383 -2.029,0.736 -3.047,1.06 0.33,2.209 0.664,4.427 0.998,6.636001 0.109,0.714 0.869,1.053 1.693,0.73 z m -5.498,1.713 v 0 c 0.842,-0.21 1.434,-0.976 1.325,-1.691 -0.338,-2.224001 -0.686,-4.465001 -1.02,-6.697001 -1.031,0.255 -2.064,0.473 -3.092,0.676 0.354,2.247 0.705,4.488 1.053,6.736001 0.113,0.721 0.895,1.157 1.734,0.976 z m -5.611,0.82 v 0 c 0.859,-0.053 1.469,-0.685 1.354,-1.413 -0.354,-2.247001 -0.715,-4.495001 -1.075,-6.750001 -1.047,0.075 -2.103,0.128 -3.16,0.172 0.369,2.24 0.735,4.480001 1.104,6.728001 0.117,0.721 0.914,1.286 1.777,1.263 z m 3.762,-14.973001 v 0 c 0.898,-0.196 1.521,-1.038 1.402,-1.842 -0.371,-2.526 -0.752,-5.044 -1.127,-7.562 -1.096,0.225 -2.197,0.436 -3.297,0.631 0.393,2.534 0.774,5.074 1.162,7.607 0.127,0.819 0.959,1.339 1.86,1.166 z m -5.946,0.834 v 0 c 0.909,-0.068 1.551,-0.79 1.426,-1.608 -0.394,-2.549 -0.789,-5.082 -1.193,-7.623 -1.108,0.09 -2.227,0.18 -3.346,0.248 0.406,2.533 0.807,5.058 1.213,7.585 0.131,0.819 0.981,1.451 1.9,1.398 z m -6.062,0.037 v 0 c 0.93,0.046 1.576,-0.586 1.445,-1.406 -0.406,-2.51 -0.816,-5.013 -1.23,-7.531 -1.127,0 -2.264,-0.022 -3.397,-0.075 0.414,2.48 0.825,4.961 1.243,7.441 0.13,0.797 1.009,1.511 1.939,1.571 z m 14.721,-33.036 v 0 c 1.019,-0.196 1.738,-1.105 1.605,-2.007 -0.416,-2.834 -0.824,-5.668 -1.234,-8.5020004 -1.258,0.173 -2.506,0.338 -3.756,0.5110004 0.435,2.88 0.867,5.758 1.297,8.645 0.137,0.923 1.074,1.533 2.088,1.353 z m -6.701,1.112 v 0 c 1.013,-0.15 1.73,-1.052 1.587,-1.984 -0.443,-2.901 -0.89,-5.817 -1.337,-8.72 -1.252,0.165 -2.499,0.331 -3.752,0.489 0.46,2.916 0.927,5.856 1.384,8.78 0.147,0.939 1.098,1.594 2.118,1.435 z m -6.739,0.872 v 0 c 1.022,-0.105 1.739,-0.977 1.588,-1.918 -0.467,-2.922 -0.943,-5.854 -1.416,-8.787 -1.25,0.159 -2.498,0.309 -3.752,0.467 0.483,2.909 0.967,5.818 1.445,8.734 0.153,0.932 1.116,1.617 2.135,1.504 z m -6.769,0.61 v 0 c 1.031,-0.069 1.744,-0.903 1.588,-1.828 -0.491,-2.885 -0.971,-5.772 -1.461,-8.652 -1.252,0.152 -2.502,0.293 -3.752,0.437 0.49,2.833 0.986,5.668 1.476,8.509 0.155,0.909 1.121,1.6 2.149,1.534 z m 21.709,13.004 v 0 c 0.945,-0.256 1.621,-1.189 1.492,-2.045 -0.381,-2.699 -0.762,-5.398 -1.143,-8.096 -1.17,0.264 -2.336,0.511 -3.502,0.751 0.401,2.737 0.797,5.473 1.2,8.216 0.123,0.88 1.005,1.414 1.953,1.174 z m -6.254,1.375 v 0 c 0.955,-0.173 1.631,-1.068 1.492,-1.954 -0.41,-2.76 -0.82,-5.526 -1.234,-8.291 -1.166,0.202 -2.346,0.39 -3.52,0.571 0.428,2.789 0.854,5.562 1.275,8.344 0.137,0.894 1.032,1.488 1.987,1.33 z m -6.317,0.849 v 0 c 0.963,-0.083 1.641,-0.894 1.5,-1.79 -0.429,-2.78 -0.865,-5.568 -1.3,-8.35 -1.188,0.128 -2.364,0.241 -3.549,0.353 0.443,2.759 0.883,5.525 1.33,8.299 0.144,0.895 1.049,1.571 2.019,1.488 z m -6.4,0.278 v 0 c 0.978,-0.008 1.656,-0.737 1.512,-1.622 -0.448,-2.746 -0.893,-5.497 -1.344,-8.24 -1.191,0.06 -2.387,0.113 -3.578,0.151 0.455,2.698 0.908,5.404 1.355,8.11 0.141,0.864 1.075,1.601 2.055,1.601 z m 5.242,28.887001 v 0 c 0.883,0.084 1.508,-0.451 1.387,-1.165 -0.377,-2.232001 -0.744,-4.465001 -1.115,-6.689001 -1.071,-0.053 -2.147,-0.144 -3.225,-0.249 0.373,2.195 0.752,4.398 1.125,6.600001 0.123,0.722 0.941,1.397 1.828,1.503 z m 13.381,10.968 v 0 c 1.068,-0.309 1.889,-1.03 1.816,-1.586 -0.228,-1.707 -0.459,-3.413 -0.691,-5.112 -1.307,0.384 -2.629,0.714 -3.947,1.015 0.238,1.714 0.482,3.436 0.715,5.156 0.076,0.557 1.027,0.797 2.107,0.527 z m -6.186,0.946 v 0 c 1.116,-0.045 1.956,-0.548 1.877,-1.105 -0.238,-1.713 -0.486,-3.435 -0.726,-5.155 -1.356,0.082 -2.705,0.12 -4.068,0.12 0.248,1.705 0.496,3.42 0.742,5.126 0.08,0.556 1.064,1.022 2.175,1.014 z m -17.042,-37.509001 c 2.476,0.165 4.951,0.277 7.396,0.27 2.447,-0.008 4.885,-0.135 7.299,-0.458 2.398,-0.322 4.783,-0.828 7.156,-1.443 2.371,-0.616 4.729,-1.346 7.086,-2.113 -0.059,-0.42 -0.113,-0.841 -0.162,-1.27 -0.258,0.081 -0.518,0.162 -0.774,0.243 -0.585,-4.536 -1.171,-9.07 -1.763,-13.592 -2.299,0.511 -4.602,1.006 -6.906,1.444 -2.305,0.434 -4.614,0.837 -6.932,1.142 -2.32,0.304 -4.66,0.511 -6.998,0.661 -2.348,0.151 -4.694,0.248 -7.051,0.324 0.734,4.514 1.465,9.031 2.193,13.559 -0.25,-0.014 -0.503,-0.03 -0.755,-0.045 0.074,0.428 0.138,0.849 0.211,1.278 z m -3.2,-15.41 c 2.594,-0.07 5.18,-0.177 7.754,-0.337 2.58,-0.161 5.153,-0.392 7.711,-0.736 2.551,-0.344 5.088,-0.794 7.625,-1.292 2.533,-0.498 5.07,-1.072 7.606,-1.652 -0.063,-0.459 -0.121,-1.27 -0.178,-1.72 -0.256,0.057 -0.512,0.117 -0.768,0.18 -0.461,-4.104 -1.111,-10.487 -1.568,-14.5820004 -11.119,-2.738 -21.016,-2.191 -30.262,1.016 0.791,5.4830004 1.891,12.2380004 2.682,17.7340004 -0.276,0.011 -0.549,0.02 -0.822,0.03 0.068,0.45 0.144,0.901 0.22,1.359 z m 16.467,56.886001 c 2.594,0.225 5.166,0.404 7.68,-0.007 2.498,-0.409 4.935,-1.331 7.373,-2.301 -0.084,-0.631 -0.164,-1.255 -0.252,-1.879 -2.434,0.962 -4.885,1.866 -7.387,2.271 -2.521,0.406 -5.096,0.247 -7.689,0.037 0.088,0.624 0.181,1.255 0.275,1.879 v 0"
       style="fill:#ffffff;fill-opacity:1;fill-rule:evenodd;stroke:none;stroke-width:0.1"
       id="path96" /><path
       d="m -332.9955,-115.10538 c -0.599,0.889 -1.162,1.953 -1.681,3.191 -0.267,-0.641 -0.544,-1.234 -0.834,-1.781 -0.154,-0.291 -0.288,-0.534 -0.404,-0.728 -0.122,-0.205 -0.266,-0.431 -0.429,-0.673 l -0.003,-0.005 v -0.004 c -0.71,-1.051 -1.57,-2.025 -2.514,-2.951 -0.914,-0.898 -1.91,-1.754 -2.919,-2.595 -1.002,-0.834 -1.791,-1.665 -2.365,-2.489 h -0.004 c -0.094,-0.134 -0.194,-0.29 -0.299,-0.465 -0.551,-0.919 -0.827,-1.827 -0.827,-2.718 v -0.004 c 0,-2.046 1.008,-3.815 3.022,-5.307 h 10e-4 c 1.045,-0.771 2.198,-1.353 3.458,-1.743 1.267,-0.393 2.638,-0.59 4.114,-0.59 1.48,0 2.856,0.197 4.126,0.59 1.263,0.39 2.417,0.972 3.463,1.743 v 0 c 2.014,1.492 3.023,3.261 3.023,5.307 0,1.299 -0.585,2.631 -1.754,3.987 -0.25,0.29 -0.513,0.568 -0.791,0.838 -0.294,0.284 -0.61,0.567 -0.946,0.847 l -0.004,0.004 c -1.009,0.841 -2.005,1.696 -2.92,2.594 -0.942,0.927 -1.804,1.901 -2.513,2.952 z m -0.677,6.563 0.002,-0.007 v -0.004 c 0.099,-0.315 0.204,-0.633 0.313,-0.951 0.085,-0.245 0.194,-0.543 0.327,-0.89 0.556,-1.458 1.162,-2.671 1.81,-3.633 0.63,-0.935 1.403,-1.807 2.251,-2.64 0.876,-0.861 1.83,-1.679 2.796,-2.485 l 0.004,-0.003 c 0.383,-0.319 0.737,-0.636 1.061,-0.95 0.341,-0.331 0.646,-0.652 0.914,-0.963 1.488,-1.724 2.231,-3.48 2.231,-5.259 0,-2.692 -1.281,-4.986 -3.841,-6.88 l -0.004,-0.004 c -1.251,-0.922 -2.616,-1.613 -4.096,-2.07 -1.471,-0.457 -3.063,-0.684 -4.775,-0.684 -1.707,0 -3.296,0.227 -4.764,0.684 -1.476,0.457 -2.84,1.148 -4.091,2.07 l -0.004,0.004 c -2.56,1.894 -3.841,4.188 -3.841,6.88 v 0.004 c 0.001,1.246 0.367,2.482 1.099,3.703 0.104,0.173 0.23,0.366 0.379,0.581 l -0.002,10e-4 c 0.675,0.967 1.587,1.931 2.735,2.886 0.966,0.806 1.92,1.625 2.796,2.485 0.848,0.833 1.62,1.705 2.25,2.64 l 0.002,-0.001 10e-4,0.001 c 0.105,0.156 0.226,0.35 0.364,0.581 0.144,0.242 0.266,0.457 0.363,0.641 0.619,1.168 1.187,2.589 1.702,4.255 l 0.999,3.234 1.019,-3.226 v 0"
       style="fill:#ffffff;fill-opacity:1;fill-rule:nonzero;stroke:none;stroke-width:0.1"
       id="path98" /><path
       d="m -334.7055,-108.91138 0.123,-0.22 c 0.521,-1.619 1.095,-3.011 1.717,-4.171 h -1.85 -1.763 c 0.647,1.212 1.239,2.677 1.773,4.391 v 0"
       style="fill:#ffffff;fill-opacity:1;fill-rule:evenodd;stroke:none;stroke-width:0.1"
       id="path100" /><path
       d="m -339.6195,-117.36438 0.096,-0.174 h -0.274 c 0.059,0.058 0.119,0.115 0.178,0.174 v 0"
       style="fill:#ffffff;fill-opacity:1;fill-rule:evenodd;stroke:none;stroke-width:0.1"
       id="path102" /><path
       d="m -336.7245,-113.74438 0.886,-1.589 1.228,-2.205 h -4.912 l 0.342,0.615 c 0.725,0.747 1.387,1.527 1.946,2.357 0.174,0.258 0.344,0.532 0.51,0.822 v 0"
       style="fill:#ffffff;fill-opacity:1;fill-rule:evenodd;stroke:none;stroke-width:0.1"
       id="path104" /><path
       d="m -329.8835,-117.20638 0.185,-0.332 h -4.912 l 1.228,2.205 0.826,1.482 c 0.147,-0.251 0.296,-0.489 0.449,-0.715 0.63,-0.935 1.39,-1.807 2.224,-2.64 v 0"
       style="fill:#ffffff;fill-opacity:1;fill-rule:evenodd;stroke:none;stroke-width:0.1"
       id="path106" /><path
       d="m -329.5445,-117.53838 h -0.153 l 0.053,0.096 c 0.034,-0.032 0.066,-0.064 0.1,-0.096 v 0"
       style="fill:#ffffff;fill-opacity:1;fill-rule:evenodd;stroke:none;stroke-width:0.1"
       id="path108" /><path
       d="m -343.0455,-120.39638 0.961,-1.724 h -2.592 c 0.451,0.575 0.994,1.15 1.631,1.724 v 0"
       style="fill:#ffffff;fill-opacity:1;fill-rule:evenodd;stroke:none;stroke-width:0.1"
       id="path110" /><path
       d="m -339.6285,-117.71138 1.228,-2.204 1.228,-2.205 h -4.912 l 1.228,2.205 1.228,2.204 v 0"
       style="fill:#ffffff;fill-opacity:1;fill-rule:evenodd;stroke:none;stroke-width:0.1"
       id="path112" /><path
       d="m -334.7155,-117.71138 1.228,-2.204 1.228,-2.205 h -4.912 l 1.228,2.205 1.228,2.204 v 0"
       style="fill:#ffffff;fill-opacity:1;fill-rule:evenodd;stroke:none;stroke-width:0.1"
       id="path114" /><path
       d="m -329.8035,-117.71138 1.228,-2.204 1.228,-2.205 h -4.912 l 1.228,2.205 1.228,2.204 v 0"
       style="fill:#ffffff;fill-opacity:1;fill-rule:evenodd;stroke:none;stroke-width:0.1"
       id="path116" /><path
       d="m -324.6655,-122.12038 h -2.682 l 0.991,1.778 c 0.662,-0.593 1.226,-1.186 1.691,-1.778 v 0"
       style="fill:#ffffff;fill-opacity:1;fill-rule:evenodd;stroke:none;stroke-width:0.1"
       id="path118" /><path
       d="m -345.8845,-124.15038 0.193,-0.347 1.228,-2.204 h -1.854 c -0.006,0.123 -0.01,0.248 -0.01,0.374 0,0.725 0.148,1.451 0.443,2.177 v 0"
       style="fill:#ffffff;fill-opacity:1;fill-rule:evenodd;stroke:none;stroke-width:0.1"
       id="path120" /><path
       d="m -342.0065,-122.29238 1.228,-2.205 1.228,-2.204 h -4.912 l 1.228,2.204 1.228,2.205 v 0"
       style="fill:#ffffff;fill-opacity:1;fill-rule:evenodd;stroke:none;stroke-width:0.1"
       id="path122" /><path
       d="m -337.0945,-122.29238 1.228,-2.205 1.228,-2.204 h -4.912 l 1.228,2.204 1.228,2.205 v 0"
       style="fill:#ffffff;fill-opacity:1;fill-rule:evenodd;stroke:none;stroke-width:0.1"
       id="path124" /><path
       d="m -332.1815,-122.29238 1.228,-2.205 1.227,-2.204 h -4.912 l 1.229,2.204 1.228,2.205 v 0"
       style="fill:#ffffff;fill-opacity:1;fill-rule:evenodd;stroke:none;stroke-width:0.1"
       id="path126" /><path
       d="m -327.2695,-122.29238 1.228,-2.205 1.228,-2.204 h -4.912 l 1.228,2.204 1.228,2.205 v 0"
       style="fill:#ffffff;fill-opacity:1;fill-rule:evenodd;stroke:none;stroke-width:0.1"
       id="path128" /><path
       d="m -323.0255,-126.70138 h -1.787 l 1.228,2.204 0.155,0.279 c 0.276,-0.704 0.414,-1.407 0.414,-2.109 0,-0.126 -0.003,-0.251 -0.01,-0.374 v 0"
       style="fill:#ffffff;fill-opacity:1;fill-rule:evenodd;stroke:none;stroke-width:0.1"
       id="path130" /><path
       d="m -344.5405,-126.52938 1.228,-2.205 1.228,-2.204 h -2.446 c -0.574,0.652 -1.01,1.344 -1.309,2.077 l 0.07,0.127 1.229,2.205 v 0"
       style="fill:#ffffff;fill-opacity:1;fill-rule:evenodd;stroke:none;stroke-width:0.1"
       id="path132" /><path
       d="m -339.6285,-126.52938 1.228,-2.205 1.228,-2.204 h -4.912 l 1.228,2.204 1.228,2.205 v 0"
       style="fill:#ffffff;fill-opacity:1;fill-rule:evenodd;stroke:none;stroke-width:0.1"
       id="path134" /><path
       d="m -334.7155,-126.52938 1.228,-2.205 1.228,-2.204 h -4.912 l 1.228,2.204 1.228,2.205 v 0"
       style="fill:#ffffff;fill-opacity:1;fill-rule:evenodd;stroke:none;stroke-width:0.1"
       id="path136" /><path
       d="m -329.8035,-126.52938 1.228,-2.205 1.228,-2.204 h -4.912 l 1.228,2.204 1.228,2.205 v 0"
       style="fill:#ffffff;fill-opacity:1;fill-rule:evenodd;stroke:none;stroke-width:0.1"
       id="path138" /><path
       d="m -324.8905,-126.52938 1.227,-2.205 0.123,-0.218 c -0.298,-0.7 -0.722,-1.362 -1.271,-1.986 h -0.079 -2.457 l 1.229,2.204 1.228,2.205 v 0"
       style="fill:#ffffff;fill-opacity:1;fill-rule:evenodd;stroke:none;stroke-width:0.1"
       id="path140" /><path
       d="m -342.1895,-130.93838 1.228,-2.205 0.343,-0.617 c -0.8,0.364 -1.559,0.81 -2.275,1.338 -0.029,0.021 -0.058,0.044 -0.087,0.065 l 0.791,1.419 v 0"
       style="fill:#ffffff;fill-opacity:1;fill-rule:evenodd;stroke:none;stroke-width:0.1"
       id="path142" /><path
       d="m -337.2775,-130.93838 1.228,-2.205 1.014,-1.819 c -1.473,0.029 -2.847,0.245 -4.124,0.645 l 0.654,1.174 1.228,2.205 v 0"
       style="fill:#ffffff;fill-opacity:1;fill-rule:evenodd;stroke:none;stroke-width:0.1"
       id="path144" /><path
       d="m -332.3645,-130.93838 1.228,-2.205 0.696,-1.25 c -1.292,-0.376 -2.681,-0.567 -4.168,-0.573 l 1.016,1.823 1.228,2.205 v 0"
       style="fill:#ffffff;fill-opacity:1;fill-rule:evenodd;stroke:none;stroke-width:0.1"
       id="path146" /><path
       d="m -327.4525,-130.93838 0.878,-1.575 c -0.796,-0.572 -1.644,-1.045 -2.545,-1.417 l 0.439,0.787 1.228,2.205 v 0"
       style="fill:#ffffff;fill-opacity:1;fill-rule:evenodd;stroke:none;stroke-width:0.1"
       id="path148" /><path
       d="m -334.6715,-97.551379 0.525,-3.650001 0.525,-3.651 h -2.099 l 0.524,3.651 0.525,3.650001 v 0"
       style="fill:#ffffff;fill-opacity:1;fill-rule:evenodd;stroke:none;stroke-width:0.1"
       id="path150" /><path
       d="m -277.7755,-130.36938 c -0.016,-0.002 -0.026,-0.01 -0.036,-0.024 0.067,0.022 0.11,0.033 0.036,0.024 z m -12.418,0.007 c -0.471,0.361 -0.498,0.986 -0.059,1.401 0.441,0.417 1.19,0.465 1.668,0.105 l 0.004,-0.003 0.014,-0.011 c 0.054,-0.041 0.088,-0.068 0.088,-0.068 0.025,-0.019 0.06,-0.052 0.103,-0.092 v -0.003 c 0.104,-0.099 0.203,-0.207 0.293,-0.323 0.152,0.189 0.32,0.355 0.5,0.491 l 0.006,0.004 c 0.416,0.318 0.892,0.485 1.4,0.493 0.506,0.007 0.994,-0.142 1.438,-0.458 0.234,-0.166 0.455,-0.382 0.654,-0.644 0.084,-0.11 -0.111,-0.168 -0.018,-0.167 0.045,0.001 0.012,0.081 0.157,0.238 0.603,0.658 1.234,1.026 1.97,1.049 0.776,0.026 1.444,-0.312 2.051,-1.063 0.035,0.032 0.071,0.066 0.102,0.097 v 0.005 l 0.066,0.064 c 0.438,0.421 0.932,0.792 1.613,0.881 0.754,0.097 1.477,-0.135 2.122,-0.957 0.152,0.188 0.32,0.353 0.5,0.491 0.419,0.319 0.896,0.487 1.404,0.496 0.508,0.009 0.996,-0.143 1.439,-0.458 0.235,-0.167 0.455,-0.381 0.655,-0.643 0.019,-0.026 0.033,-0.05 0.046,-0.069 0.479,0.216 1.104,0.109 1.475,-0.276 0.42,-0.435 0.361,-1.06 -0.131,-1.396 -0.611,-0.418 -1.252,-0.554 -1.928,-0.393 -0.564,0.134 -1.058,0.478 -1.49,1.041 -0.004,0.006 -0.008,0.011 -0.011,0.017 -0.202,-0.279 -0.428,-0.51 -0.676,-0.687 -0.389,-0.279 -0.819,-0.419 -1.28,-0.42 -0.457,-10e-4 -0.886,0.138 -1.281,0.419 -0.224,0.158 -0.437,0.369 -0.633,0.629 -0.002,-10e-4 -0.004,-0.002 -0.005,-0.004 l -0.067,-0.065 -0.002,0.002 c -0.16,-0.155 -0.324,-0.314 -0.474,-0.433 l -0.002,0.002 c -1,-0.788 -2.106,-1.157 -3.411,0.497 -0.103,0.13 0.122,0.201 0.012,0.197 -0.055,-10e-4 -0.008,-0.089 -0.16,-0.257 -0.613,-0.666 -1.281,-1.019 -2.021,-1.03 -0.791,-0.011 -1.473,0.346 -2.047,1.101 -0.006,0.006 -0.01,0.012 -0.014,0.017 -0.221,-0.309 -0.473,-0.556 -0.748,-0.738 -0.377,-0.251 -0.791,-0.378 -1.231,-0.376 -0.451,0.002 -0.875,0.138 -1.259,0.412 -0.256,0.181 -0.492,0.427 -0.7,0.737 -0.039,0.059 -0.074,0.101 -0.103,0.128 l -0.002,-10e-4 c -0.006,0.006 0.006,-0.005 -0.008,0.005 -0.019,0.015 -0.019,0.017 -0.019,0.016 v 0"
       style="fill:#ffffff;fill-opacity:1;fill-rule:nonzero;stroke:none;stroke-width:0.1"
       id="path152" /><path
       d="m -269.5845,-125.72138 c -0.025,-0.004 0.033,0.004 0.027,-0.001 l -0.005,0.005 c -0.006,-10e-4 -0.014,-0.002 -0.022,-0.004 z m -8.447,-0.016 c -0.012,-0.002 -0.026,-0.014 -0.041,-0.036 0.064,0.03 0.115,0.046 0.041,0.036 z m -8.832,1.999 v 0.001 z m -4.198,-1.998 c -10e-4,10e-4 -10e-4,10e-4 0,-0.001 z m -0.005,0 c -0.508,0.304 -0.604,0.921 -0.217,1.377 0.389,0.457 1.113,0.581 1.619,0.278 l 0.004,-0.003 c 0.016,-0.009 0.062,-0.04 0.142,-0.097 0.059,-0.04 0.112,-0.078 0.147,-0.108 l -0.002,-0.002 c 0.182,-0.147 0.352,-0.323 0.502,-0.53 0.172,0.226 0.365,0.42 0.572,0.579 h 0.002 c 0.428,0.325 0.916,0.496 1.434,0.504 v 0.001 c 0.002,0 0.004,0 0.006,0 0.515,0.008 1.015,-0.147 1.468,-0.47 0.241,-0.173 0.469,-0.395 0.674,-0.664 0.102,-0.134 -0.047,-0.201 0.033,-0.201 h 0.004 c 0.026,0 0.049,0.093 0.213,0.272 0.623,0.68 1.272,1.059 2.026,1.083 0.808,0.026 1.507,-0.334 2.144,-1.142 0.012,-0.015 -0.254,-0.23 -0.16,-0.156 0.103,0.082 0.219,0.193 0.33,0.301 v 0.004 l 0.068,0.067 c 0.452,0.435 0.961,0.818 1.659,0.909 0.791,0.103 1.55,-0.153 2.224,-1.052 0.17,0.223 0.362,0.418 0.569,0.575 0.431,0.328 0.919,0.501 1.439,0.51 0.518,0.008 1.018,-0.147 1.473,-0.471 0.24,-0.173 0.468,-0.394 0.675,-0.664 0.102,-0.134 -0.041,-0.202 0.036,-0.201 0.025,0 0.048,0.092 0.214,0.272 0.235,0.256 0.473,0.466 0.713,0.626 0.323,0.216 0.655,0.356 1,0.413 0.557,0.094 1.114,-0.277 1.244,-0.828 0.127,-0.542 -0.208,-1.06 -0.751,-1.163 l 0.005,-0.005 c -0.089,-0.059 -0.193,-0.153 -0.308,-0.278 -0.633,-0.689 -1.321,-1.053 -2.08,-1.064 -0.809,-0.01 -1.508,0.359 -2.098,1.135 -0.025,0.032 -0.049,0.061 -0.072,0.086 -0.014,-0.019 -0.028,-0.037 -0.043,-0.058 -0.209,-0.295 -0.447,-0.538 -0.705,-0.723 -0.399,-0.283 -0.836,-0.428 -1.307,-0.429 -0.465,-10e-4 -0.906,0.141 -1.308,0.428 -0.249,0.178 -0.485,0.416 -0.7,0.716 -0.019,-0.021 -0.037,-0.041 -0.06,-0.064 l -0.069,-0.066 -0.004,10e-4 c -0.154,-0.151 -0.314,-0.306 -0.496,-0.449 -1.023,-0.808 -2.156,-1.185 -3.496,0.512 -0.121,0.154 0.049,0.235 -0.041,0.232 -0.037,-0.001 -0.043,-0.102 -0.217,-0.291 -0.632,-0.687 -1.318,-1.052 -2.076,-1.064 0,0 -0.002,0 -0.004,0 -0.81,-0.011 -1.507,0.359 -2.099,1.135 -0.024,0.031 -0.049,0.059 -0.072,0.086 -0.014,-0.018 -0.028,-0.037 -0.043,-0.059 -0.231,-0.324 -0.493,-0.584 -0.78,-0.774 v 0 c -0.386,-0.257 -0.808,-0.387 -1.256,-0.385 -0.459,0.003 -0.892,0.143 -1.283,0.421 -0.267,0.189 -0.512,0.443 -0.724,0.759 v 0.003 c -0.051,0.076 -0.098,0.13 -0.139,0.163 l -0.01,0.004 c -0.014,0.01 0.002,0 -0.006,0.005 -0.004,0.002 -0.006,0.003 -0.008,0.004 v -0.001 c 0.004,-0.003 0.022,-0.015 -10e-4,-0.002 l -0.004,0.003 v 0"
       style="fill:#ffffff;fill-opacity:1;fill-rule:nonzero;stroke:none;stroke-width:0.1"
       id="path154" /><path
       d="m -278.2715,-121.34138 c -0.016,-0.002 -0.026,-0.009 -0.032,-0.019 0.067,0.018 0.106,0.029 0.032,0.019 z m -3.981,-0.008 c -0.033,-0.001 -0.029,-0.023 -0.037,-0.064 0.043,0.044 0.109,0.067 0.037,0.064 z m -2.123,0.831 c -0.039,-0.034 -0.09,-0.051 -0.029,-0.05 0.025,0 0.023,0.017 0.029,0.05 z m -4.111,-2.064 c -0.002,0 -0.002,0.001 -0.004,0.001 z m -0.065,0.01 c -0.556,0.073 -0.924,0.583 -0.822,1.134 0.084,0.464 0.473,0.811 0.924,0.867 0.004,0.02 0.008,0.058 0.055,0.123 0.173,0.244 0.373,0.451 0.591,0.619 0.416,0.316 0.887,0.481 1.389,0.489 h 0.004 c 0.498,0.008 0.978,-0.141 1.414,-0.452 0.23,-0.164 0.445,-0.373 0.641,-0.629 0.003,-0.006 0.005,-0.011 0.007,-0.017 0.014,0.026 0.036,0.056 0.065,0.088 0.594,0.645 1.211,1.005 1.937,1.028 0.752,0.025 1.403,-0.295 1.993,-1.009 0.021,0.021 0.042,0.043 0.064,0.062 v 0.004 c 0.021,0.022 0.045,0.043 0.066,0.064 0.426,0.411 0.912,0.775 1.584,0.862 0.733,0.096 1.436,-0.124 2.061,-0.9 0.139,0.167 0.293,0.315 0.457,0.44 0.414,0.317 0.885,0.482 1.387,0.491 0.5,0.007 0.982,-0.141 1.42,-0.452 0.228,-0.164 0.445,-0.374 0.638,-0.629 0.01,-0.012 0.016,-0.022 0.022,-0.032 0.474,0.227 1.101,0.141 1.486,-0.231 0.436,-0.421 0.4,-1.05 -0.082,-1.404 -0.603,-0.443 -1.242,-0.602 -1.924,-0.462 -0.572,0.119 -1.074,0.451 -1.508,1.01 -0.189,-0.255 -0.4,-0.466 -0.63,-0.631 -0.383,-0.274 -0.807,-0.413 -1.264,-0.414 -0.451,-10e-4 -0.877,0.136 -1.266,0.413 -0.213,0.151 -0.412,0.345 -0.594,0.579 -0.011,-0.011 -0.023,-0.022 -0.035,-0.033 l -0.002,0.002 c -0.156,-0.151 -0.316,-0.307 -0.463,-0.422 l -10e-4,0.002 c -0.987,-0.776 -2.077,-1.14 -3.36,0.487 -0.01,0.011 -0.015,0.021 -0.017,0.031 -0.014,-0.027 -0.034,-0.056 -0.065,-0.09 -0.601,-0.655 -1.258,-0.999 -1.988,-1.01 -0.772,-0.012 -1.434,0.332 -1.994,1.055 -0.366,-0.494 -0.807,-0.82 -1.301,-0.965 -0.121,-0.036 -0.258,-0.062 -0.408,-0.076 l -0.014,-0.004 c -0.117,-0.01 -0.238,-0.011 -0.359,-0.001 v -0.001 c -0.004,0 -0.018,0.002 -0.039,0.004 0,0 -0.002,0 -0.004,0 v 0 c -0.002,0 -0.002,0.001 -0.004,0.001 v 0 c -0.018,0.003 -0.039,0.006 -0.061,0.009 v 0"
       style="fill:#ffffff;fill-opacity:1;fill-rule:nonzero;stroke:none;stroke-width:0.1"
       id="path156" /><path
       d="m -280.0925,-96.975379 0.524,-3.651001 0.525,-3.65 h -2.1 l 0.526,3.65 0.525,3.651001 v 0"
       style="fill:#ffffff;fill-opacity:1;fill-rule:evenodd;stroke:none;stroke-width:0.1"
       id="path158" /><path
       d="m -278.4165,-114.78238 c -0.6,0.888 -1.162,1.952 -1.682,3.19 -0.267,-0.641 -0.545,-1.234 -0.834,-1.78 -0.152,-0.291 -0.287,-0.534 -0.404,-0.728 -0.121,-0.206 -0.266,-0.431 -0.43,-0.674 l -0.002,-0.005 v -0.003 c -0.709,-1.052 -1.57,-2.026 -2.513,-2.952 -0.914,-0.898 -1.91,-1.754 -2.92,-2.594 -1.002,-0.834 -1.791,-1.664 -2.365,-2.489 h -0.004 c -0.094,-0.134 -0.194,-0.291 -0.299,-0.464 -0.551,-0.92 -0.826,-1.828 -0.826,-2.72 v -0.004 c 0,-1.018 0.244,-1.963 0.734,-2.832 0.242,-0.432 0.555,-0.855 0.936,-1.268 0.398,-0.432 0.849,-0.836 1.351,-1.207 v 10e-4 c 0,-10e-4 0.002,-10e-4 0.002,-10e-4 h 0.006 l 0.004,-0.004 -0.002,-0.003 c 1.043,-0.767 2.193,-1.346 3.449,-1.735 1.268,-0.393 2.639,-0.591 4.113,-0.591 1.481,0 2.858,0.198 4.127,0.591 1.262,0.39 2.418,0.973 3.463,1.743 v -10e-4 c 2.014,1.492 3.024,3.262 3.024,5.307 0,1.301 -0.584,2.632 -1.756,3.988 -0.248,0.289 -0.512,0.568 -0.789,0.837 -0.295,0.284 -0.611,0.567 -0.945,0.848 l -0.006,0.004 c -1.008,0.839 -2.004,1.696 -2.92,2.594 -0.942,0.926 -1.803,1.9 -2.512,2.952 z m -0.678,6.563 0.002,-0.007 v -0.004 c 0.1,-0.316 0.203,-0.634 0.315,-0.951 0.084,-0.245 0.193,-0.544 0.326,-0.891 0.555,-1.458 1.162,-2.671 1.81,-3.633 0.629,-0.934 1.403,-1.806 2.25,-2.639 0.875,-0.861 1.83,-1.68 2.795,-2.485 l 0.006,-0.004 c 0.383,-0.319 0.737,-0.635 1.061,-0.95 0.34,-0.331 0.646,-0.651 0.914,-0.962 1.488,-1.725 2.23,-3.481 2.23,-5.26 0,-2.691 -1.281,-4.985 -3.84,-6.88 l -0.003,-0.004 c -1.252,-0.922 -2.618,-1.613 -4.096,-2.07 -1.473,-0.456 -3.065,-0.684 -4.778,-0.684 -1.707,0 -3.294,0.228 -4.763,0.684 -1.477,0.457 -2.84,1.148 -4.09,2.07 l -0.014,0.004 -0.004,0.004 0.004,0.004 c -0.638,0.471 -1.185,0.957 -1.642,1.453 -0.477,0.517 -0.879,1.067 -1.207,1.65 -0.655,1.161 -0.983,2.418 -0.983,3.769 v 0.004 c 0.002,1.246 0.367,2.482 1.1,3.703 0.103,0.174 0.23,0.367 0.379,0.581 l -0.002,0.001 c 0.674,0.968 1.586,1.931 2.734,2.887 0.965,0.805 1.92,1.624 2.795,2.485 0.85,0.833 1.621,1.705 2.252,2.639 l 0.002,-10e-4 v 0.002 c 0.105,0.156 0.227,0.349 0.363,0.58 0.145,0.241 0.268,0.457 0.366,0.642 0.617,1.167 1.185,2.588 1.701,4.255 l 0.998,3.234 1.019,-3.226 v 0"
       style="fill:#ffffff;fill-opacity:1;fill-rule:nonzero;stroke:none;stroke-width:0.1"
       id="path160" /><path
       d="m -307.8875,-81.898379 c 0.176,-0.561 0.378,-1.011 0.602,-1.345 0.315,-0.465 0.766,-0.864 1.228,-1.249 0.604,-0.502 0.903,-1.005 0.903,-1.507 0,-0.555 -0.268,-1.031 -0.805,-1.428 -0.538,-0.397 -1.179,-0.597 -1.928,-0.597 -0.746,0 -1.386,0.2 -1.924,0.597 -0.538,0.397 -0.805,0.873 -0.805,1.428 0,0.502 0.301,1.005 0.903,1.507 0.463,0.385 0.914,0.784 1.228,1.249 0.224,0.334 0.424,0.784 0.598,1.345 z m 11.012,-39.566001 c 0.473,0.425 0.893,0.864 1.254,1.32 0.293,0.369 0.553,0.75 0.773,1.143 0.657,1.166 0.987,2.431 0.987,3.795 v 0.005 c 0,1.75 -0.78,3.533 -2.34,5.341 -0.231,0.269 -0.475,0.534 -0.727,0.791 2.785,-4.605 2.631,-8.94 0.053,-12.395 z m -10.899,-3.906 c 1.577,0.008 3.061,0.188 4.454,0.537 1.783,4.035 7.267,7.448 3.883,15.433 -1.295,3.054 -1.749,3.034 -2.489,4.787 -0.109,0.105 -0.217,0.209 -0.324,0.315 -0.498,0.491 -0.98,0.993 -1.437,1.506 0.779,-2.653 1.142,-5.252 0.863,-7.793 -0.824,-7.527 -5.886,-9.747 -4.95,-14.785 z m 0.298,28.599001 c -0.141,0.326 -0.279,0.662 -0.416,1.008 -0.425,-1.083 -0.872,-2.069 -1.342,-2.957 -0.192,-0.363 -0.364,-0.672 -0.519,-0.931 -0.16,-0.271 -0.344,-0.559001 -0.545,-0.859001 l -0.003,-0.004 v -0.004 c -0.908,-1.346 -2.011,-2.594 -3.219,-3.78 -1.179,-1.158 -2.463,-2.26 -3.763,-3.344 -1.318,-1.097 -2.357,-2.191 -3.115,-3.278 -0.148,-0.212 -0.282,-0.42 -0.401,-0.618 -0.74,-1.234 -1.109,-2.455 -1.11,-3.659 v -0.004 c 0,-2.261 0.917,-4.266 2.747,-6.016 -2.696,5.843 0.086,9.928 5.113,14.329 2.903,2.543 5.927,6.187 6.573,10.117001 z m 2.007,-3.747001 c -0.5,0.741001 -0.979,1.580001 -1.437,2.514001 -0.238,-3.723001 -1.814,-7.425001 -4.203,-10.428001 -4.927,-6.195 -4.543,-8.108 -3.776,-15.581 0.51,-0.221 1.032,-0.415 1.572,-0.582 0.509,-0.158 1.032,-0.291 1.567,-0.4 -3.234,7.105 1.388,9.708 4.023,15.006 1.254,2.522 2.498,5.907 2.299,9.406 -0.015,0.021 -0.029,0.043 -0.045,0.065 z m -1.404,8.267001 0.002,-0.008 v -0.003 c 0.129,-0.412 0.266,-0.826 0.409,-1.24 0.115,-0.334 0.259,-0.724 0.425,-1.161 0.728,-1.909 1.521,-3.498 2.373,-4.762 0.828,-1.227001 1.84,-2.369001 2.949,-3.460001 1.141,-1.12 2.383,-2.186 3.639,-3.233 l 0.006,-0.005 c 0.488,-0.406 0.941,-0.813 1.357,-1.216 0.434,-0.42 0.822,-0.831 1.166,-1.228 1.883,-2.182 2.824,-4.397 2.824,-6.634 v -0.005 c -0.002,-1.701 -0.414,-3.284 -1.238,-4.746 -0.271,-0.484 -0.592,-0.955 -0.957,-1.413 -0.711,-0.895 -1.601,-1.738 -2.666,-2.525 l -0.004,-0.004 c -1.592,-1.174 -3.33,-2.053 -5.215,-2.637 -1.877,-0.581 -3.908,-0.872 -6.092,-0.872 -2.179,0 -4.206,0.291 -6.078,0.872 -1.881,0.584 -3.618,1.463 -5.21,2.637 l -0.004,0.004 c -3.239,2.397 -4.859,5.293 -4.859,8.689 v 0.004 c 10e-4,1.564 0.462,3.119 1.384,4.658 0.151,0.252 0.311,0.498 0.477,0.737 0.86,1.233 2.024,2.463 3.491,3.684 1.257,1.047 2.498,2.113 3.638,3.233 1.11,1.091 2.123,2.233 2.95,3.460001 l 0.002,-10e-4 10e-4,0.002 c 0.145,0.215 0.305,0.47 0.481,0.765 0.181,0.306 0.342,0.588 0.476,0.843 0.809,1.527 1.552,3.381 2.223,5.557 l 1.015,3.285 z m -1.012,18.049 0.525,-3.652 0.524,-3.65 h -2.099 l 0.525,3.65 0.525,3.652 v 0"
       style="fill:#ffffff;fill-opacity:1;fill-rule:evenodd;stroke:none;stroke-width:0.1"
       id="path162" /><path
       d="m -308.0285,-129.95138 v 0 c 1.696,0 3.083,-1.388 3.083,-3.085 0,-2.243 0,-4.486 0,-6.728 -2.055,0 -4.111,0 -6.167,0 v 6.728 c 0,1.697 1.387,3.085 3.084,3.085 z m -34.405,-3.065 c 4.734,0.824 9.909,0.824 15.525,0 v -10.196 c 3.455,-1.399 6.62,-2.381 9.265,-2.62 v 21.802 c 5.953,1.153 12.457,1.153 19.516,0 0,-7.268 0,-14.535 0,-21.802 2.158,-0.154 5.666,0.901 9.994,2.687 v 10.151 c 4.735,0.795 9.908,0.795 15.524,0 l -0.004,-12.006 c -15.985,-23.222 -52.125,-23.305 -69.859,-0.232 0.218,5.236 0.039,6.973 0.039,12.216 v 0"
       style="fill:#ffffff;fill-opacity:1;fill-rule:evenodd;stroke:none;stroke-width:0.1"
       id="path164" /><g
       style="fill:#ffffff;fill-opacity:1"
       transform="translate(1.2739611,-0.24177233)"
       id="g780"><path
         d="m 245.33255,294.75527 c 26.388,0 47.908,-21.521 47.908,-47.908 0,-26.388 -21.52,-47.909 -47.908,-47.909 -26.389,0 -47.909,21.521 -47.909,47.909 0,26.387 21.52,47.908 47.909,47.908 z m 0,11.051 c 32.474,0 58.958,-26.486 58.958,-58.959 0,-32.475 -26.484,-58.96 -58.958,-58.96 -32.475,0 -58.961,26.485 -58.961,58.96 0,32.473 26.486,58.959 58.961,58.959 v 0"
         style="fill:#ffffff;fill-opacity:1;fill-rule:evenodd;stroke:none;stroke-width:0.1"
         id="path657" /><path
         d="m 219.93655,252.62127 c -0.599,0.889 -1.162,1.953 -1.681,3.191 -0.267,-0.641 -0.544,-1.234 -0.834,-1.781 -0.154,-0.291 -0.288,-0.534 -0.404,-0.728 -0.122,-0.205 -0.266,-0.431 -0.429,-0.673 l -0.003,-0.005 v -0.004 c -0.71,-1.051 -1.57,-2.025 -2.514,-2.951 -0.914,-0.898 -1.91,-1.754 -2.919,-2.595 -1.002,-0.834 -1.791,-1.665 -2.365,-2.489 h -0.004 c -0.094,-0.134 -0.194,-0.29 -0.299,-0.465 -0.551,-0.919 -0.827,-1.827 -0.827,-2.718 v -0.004 c 0,-2.046 1.008,-3.815 3.022,-5.307 h 0.001 c 1.045,-0.771 2.198,-1.353 3.458,-1.743 1.267,-0.393 2.638,-0.59 4.114,-0.59 1.48,0 2.856,0.197 4.126,0.59 1.263,0.39 2.417,0.972 3.463,1.743 v 0 c 2.014,1.492 3.023,3.261 3.023,5.307 0,1.299 -0.585,2.631 -1.754,3.987 -0.25,0.29 -0.513,0.568 -0.791,0.838 -0.294,0.284 -0.61,0.567 -0.946,0.847 l -0.004,0.004 c -1.009,0.841 -2.005,1.696 -2.92,2.594 -0.942,0.927 -1.804,1.901 -2.513,2.952 z m -0.677,6.563 0.002,-0.007 v -0.004 c 0.099,-0.315 0.204,-0.633 0.313,-0.951 0.085,-0.245 0.194,-0.543 0.327,-0.89 0.556,-1.458 1.162,-2.671 1.81,-3.633 0.63,-0.935 1.403,-1.807 2.251,-2.64 0.876,-0.861 1.83,-1.679 2.796,-2.485 l 0.004,-0.003 c 0.383,-0.319 0.737,-0.636 1.061,-0.95 0.341,-0.331 0.646,-0.652 0.914,-0.963 1.488,-1.724 2.231,-3.48 2.231,-5.259 0,-2.692 -1.281,-4.986 -3.841,-6.88 l -0.004,-0.004 c -1.251,-0.922 -2.616,-1.613 -4.096,-2.07 -1.471,-0.457 -3.063,-0.684 -4.775,-0.684 -1.707,0 -3.296,0.227 -4.764,0.684 -1.476,0.457 -2.84,1.148 -4.091,2.07 l -0.004,0.004 c -2.56,1.894 -3.841,4.188 -3.841,6.88 v 0.004 c 0.001,1.246 0.367,2.482 1.099,3.703 0.104,0.173 0.23,0.366 0.379,0.581 l -0.002,10e-4 c 0.675,0.967 1.587,1.931 2.735,2.886 0.966,0.806 1.92,1.625 2.796,2.485 0.848,0.833 1.62,1.705 2.25,2.64 l 0.002,-0.001 10e-4,0.001 c 0.105,0.156 0.226,0.35 0.364,0.581 0.144,0.242 0.266,0.457 0.363,0.641 0.619,1.168 1.187,2.589 1.702,4.255 l 0.999,3.234 1.019,-3.226 v 0"
         style="fill:#ffffff;fill-opacity:1;fill-rule:nonzero;stroke:none;stroke-width:0.1"
         id="path659" /><path
         d="m 218.22655,258.81527 0.123,-0.22 c 0.521,-1.619 1.095,-3.011 1.717,-4.171 h -1.85 -1.763 c 0.647,1.212 1.239,2.677 1.773,4.391 v 0"
         style="fill:#ffffff;fill-opacity:1;fill-rule:evenodd;stroke:none;stroke-width:0.1"
         id="path661" /><path
         d="m 213.31255,250.36227 0.096,-0.174 h -0.274 c 0.059,0.058 0.119,0.115 0.178,0.174 v 0"
         style="fill:#ffffff;fill-opacity:1;fill-rule:evenodd;stroke:none;stroke-width:0.1"
         id="path663" /><path
         d="m 216.20755,253.98227 0.886,-1.589 1.228,-2.205 h -4.912 l 0.342,0.615 c 0.725,0.747 1.387,1.527 1.946,2.357 0.174,0.258 0.344,0.532 0.51,0.822 v 0"
         style="fill:#ffffff;fill-opacity:1;fill-rule:evenodd;stroke:none;stroke-width:0.1"
         id="path665" /><path
         d="m 223.04855,250.52027 0.185,-0.332 h -4.912 l 1.228,2.205 0.826,1.482 c 0.147,-0.251 0.296,-0.489 0.449,-0.715 0.63,-0.935 1.39,-1.807 2.224,-2.64 v 0"
         style="fill:#ffffff;fill-opacity:1;fill-rule:evenodd;stroke:none;stroke-width:0.1"
         id="path667" /><path
         d="m 223.38755,250.18827 h -0.153 l 0.053,0.096 c 0.034,-0.032 0.066,-0.064 0.1,-0.096 v 0"
         style="fill:#ffffff;fill-opacity:1;fill-rule:evenodd;stroke:none;stroke-width:0.1"
         id="path669" /><path
         d="m 209.88655,247.33027 0.961,-1.724 h -2.592 c 0.451,0.575 0.994,1.15 1.631,1.724 v 0"
         style="fill:#ffffff;fill-opacity:1;fill-rule:evenodd;stroke:none;stroke-width:0.1"
         id="path671" /><path
         d="m 213.30355,250.01527 1.228,-2.204 1.228,-2.205 h -4.912 l 1.228,2.205 1.228,2.204 v 0"
         style="fill:#ffffff;fill-opacity:1;fill-rule:evenodd;stroke:none;stroke-width:0.1"
         id="path673" /><path
         d="m 218.21655,250.01527 1.228,-2.204 1.228,-2.205 h -4.912 l 1.228,2.205 1.228,2.204 v 0"
         style="fill:#ffffff;fill-opacity:1;fill-rule:evenodd;stroke:none;stroke-width:0.1"
         id="path675" /><path
         d="m 223.12855,250.01527 1.228,-2.204 1.228,-2.205 h -4.912 l 1.228,2.205 1.228,2.204 v 0"
         style="fill:#ffffff;fill-opacity:1;fill-rule:evenodd;stroke:none;stroke-width:0.1"
         id="path677" /><path
         d="m 228.26655,245.60627 h -2.682 l 0.991,1.778 c 0.662,-0.593 1.226,-1.186 1.691,-1.778 v 0"
         style="fill:#ffffff;fill-opacity:1;fill-rule:evenodd;stroke:none;stroke-width:0.1"
         id="path679" /><path
         d="m 207.04755,243.57627 0.193,-0.347 1.228,-2.204 h -1.854 c -0.006,0.123 -0.01,0.248 -0.01,0.374 0,0.725 0.148,1.451 0.443,2.177 v 0"
         style="fill:#ffffff;fill-opacity:1;fill-rule:evenodd;stroke:none;stroke-width:0.1"
         id="path681" /><path
         d="m 210.92555,245.43427 1.228,-2.205 1.228,-2.204 h -4.912 l 1.228,2.204 1.228,2.205 v 0"
         style="fill:#ffffff;fill-opacity:1;fill-rule:evenodd;stroke:none;stroke-width:0.1"
         id="path683" /><path
         d="m 215.83755,245.43427 1.228,-2.205 1.228,-2.204 h -4.912 l 1.228,2.204 1.228,2.205 v 0"
         style="fill:#ffffff;fill-opacity:1;fill-rule:evenodd;stroke:none;stroke-width:0.1"
         id="path685" /><path
         d="m 220.75055,245.43427 1.228,-2.205 1.227,-2.204 h -4.912 l 1.229,2.204 1.228,2.205 v 0"
         style="fill:#ffffff;fill-opacity:1;fill-rule:evenodd;stroke:none;stroke-width:0.1"
         id="path687" /><path
         d="m 225.66255,245.43427 1.228,-2.205 1.228,-2.204 h -4.912 l 1.228,2.204 1.228,2.205 v 0"
         style="fill:#ffffff;fill-opacity:1;fill-rule:evenodd;stroke:none;stroke-width:0.1"
         id="path689" /><path
         d="m 229.90655,241.02527 h -1.787 l 1.228,2.204 0.155,0.279 c 0.276,-0.704 0.414,-1.407 0.414,-2.109 0,-0.126 -0.003,-0.251 -0.01,-0.374 v 0"
         style="fill:#ffffff;fill-opacity:1;fill-rule:evenodd;stroke:none;stroke-width:0.1"
         id="path691" /><path
         d="m 208.39155,241.19727 1.228,-2.205 1.228,-2.204 h -2.446 c -0.574,0.652 -1.01,1.344 -1.309,2.077 l 0.07,0.127 1.229,2.205 v 0"
         style="fill:#ffffff;fill-opacity:1;fill-rule:evenodd;stroke:none;stroke-width:0.1"
         id="path693" /><path
         d="m 213.30355,241.19727 1.228,-2.205 1.228,-2.204 h -4.912 l 1.228,2.204 1.228,2.205 v 0"
         style="fill:#ffffff;fill-opacity:1;fill-rule:evenodd;stroke:none;stroke-width:0.1"
         id="path695" /><path
         d="m 218.21655,241.19727 1.228,-2.205 1.228,-2.204 h -4.912 l 1.228,2.204 1.228,2.205 v 0"
         style="fill:#ffffff;fill-opacity:1;fill-rule:evenodd;stroke:none;stroke-width:0.1"
         id="path697" /><path
         d="m 223.12855,241.19727 1.228,-2.205 1.228,-2.204 h -4.912 l 1.228,2.204 1.228,2.205 v 0"
         style="fill:#ffffff;fill-opacity:1;fill-rule:evenodd;stroke:none;stroke-width:0.1"
         id="path699" /><path
         d="m 228.04155,241.19727 1.227,-2.205 0.123,-0.218 c -0.298,-0.7 -0.722,-1.362 -1.271,-1.986 h -0.079 -2.457 l 1.229,2.204 1.228,2.205 v 0"
         style="fill:#ffffff;fill-opacity:1;fill-rule:evenodd;stroke:none;stroke-width:0.1"
         id="path701" /><path
         d="m 210.74255,236.78827 1.228,-2.205 0.343,-0.617 c -0.8,0.364 -1.559,0.81 -2.275,1.338 -0.029,0.021 -0.058,0.044 -0.087,0.065 l 0.791,1.419 v 0"
         style="fill:#ffffff;fill-opacity:1;fill-rule:evenodd;stroke:none;stroke-width:0.1"
         id="path703" /><path
         d="m 215.65455,236.78827 1.228,-2.205 1.014,-1.819 c -1.473,0.029 -2.847,0.245 -4.124,0.645 l 0.654,1.174 1.228,2.205 v 0"
         style="fill:#ffffff;fill-opacity:1;fill-rule:evenodd;stroke:none;stroke-width:0.1"
         id="path705" /><path
         d="m 220.56755,236.78827 1.228,-2.205 0.696,-1.25 c -1.292,-0.376 -2.681,-0.567 -4.168,-0.573 l 1.016,1.823 1.228,2.205 v 0"
         style="fill:#ffffff;fill-opacity:1;fill-rule:evenodd;stroke:none;stroke-width:0.1"
         id="path707" /><path
         d="m 225.47955,236.78827 0.878,-1.575 c -0.796,-0.572 -1.644,-1.045 -2.545,-1.417 l 0.439,0.787 1.228,2.205 v 0"
         style="fill:#ffffff;fill-opacity:1;fill-rule:evenodd;stroke:none;stroke-width:0.1"
         id="path709" /><path
         d="m 218.26055,270.17527 0.525,-3.65 0.525,-3.651 h -2.099 l 0.524,3.651 0.525,3.65 v 0"
         style="fill:#ffffff;fill-opacity:1;fill-rule:evenodd;stroke:none;stroke-width:0.1"
         id="path711" /><path
         d="m 275.15655,237.35727 c -0.016,-0.002 -0.026,-0.01 -0.036,-0.024 0.067,0.022 0.11,0.033 0.036,0.024 z m -12.418,0.007 c -0.471,0.361 -0.498,0.986 -0.059,1.401 0.441,0.417 1.19,0.465 1.668,0.105 l 0.004,-0.003 0.014,-0.011 c 0.054,-0.041 0.088,-0.068 0.088,-0.068 0.025,-0.019 0.06,-0.052 0.103,-0.092 v -0.003 c 0.104,-0.099 0.203,-0.207 0.293,-0.323 0.152,0.189 0.32,0.355 0.5,0.491 l 0.006,0.004 c 0.416,0.318 0.892,0.485 1.4,0.493 0.506,0.007 0.994,-0.142 1.438,-0.458 0.234,-0.166 0.455,-0.382 0.654,-0.644 0.084,-0.11 -0.111,-0.168 -0.018,-0.167 0.045,0.001 0.012,0.081 0.157,0.238 0.603,0.658 1.234,1.026 1.97,1.049 0.776,0.026 1.444,-0.312 2.051,-1.063 0.035,0.032 0.071,0.066 0.102,0.097 v 0.005 l 0.066,0.064 c 0.438,0.421 0.932,0.792 1.613,0.881 0.754,0.097 1.477,-0.135 2.122,-0.957 0.152,0.188 0.32,0.353 0.5,0.491 0.419,0.319 0.896,0.487 1.404,0.496 0.508,0.009 0.996,-0.143 1.439,-0.458 0.235,-0.167 0.455,-0.381 0.655,-0.643 0.019,-0.026 0.033,-0.05 0.046,-0.069 0.479,0.216 1.104,0.109 1.475,-0.276 0.42,-0.435 0.361,-1.06 -0.131,-1.396 -0.611,-0.418 -1.252,-0.554 -1.928,-0.393 -0.564,0.134 -1.058,0.478 -1.49,1.041 -0.004,0.006 -0.008,0.011 -0.011,0.017 -0.202,-0.279 -0.428,-0.51 -0.676,-0.687 -0.389,-0.279 -0.819,-0.419 -1.28,-0.42 -0.457,-0.001 -0.886,0.138 -1.281,0.419 -0.224,0.158 -0.437,0.369 -0.633,0.629 -0.002,-0.001 -0.004,-0.002 -0.005,-0.004 l -0.067,-0.065 -0.002,0.002 c -0.16,-0.155 -0.324,-0.314 -0.474,-0.433 l -0.002,0.002 c -1,-0.788 -2.106,-1.157 -3.411,0.497 -0.103,0.13 0.122,0.201 0.012,0.197 -0.055,-0.001 -0.008,-0.089 -0.16,-0.257 -0.613,-0.666 -1.281,-1.019 -2.021,-1.03 -0.791,-0.011 -1.473,0.346 -2.047,1.101 -0.006,0.006 -0.01,0.012 -0.014,0.017 -0.221,-0.309 -0.473,-0.556 -0.748,-0.738 -0.377,-0.251 -0.791,-0.378 -1.231,-0.376 -0.451,0.002 -0.875,0.138 -1.259,0.412 -0.256,0.181 -0.492,0.427 -0.7,0.737 -0.039,0.059 -0.074,0.101 -0.103,0.128 l -0.002,-0.001 c -0.006,0.006 0.006,-0.005 -0.008,0.005 -0.019,0.015 -0.019,0.017 -0.019,0.016 v 0"
         style="fill:#ffffff;fill-opacity:1;fill-rule:nonzero;stroke:none;stroke-width:0.1"
         id="path713" /><path
         d="m 283.34755,242.00527 c -0.025,-0.004 0.033,0.004 0.027,-0.001 l -0.005,0.005 c -0.006,-10e-4 -0.014,-0.002 -0.022,-0.004 z m -8.447,-0.016 c -0.012,-0.002 -0.026,-0.014 -0.041,-0.036 0.064,0.03 0.115,0.046 0.041,0.036 z m -8.832,1.999 v 0.001 z m -4.198,-1.998 c -10e-4,10e-4 -10e-4,10e-4 0,-0.001 z m -0.005,0 c -0.508,0.304 -0.604,0.921 -0.217,1.377 0.389,0.457 1.113,0.581 1.619,0.278 l 0.004,-0.003 c 0.016,-0.009 0.062,-0.04 0.142,-0.097 0.059,-0.04 0.112,-0.078 0.147,-0.108 l -0.002,-0.002 c 0.182,-0.147 0.352,-0.323 0.502,-0.53 0.172,0.226 0.365,0.42 0.572,0.579 h 0.002 c 0.428,0.325 0.916,0.496 1.434,0.504 v 0.001 c 0.002,0 0.004,0 0.006,0 0.515,0.008 1.015,-0.147 1.468,-0.47 0.241,-0.173 0.469,-0.395 0.674,-0.664 0.102,-0.134 -0.047,-0.201 0.033,-0.201 h 0.004 c 0.026,0 0.049,0.093 0.213,0.272 0.623,0.68 1.272,1.059 2.026,1.083 0.808,0.026 1.507,-0.334 2.144,-1.142 0.012,-0.015 -0.254,-0.23 -0.16,-0.156 0.103,0.082 0.219,0.193 0.33,0.301 v 0.004 l 0.068,0.067 c 0.452,0.435 0.961,0.818 1.659,0.909 0.791,0.103 1.55,-0.153 2.224,-1.052 0.17,0.223 0.362,0.418 0.569,0.575 0.431,0.328 0.919,0.501 1.439,0.51 0.518,0.008 1.018,-0.147 1.473,-0.471 0.24,-0.173 0.468,-0.394 0.675,-0.664 0.102,-0.134 -0.041,-0.202 0.036,-0.201 0.025,0 0.048,0.092 0.214,0.272 0.235,0.256 0.473,0.466 0.713,0.626 0.323,0.216 0.655,0.356 1,0.413 0.557,0.094 1.114,-0.277 1.244,-0.828 0.127,-0.542 -0.208,-1.06 -0.751,-1.163 l 0.005,-0.005 c -0.089,-0.059 -0.193,-0.153 -0.308,-0.278 -0.633,-0.689 -1.321,-1.053 -2.08,-1.064 -0.809,-0.01 -1.508,0.359 -2.098,1.135 -0.025,0.032 -0.049,0.061 -0.072,0.086 -0.014,-0.019 -0.028,-0.037 -0.043,-0.058 -0.209,-0.295 -0.447,-0.538 -0.705,-0.723 -0.399,-0.283 -0.836,-0.428 -1.307,-0.429 -0.465,-0.001 -0.906,0.141 -1.308,0.428 -0.249,0.178 -0.485,0.416 -0.7,0.716 -0.019,-0.021 -0.037,-0.041 -0.06,-0.064 l -0.069,-0.066 -0.004,10e-4 c -0.154,-0.151 -0.314,-0.306 -0.496,-0.449 -1.023,-0.808 -2.156,-1.185 -3.496,0.512 -0.121,0.154 0.049,0.235 -0.041,0.232 -0.037,-0.001 -0.043,-0.102 -0.217,-0.291 -0.632,-0.687 -1.318,-1.052 -2.076,-1.064 0,0 -0.002,0 -0.004,0 -0.81,-0.011 -1.507,0.359 -2.099,1.135 -0.024,0.031 -0.049,0.059 -0.072,0.086 -0.014,-0.018 -0.028,-0.037 -0.043,-0.059 -0.231,-0.324 -0.493,-0.584 -0.78,-0.774 v 0 c -0.386,-0.257 -0.808,-0.387 -1.256,-0.385 -0.459,0.003 -0.892,0.143 -1.283,0.421 -0.267,0.189 -0.512,0.443 -0.724,0.759 v 0.003 c -0.051,0.076 -0.098,0.13 -0.139,0.163 l -0.01,0.004 c -0.014,0.01 0.002,0 -0.006,0.005 -0.004,0.002 -0.006,0.003 -0.008,0.004 v -0.001 c 0.004,-0.003 0.022,-0.015 -10e-4,-0.002 l -0.004,0.003 v 0"
         style="fill:#ffffff;fill-opacity:1;fill-rule:nonzero;stroke:none;stroke-width:0.1"
         id="path715" /><path
         d="m 274.66055,246.38527 c -0.016,-0.002 -0.026,-0.009 -0.032,-0.019 0.067,0.018 0.106,0.029 0.032,0.019 z m -3.981,-0.008 c -0.033,-0.001 -0.029,-0.023 -0.037,-0.064 0.043,0.044 0.109,0.067 0.037,0.064 z m -2.123,0.831 c -0.039,-0.034 -0.09,-0.051 -0.029,-0.05 0.025,0 0.023,0.017 0.029,0.05 z m -4.111,-2.064 c -0.002,0 -0.002,0.001 -0.004,0.001 z m -0.065,0.01 c -0.556,0.073 -0.924,0.583 -0.822,1.134 0.084,0.464 0.473,0.811 0.924,0.867 0.004,0.02 0.008,0.058 0.055,0.123 0.173,0.244 0.373,0.451 0.591,0.619 0.416,0.316 0.887,0.481 1.389,0.489 h 0.004 c 0.498,0.008 0.978,-0.141 1.414,-0.452 0.23,-0.164 0.445,-0.373 0.641,-0.629 0.003,-0.006 0.005,-0.011 0.007,-0.017 0.014,0.026 0.036,0.056 0.065,0.088 0.594,0.645 1.211,1.005 1.937,1.028 0.752,0.025 1.403,-0.295 1.993,-1.009 0.021,0.021 0.042,0.043 0.064,0.062 v 0.004 c 0.021,0.022 0.045,0.043 0.066,0.064 0.426,0.411 0.912,0.775 1.584,0.862 0.733,0.096 1.436,-0.124 2.061,-0.9 0.139,0.167 0.293,0.315 0.457,0.44 0.414,0.317 0.885,0.482 1.387,0.491 0.5,0.007 0.982,-0.141 1.42,-0.452 0.228,-0.164 0.445,-0.374 0.638,-0.629 0.01,-0.012 0.016,-0.022 0.022,-0.032 0.474,0.227 1.101,0.141 1.486,-0.231 0.436,-0.421 0.4,-1.05 -0.082,-1.404 -0.603,-0.443 -1.242,-0.602 -1.924,-0.462 -0.572,0.119 -1.074,0.451 -1.508,1.01 -0.189,-0.255 -0.4,-0.466 -0.63,-0.631 -0.383,-0.274 -0.807,-0.413 -1.264,-0.414 -0.451,-0.001 -0.877,0.136 -1.266,0.413 -0.213,0.151 -0.412,0.345 -0.594,0.579 -0.011,-0.011 -0.023,-0.022 -0.035,-0.033 l -0.002,0.002 c -0.156,-0.151 -0.316,-0.307 -0.463,-0.422 l -10e-4,0.002 c -0.987,-0.776 -2.077,-1.14 -3.36,0.487 -0.01,0.011 -0.015,0.021 -0.017,0.031 -0.014,-0.027 -0.034,-0.056 -0.065,-0.09 -0.601,-0.655 -1.258,-0.999 -1.988,-1.01 -0.772,-0.012 -1.434,0.332 -1.994,1.055 -0.366,-0.494 -0.807,-0.82 -1.301,-0.965 -0.121,-0.036 -0.258,-0.062 -0.408,-0.076 l -0.014,-0.004 c -0.117,-0.01 -0.238,-0.011 -0.359,-0.001 v -0.001 c -0.004,0 -0.018,0.002 -0.039,0.004 0,0 -0.002,0 -0.004,0 v 0 c -0.002,0 -0.002,0.001 -0.004,0.001 v 0 c -0.018,0.003 -0.039,0.006 -0.061,0.009 v 0"
         style="fill:#ffffff;fill-opacity:1;fill-rule:nonzero;stroke:none;stroke-width:0.1"
         id="path717" /><path
         d="m 272.83955,270.75127 0.524,-3.651 0.525,-3.65 h -2.1 l 0.526,3.65 0.525,3.651 v 0"
         style="fill:#ffffff;fill-opacity:1;fill-rule:evenodd;stroke:none;stroke-width:0.1"
         id="path719" /><path
         d="m 274.51555,252.94427 c -0.6,0.888 -1.162,1.952 -1.682,3.19 -0.267,-0.641 -0.545,-1.234 -0.834,-1.78 -0.152,-0.291 -0.287,-0.534 -0.404,-0.728 -0.121,-0.206 -0.266,-0.431 -0.43,-0.674 l -0.002,-0.005 v -0.003 c -0.709,-1.052 -1.57,-2.026 -2.513,-2.952 -0.914,-0.898 -1.91,-1.754 -2.92,-2.594 -1.002,-0.834 -1.791,-1.664 -2.365,-2.489 h -0.004 c -0.094,-0.134 -0.194,-0.291 -0.299,-0.464 -0.551,-0.92 -0.826,-1.828 -0.826,-2.72 v -0.004 c 0,-1.018 0.244,-1.963 0.734,-2.832 0.242,-0.432 0.555,-0.855 0.936,-1.268 0.398,-0.432 0.849,-0.836 1.351,-1.207 v 0.001 c 0,-0.001 0.002,-0.001 0.002,-0.001 h 0.006 l 0.004,-0.004 -0.002,-0.003 c 1.043,-0.767 2.193,-1.346 3.449,-1.735 1.268,-0.393 2.639,-0.591 4.113,-0.591 1.481,0 2.858,0.198 4.127,0.591 1.262,0.39 2.418,0.973 3.463,1.743 v -0.001 c 2.014,1.492 3.024,3.262 3.024,5.307 0,1.301 -0.584,2.632 -1.756,3.988 -0.248,0.289 -0.512,0.568 -0.789,0.837 -0.295,0.284 -0.611,0.567 -0.945,0.848 l -0.006,0.004 c -1.008,0.839 -2.004,1.696 -2.92,2.594 -0.942,0.926 -1.803,1.9 -2.512,2.952 z m -0.678,6.563 0.002,-0.007 v -0.004 c 0.1,-0.316 0.203,-0.634 0.315,-0.951 0.084,-0.245 0.193,-0.544 0.326,-0.891 0.555,-1.458 1.162,-2.671 1.81,-3.633 0.629,-0.934 1.403,-1.806 2.25,-2.639 0.875,-0.861 1.83,-1.68 2.795,-2.485 l 0.006,-0.004 c 0.383,-0.319 0.737,-0.635 1.061,-0.95 0.34,-0.331 0.646,-0.651 0.914,-0.962 1.488,-1.725 2.23,-3.481 2.23,-5.26 0,-2.691 -1.281,-4.985 -3.84,-6.88 l -0.003,-0.004 c -1.252,-0.922 -2.618,-1.613 -4.096,-2.07 -1.473,-0.456 -3.065,-0.684 -4.778,-0.684 -1.707,0 -3.294,0.228 -4.763,0.684 -1.477,0.457 -2.84,1.148 -4.09,2.07 l -0.014,0.004 -0.004,0.004 0.004,0.004 c -0.638,0.471 -1.185,0.957 -1.642,1.453 -0.477,0.517 -0.879,1.067 -1.207,1.65 -0.655,1.161 -0.983,2.418 -0.983,3.769 v 0.004 c 0.002,1.246 0.367,2.482 1.1,3.703 0.103,0.174 0.23,0.367 0.379,0.581 l -0.002,0.001 c 0.674,0.968 1.586,1.931 2.734,2.887 0.965,0.805 1.92,1.624 2.795,2.485 0.85,0.833 1.621,1.705 2.252,2.639 l 0.002,-10e-4 v 0.002 c 0.105,0.156 0.227,0.349 0.363,0.58 0.145,0.241 0.268,0.457 0.366,0.642 0.617,1.167 1.185,2.588 1.701,4.255 l 0.998,3.234 1.019,-3.226 v 0"
         style="fill:#ffffff;fill-opacity:1;fill-rule:nonzero;stroke:none;stroke-width:0.1"
         id="path721" /><path
         d="m 245.04455,285.82827 c 0.176,-0.561 0.378,-1.011 0.602,-1.345 0.315,-0.465 0.766,-0.864 1.228,-1.249 0.604,-0.502 0.903,-1.005 0.903,-1.507 0,-0.555 -0.268,-1.031 -0.805,-1.428 -0.538,-0.397 -1.179,-0.597 -1.928,-0.597 -0.746,0 -1.386,0.2 -1.924,0.597 -0.538,0.397 -0.805,0.873 -0.805,1.428 0,0.502 0.301,1.005 0.903,1.507 0.463,0.385 0.914,0.784 1.228,1.249 0.224,0.334 0.424,0.784 0.598,1.345 z m 11.012,-39.566 c 0.473,0.425 0.893,0.864 1.254,1.32 0.293,0.369 0.553,0.75 0.773,1.143 0.657,1.166 0.987,2.431 0.987,3.795 v 0.005 c 0,1.75 -0.78,3.533 -2.34,5.341 -0.231,0.269 -0.475,0.534 -0.727,0.791 2.785,-4.605 2.631,-8.94 0.053,-12.395 z m -10.899,-3.906 c 1.577,0.008 3.061,0.188 4.454,0.537 1.783,4.035 7.267,7.448 3.883,15.433 -1.295,3.054 -1.749,3.034 -2.489,4.787 -0.109,0.105 -0.217,0.209 -0.324,0.315 -0.498,0.491 -0.98,0.993 -1.437,1.506 0.779,-2.653 1.142,-5.252 0.863,-7.793 -0.824,-7.527 -5.886,-9.747 -4.95,-14.785 z m 0.298,28.599 c -0.141,0.326 -0.279,0.662 -0.416,1.008 -0.425,-1.083 -0.872,-2.069 -1.342,-2.957 -0.192,-0.363 -0.364,-0.672 -0.519,-0.931 -0.16,-0.271 -0.344,-0.559 -0.545,-0.859 l -0.003,-0.004 v -0.004 c -0.908,-1.346 -2.011,-2.594 -3.219,-3.78 -1.179,-1.158 -2.463,-2.26 -3.763,-3.344 -1.318,-1.097 -2.357,-2.191 -3.115,-3.278 -0.148,-0.212 -0.282,-0.42 -0.401,-0.618 -0.74,-1.234 -1.109,-2.455 -1.11,-3.659 v -0.004 c 0,-2.261 0.917,-4.266 2.747,-6.016 -2.696,5.843 0.086,9.928 5.113,14.329 2.903,2.543 5.927,6.187 6.573,10.117 z m 2.007,-3.747 c -0.5,0.741 -0.979,1.58 -1.437,2.514 -0.238,-3.723 -1.814,-7.425 -4.203,-10.428 -4.927,-6.195 -4.543,-8.108 -3.776,-15.581 0.51,-0.221 1.032,-0.415 1.572,-0.582 0.509,-0.158 1.032,-0.291 1.567,-0.4 -3.234,7.105 1.388,9.708 4.023,15.006 1.254,2.522 2.498,5.907 2.299,9.406 -0.015,0.021 -0.029,0.043 -0.045,0.065 z m -1.404,8.267 0.002,-0.008 v -0.003 c 0.129,-0.412 0.266,-0.826 0.409,-1.24 0.115,-0.334 0.259,-0.724 0.425,-1.161 0.728,-1.909 1.521,-3.498 2.373,-4.762 0.828,-1.227 1.84,-2.369 2.949,-3.46 1.141,-1.12 2.383,-2.186 3.639,-3.233 l 0.006,-0.005 c 0.488,-0.406 0.941,-0.813 1.357,-1.216 0.434,-0.42 0.822,-0.831 1.166,-1.228 1.883,-2.182 2.824,-4.397 2.824,-6.634 v -0.005 c -0.002,-1.701 -0.414,-3.284 -1.238,-4.746 -0.271,-0.484 -0.592,-0.955 -0.957,-1.413 -0.711,-0.895 -1.601,-1.738 -2.666,-2.525 l -0.004,-0.004 c -1.592,-1.174 -3.33,-2.053 -5.215,-2.637 -1.877,-0.581 -3.908,-0.872 -6.092,-0.872 -2.179,0 -4.206,0.291 -6.078,0.872 -1.881,0.584 -3.618,1.463 -5.21,2.637 l -0.004,0.004 c -3.239,2.397 -4.859,5.293 -4.859,8.689 v 0.004 c 0.001,1.564 0.462,3.119 1.384,4.658 0.151,0.252 0.311,0.498 0.477,0.737 0.86,1.233 2.024,2.463 3.491,3.684 1.257,1.047 2.498,2.113 3.638,3.233 1.11,1.091 2.123,2.233 2.95,3.46 l 0.002,-10e-4 0.001,0.002 c 0.145,0.215 0.305,0.47 0.481,0.765 0.181,0.306 0.342,0.588 0.476,0.843 0.809,1.527 1.552,3.381 2.223,5.557 l 1.015,3.285 z m -1.012,18.049 0.525,-3.652 0.524,-3.65 h -2.099 l 0.525,3.65 0.525,3.652 v 0"
         style="fill:#ffffff;fill-opacity:1;fill-rule:evenodd;stroke:none;stroke-width:0.1"
         id="path723" /><path
         d="m 244.90355,237.77527 v 0 c 1.696,0 3.083,-1.388 3.083,-3.085 0,-2.243 0,-4.486 0,-6.728 -2.055,0 -4.111,0 -6.167,0 v 6.728 c 0,1.697 1.387,3.085 3.084,3.085 z m -34.405,-3.065 c 4.734,0.824 9.909,0.824 15.525,0 v -10.196 c 3.455,-1.399 6.62,-2.381 9.265,-2.62 v 21.802 c 5.953,1.153 12.457,1.153 19.516,0 0,-7.268 0,-14.535 0,-21.802 2.158,-0.154 5.666,0.901 9.994,2.687 v 10.151 c 4.735,0.795 9.908,0.795 15.524,0 l -0.004,-12.006 c -15.985,-23.222 -52.125,-23.305 -69.859,-0.232 0.218,5.236 0.039,6.973 0.039,12.216 v 0"
         style="fill:#ffffff;fill-opacity:1;fill-rule:evenodd;stroke:none;stroke-width:0.1"
         id="path725" /></g></g></svg>
