<?xml version="1.0" encoding="UTF-8" standalone="no"?>
<svg
   xmlns:dc="http://purl.org/dc/elements/1.1/"
   xmlns:cc="http://creativecommons.org/ns#"
   xmlns:rdf="http://www.w3.org/1999/02/22-rdf-syntax-ns#"
   xmlns:svg="http://www.w3.org/2000/svg"
   xmlns="http://www.w3.org/2000/svg"
   viewBox="0 0 157.22667 157.22667"
   height="157.22667"
   width="157.22667"
   xml:space="preserve"
   id="svg2"
   version="1.1"><metadata
     id="metadata8"><rdf:RDF><cc:Work
         rdf:about=""><dc:format>image/svg+xml</dc:format><dc:type
           rdf:resource="http://purl.org/dc/dcmitype/StillImage" /><dc:title></dc:title></cc:Work></rdf:RDF></metadata><defs
     id="defs6" /><g
     transform="matrix(1.3333333,0,0,-1.3333333,-250.19334,407.42)"
     id="g10"><path
       d="m -518.92536,184.66948 h 448.825101 c 12.207,0 22.195,-9.987 22.195,-22.195 v -448.8247 c 0,-12.2078 -9.988,-22.1953 -22.195,-22.1953 H -518.92536 c -12.20701,0 -22.1949,9.9875 -22.1949,22.1953 v 448.8247 c 0,12.208 9.98789,22.195 22.1949,22.195 v 0"
       style="fill:#1c2b4e;fill-opacity:1;fill-rule:evenodd;stroke:none;stroke-width:0.1"
       id="path14" /><path
       d="m -441.91246,145.60048 c 32.4742,0 58.9602,-26.486 58.9602,-58.960004 0,-32.474 -26.486,-58.96 -58.9602,-58.96 -32.4738,0 -58.9598,26.486 -58.9598,58.96 0,32.474004 26.486,58.960004 58.9598,58.960004 z m 0,-11.051 c 26.3882,0 47.9082,-21.521 47.9082,-47.909004 0,-26.388 -21.52,-47.908 -47.9082,-47.908 -26.3875,0 -47.9086,21.52 -47.9086,47.908 0,26.388004 21.5211,47.909004 47.9086,47.909004 v 0"
       style="fill:#ffffff;fill-opacity:1;fill-rule:evenodd;stroke:none;stroke-width:0.1"
       id="path16" /><path
       d="m -441.91246,-4.1575244 c 32.4742,0 58.9602,-26.4859996 58.9602,-58.9589996 0,-32.475 -26.486,-58.959996 -58.9602,-58.959996 -32.4738,0 -58.9598,26.484996 -58.9598,58.959996 0,32.473 26.486,58.9589996 58.9598,58.9589996 z m 0,-11.0509996 c 26.3882,0 47.9082,-21.521 47.9082,-47.908 0,-26.388 -21.52,-47.908996 -47.9082,-47.908996 -26.3875,0 -47.9086,21.520996 -47.9086,47.908996 0,26.387 21.5211,47.908 47.9086,47.908 v 0"
       style="fill:#ffffff;fill-opacity:1;fill-rule:evenodd;stroke:none;stroke-width:0.1"
       id="path18" /><path
       d="m -441.91246,-151.55752 c 32.4742,0 58.9602,-26.485 58.9602,-58.9595 0,-32.4738 -26.486,-58.959 -58.9602,-58.959 -32.4738,0 -58.9598,26.4852 -58.9598,58.959 0,32.4745 26.486,58.9595 58.9598,58.9595 z m 0,-11.05 c 26.3882,0 47.9082,-21.522 47.9082,-47.9095 0,-26.3879 -21.52,-47.9082 -47.9082,-47.9082 -26.3875,0 -47.9086,21.5203 -47.9086,47.9082 0,26.3875 21.5211,47.9095 47.9086,47.9095 v 0"
       style="fill:#ffffff;fill-opacity:1;fill-rule:evenodd;stroke:none;stroke-width:0.1"
       id="path20" /><path
       d="m -294.51226,143.24248 c 32.474,0 58.958,-26.486 58.958,-58.960004 0,-32.474 -26.484,-58.96 -58.958,-58.96 -32.475,0 -58.96,26.486 -58.96,58.96 0,32.474004 26.485,58.960004 58.96,58.960004 z m 0,-11.052 c 26.388,0 47.908,-21.52 47.908,-47.908004 0,-26.388 -21.52,-47.908 -47.908,-47.908 -26.389,0 -47.909,21.52 -47.909,47.908 0,26.388004 21.52,47.908004 47.909,47.908004 v 0"
       style="fill:#ffffff;fill-opacity:1;fill-rule:evenodd;stroke:none;stroke-width:0.1"
       id="path22" /><path
       d="m -147.11226,143.24248 c 32.472,0 58.959001,-26.486 58.959001,-58.960004 0,-32.474 -26.487001,-58.96 -58.959001,-58.96 -32.475,0 -58.961,26.486 -58.961,58.96 0,32.474004 26.486,58.960004 58.961,58.960004 z m 0,-11.052 c 26.387,0 47.908001,-21.52 47.908001,-47.908004 0,-26.388 -21.521001,-47.908 -47.908001,-47.908 -26.389,0 -47.91,21.52 -47.91,47.908 0,26.388004 21.521,47.908004 47.91,47.908004 v 0"
       style="fill:#ffffff;fill-opacity:1;fill-rule:evenodd;stroke:none;stroke-width:0.1"
       id="path24" /><path
       d="m -294.51226,-4.1575244 c 32.474,0 58.958,-26.4859996 58.958,-58.9589996 0,-32.475 -26.484,-58.959996 -58.958,-58.959996 -32.475,0 -58.96,26.484996 -58.96,58.959996 0,32.473 26.485,58.9589996 58.96,58.9589996 z m 0,-11.0509996 c 26.388,0 47.908,-21.521 47.908,-47.908 0,-26.388 -21.52,-47.908996 -47.908,-47.908996 -26.389,0 -47.909,21.520996 -47.909,47.908996 0,26.387 21.52,47.908 47.909,47.908 v 0"
       style="fill:#ffffff;fill-opacity:1;fill-rule:evenodd;stroke:none;stroke-width:0.1"
       id="path26" /><path
       d="m -294.51226,-151.55752 c 32.474,0 58.958,-26.485 58.958,-58.9595 0,-32.4738 -26.484,-58.959 -58.958,-58.959 -32.475,0 -58.96,26.4852 -58.96,58.959 0,32.4745 26.485,58.9595 58.96,58.9595 z m 0,-11.05 c 26.388,0 47.908,-21.522 47.908,-47.9095 0,-26.3879 -21.52,-47.9082 -47.908,-47.9082 -26.389,0 -47.909,21.5203 -47.909,47.9082 0,26.3875 21.52,47.9095 47.909,47.9095 v 0"
       style="fill:#ffffff;fill-opacity:1;fill-rule:evenodd;stroke:none;stroke-width:0.1"
       id="path28" /><path
       d="m -147.11226,-4.1575244 c 32.472,0 58.959001,-26.4859996 58.959001,-58.9589996 0,-32.475 -26.487001,-58.959996 -58.959001,-58.959996 -32.475,0 -58.961,26.484996 -58.961,58.959996 0,32.473 26.486,58.9589996 58.961,58.9589996 z m 0,-11.0509996 c 26.387,0 47.908001,-21.521 47.908001,-47.908 0,-26.388 -21.521001,-47.908996 -47.908001,-47.908996 -26.389,0 -47.91,21.520996 -47.91,47.908996 0,26.387 21.521,47.908 47.91,47.908 v 0"
       style="fill:#ffffff;fill-opacity:1;fill-rule:evenodd;stroke:none;stroke-width:0.1"
       id="path30" /><path
       d="m -147.11226,-151.55752 c 32.472,0 58.959001,-26.485 58.959001,-58.9595 0,-32.4738 -26.487001,-58.959 -58.959001,-58.959 -32.475,0 -58.961,26.4852 -58.961,58.959 0,32.4745 26.486,58.9595 58.961,58.9595 z m 0,-11.05 c 26.387,0 47.908001,-21.522 47.908001,-47.9095 0,-26.3879 -21.521001,-47.9082 -47.908001,-47.9082 -26.389,0 -47.91,21.5203 -47.91,47.9082 0,26.3875 21.521,47.9095 47.91,47.9095 v 0"
       style="fill:#ffffff;fill-opacity:1;fill-rule:evenodd;stroke:none;stroke-width:0.1"
       id="path32" /><path
       d="m -444.26636,-188.92152 v 1.037 c 0,3.398 1.0445,6.181 2.3234,6.198 v 0 c 1.2777,-0.017 2.3227,-2.8 2.3227,-6.198 v -1.037 h -2.3227 -2.3234 v 0"
       style="fill:#ffffff;fill-opacity:1;fill-rule:evenodd;stroke:none;stroke-width:0.1"
       id="path34" /><path
       d="m -441.94296,-163.71052 0.8367,-8.467 0.837,-8.466 h -3.3471 l 0.8363,8.466 0.8371,8.467 v 0"
       style="fill:#ffffff;fill-opacity:1;fill-rule:evenodd;stroke:none;stroke-width:0.1"
       id="path36" /><path
       d="m -461.66006,-228.13812 h 5.4441 v -22.7394 c -1.8648,0.5418 -3.682,1.1808 -5.4441,1.9113 v 20.8281 0"
       style="fill:#ffffff;fill-opacity:1;fill-rule:evenodd;stroke:none;stroke-width:0.1"
       id="path38" /><path
       d="m -427.67026,-228.13812 h 5.444 v -21.4863 c -1.767,-0.6625 -3.583,-1.2356 -5.444,-1.7113 v 23.1976 0"
       style="fill:#ffffff;fill-opacity:1;fill-rule:evenodd;stroke:none;stroke-width:0.1"
       id="path40" /><path
       d="m -448.02806,-195.98752 c 0,4.693 2.7348,8.536 6.0851,8.559 v 0 c 3.3497,-0.023 6.0847,-3.866 6.0847,-8.559 0,-1.212 -2.831,2.398 -5.8733,2.398 -3.0426,0 -6.2965,-3.61 -6.2965,-2.398 z m 6.0851,3.275 c -0.3648,-0.005 -0.7144,-0.101 -1.039,-0.272 h -0.0852 l 0.5707,2.347 0.5535,2.276 0.5528,-2.276 0.5709,-2.347 h -0.086 c -0.324,0.171 -0.6736,0.267 -1.0377,0.272 z m -3.1375,2.895 0.8899,-1.507 0.8894,-1.506 -0.132,-0.076 c -0.5523,-0.089 -1.0715,-0.392 -1.4996,-0.866 l -0.0723,-0.041 -0.0371,1.998 z m 6.2742,0 -0.89,-1.507 -0.889,-1.506 0.132,-0.076 c 0.552,-0.089 1.071,-0.392 1.499,-0.866 l 0.073,-0.041 0.037,1.998 0.038,1.998 v 0"
       style="fill:#ffffff;fill-opacity:1;fill-rule:evenodd;stroke:none;stroke-width:0.1"
       id="path42" /><path
       d="m -452.00146,-205.80252 v 1.86 c 0,6.096 4.5207,11.085 10.0585,11.117 5.5367,-0.032 10.0587,-5.021 10.0587,-11.117 v -1.86 l -9.9532,6.134 z m 2.2628,6.924 1.6985,-1.241 1.6758,-1.225 c -0.6801,-0.364 -1.2848,-0.912 -1.7485,-1.625 l -0.3644,-0.331 -0.6309,2.211 z m 7.7957,-0.81 c 0.6024,-0.007 1.1807,-0.132 1.7167,-0.355 h 0.141 l -0.055,0.178 0.169,-0.076 c 0.913,-0.115 1.771,-0.508 2.478,-1.122 l 0.12,-0.055 0.062,2.595 0.062,2.594 -1.469,-1.956 -1.441,-1.917 -0.87,2.809 -0.9137,2.955 -0.9144,-2.955 -0.8691,-2.81 -1.4411,1.918 -1.4703,1.956 0.0621,-2.594 0.0625,-2.595 0.1192,0.055 c 0.7078,0.614 1.566,1.007 2.4785,1.122 l 0.1699,0.076 -0.0555,-0.178 h 0.1414 c 0.5356,0.223 1.1137,0.348 1.7168,0.355 z m 7.7947,0.81 -1.699,-1.241 -1.675,-1.225 c 0.68,-0.364 1.284,-0.912 1.749,-1.625 l 0.364,-0.331 0.63,2.211 0.631,2.211 v 0"
       style="fill:#ffffff;fill-opacity:1;fill-rule:evenodd;stroke:none;stroke-width:0.1"
       id="path44" /><path
       d="m -455.07646,-216.36662 v 2.4266 c 0,7.9605 5.9035,14.4755 13.1335,14.5155 7.2297,-0.04 13.1327,-6.555 13.1327,-14.5155 v -2.4266 l -12.9213,7.1875 z m 2.955,9.0391 2.218,-1.6203 2.1879,-1.5985 c -0.8887,-0.4758 -1.6774,-1.1914 -2.2836,-2.1222 l -0.475,-0.4317 -0.8234,2.8856 z m 20.3562,0 -2.218,-1.6203 -2.187,-1.5985 c 0.888,-0.4758 1.677,-1.1914 2.282,-2.1222 l 0.476,-0.4317 0.823,2.8856 z m -4.049,3.852 -1.92,-2.556 -1.881,-2.502 -1.134,3.668 -1.1937,3.858 -1.1937,-3.858 -1.1352,-3.668 -1.8816,2.502 -1.9195,2.556 0.0816,-3.388 0.0813,-3.3882 0.1554,0.0703 c 0.9242,0.8027 2.0442,1.3164 3.2356,1.466 l 0.2226,0.1004 -0.0722,-0.2332 h 0.1843 c 0.6989,0.291 1.4536,0.4537 2.2414,0.4627 0.7872,-0.01 1.5417,-0.1717 2.2407,-0.4627 h 0.184 l -0.072,0.2332 0.223,-0.1004 c 1.191,-0.1496 2.311,-0.6633 3.235,-1.466 l 0.156,-0.0703 0.081,3.3882 0.081,3.388 v 0"
       style="fill:#ffffff;fill-opacity:1;fill-rule:evenodd;stroke:none;stroke-width:0.1"
       id="path46" /><path
       d="m -457.70226,-249.44672 v 20.2555 h 0.2011 v -20.318 c -0.0656,0.0203 -0.1324,0.0407 -0.2011,0.0625 z m 11.4273,13.7754 h 3.2785 v -4.4375 h -3.2785 z m 5.3847,0 h 3.279 v -4.4375 h -3.279 z m -5.3847,-7.5918 h 3.2785 v -4.4386 h -3.2785 z m 5.3847,0 h 3.279 v -4.4386 h -3.279 z m -1.0527,11.9676 h -2.6273 v 5.2871 c 0,1.1906 1.1789,2.1649 2.6273,2.1766 1.4477,-0.0117 2.6267,-0.986 2.6267,-2.1766 v -5.2871 z m 0.006,11.8633 c -10e-4,0 -0.002,0 -0.002,0 h -3e-4 3e-4 c 0,0 4e-4,0 0.002,0 z m -15.7652,-7.6524 v 1.7118 c 0,9.5511 7.084,17.3693 15.7593,17.4183 8.6747,-0.049 15.7587,-7.8672 15.7587,-17.4183 v -1.7118 h -2.772 v -1.0535 -23.1976 -0.2207 c -1.416,-0.3348 -2.857,-0.6172 -4.319,-0.8387 v 23.2305 c 0,0.8468 -0.068,1.6746 -0.195,2.4726 l 1.905,1.9735 2.346,2.43 -3.142,-0.1445 -2.421,-0.1125 c -0.142,0.2824 -0.292,0.5547 -0.451,0.8195 l 0.854,3.1071 1.064,3.875 -2.945,-2.2059 -2.027,-1.5176 c -0.381,0.2449 -0.777,0.4543 -1.185,0.6239 l -1.039,3.3585 -1.4317,4.6301 -1.4328,-4.6301 -1.0379,-3.3574 c -0.4086,-0.1691 -0.805,-0.3789 -1.1863,-0.6238 l -2.0262,1.5164 -2.9453,2.2059 1.0641,-3.875 0.8523,-3.1036 c -0.1589,-0.2652 -0.3093,-0.539 -0.4515,-0.8222 l -2.4184,0.1117 -3.1422,0.1445 2.3457,-2.43 1.9024,-1.9707 c -0.116,-0.7274 -0.1801,-1.4805 -0.191,-2.2528 -4e-4,-0.0683 -10e-4,-0.1445 -10e-4,-0.2226 v -23.0832 c -1.7223,0.2933 -2.8215,0.666 -4.4762,1.1152 v 0.2551 22.7394 1.0535 z m 31.518,-2.1066 v -20.5418 c -0.317,-0.0949 -0.633,-0.1883 -0.95,-0.2773 v 20.8191 z m -15.7645,9.759 c 0,0 -4e-4,0 -10e-4,0 8e-4,0 8e-4,0 8e-4,0 z m 0,0 c 8e-4,0 0.002,0 0.002,0 -4e-4,0 -0.002,0 -0.002,0 z m -6.9586,-9.7324 v -22.2821 c 0.8445,-0.1164 1.7152,-0.216 2.6133,-0.2961 0.2636,-0.0234 0.4851,-0.0429 0.6625,-0.0558 1.375,-0.1063 2.7511,-0.1621 4.1218,-0.1621 h 0.0274 c 1.7761,0 3.5221,0.0863 5.2351,0.2523 0.287,0.0281 0.62,0.0641 1.004,0.1082 0.082,0.01 0.17,0.0215 0.264,0.0332 v 22.4024 c 0,3.7918 -1.587,7.0898 -3.892,8.6972 -0.447,0.3114 -0.921,0.5598 -1.415,0.7344 -0.49,0.1727 -1.0035,0.2754 -1.5328,0.2969 -0.0485,8e-4 -0.0879,0.004 -0.1176,0.004 -4e-4,0 -4e-4,0 -4e-4,0 -10e-4,0 -10e-4,0 -10e-4,0 0,0 -4e-4,0 -7e-4,0 0,0 0,0 -10e-4,0 -8e-4,0 -0.002,0 -0.003,0 -0.001,0 -0.002,0 -0.004,0 -4e-4,0 -0.002,0 -0.002,0 0,0 -4e-4,0 -10e-4,0 -2.7039,-0.0449 -5.0605,-2.2324 -6.2101,-5.3828 -0.2274,-0.6219 -0.4082,-1.2883 -0.5352,-1.9875 -0.1281,-0.6992 -0.2004,-1.4274 -0.2105,-2.1727 -4e-4,-0.0683 -0.002,-0.1308 -0.002,-0.1894 z m 6.9684,9.7324 c 0,0 0,0 -0.001,0 0.001,0 0.001,0 0.001,0 v 0"
       style="fill:#ffffff;fill-opacity:1;fill-rule:evenodd;stroke:none;stroke-width:0.1"
       id="path48" /><path
       d="m -156.92526,61.456476 2.791,1.348 0.02,3.189 2.16,1.435 -0.004,2.752 v 0.662 l 0.631,0.428 0.156,0.105 c -2.406,11.574 -6.115,15.086 -16.703,20.065 -3.973,-3.91 -6.971,-7.471 -7.519,-14.691 -1.469,5.15 0.105,12.554 7.755,18.036 11.149,0.68 22.463,-12.096 25.145,-17.549 l 0.078,0.052 0.453,0.014 c 0.576,12.259 -2.851,18.168 -14.892,27.148004 -2.895,-3.095 -4.834,-5.522004 -6.102,-8.201004 -0.008,2.896 1.248,6.892004 5.926,11.117004 15.314,-4.93 23.496,-9.594004 28.381,-29.289004 0.093,0.025 0.213,0.018 0.369,-0.043 0.301,15.395 0.851,26.124004 -14.754,37.607004 -2.543,-2.257 -5.008,-4.799 -7.022,-8.097 0.485,4.643 3.543,9.797 7.426,12.93 12.246,-5.332 19.004,-13.022 22.213,-23.402004 1.705,1.626 5.547,3.357004 8.027,1.56 0.575,-2.208 0.772,-8.516 -1.628,-11.432 l -0.032,-0.496 c 1.873,0.069 2.44,-0.177 4.442,-1.129 -2.666,-1.037 -3.582,-2.089 -4.574,-3.25 1.169,-0.723 0.98,-2.059 0.763,-3.59 -0.172,-1.205 2.621,-4.42 3.365,-4.641 l 3.934,-1.17 -3.789,-1.452 -13.633,-8.969 -33.127,-5.51 z m 38.848,20.426 1.73,0.701 0.331,0.134 c 0.246,7.458 -0.774,9.351 -4.038,13.111 1.166,-4.214 1.786,-8.855 1.977,-13.946 z m -65.486,-18.758 25.451,-2.325 0.256,-3.159 -25.375,2.845 z m 3.273,4.16 24.752,-1.882 0.088,-1.849 -2.246,-1.154 -25.635,2.139 3.066,1.228 z m 3.252,4.051 23.805,-1.301 -0.041,-2.26 -2.16,-1.087 -24.379,1.906 2.937,1.178 z m 23.9,-10.268 0.004,-0.101 27.368,4.2 12.097,8.017 c -0.648,1.216 -3.428,4.51 -3.234,5.874 0.008,0.056 0.027,0.108 0.054,0.156 -2.046,-3.876 -5.076,-4.655 -10.212,-7.23 l -12.914,-0.88 -8.469,-1.585 0.004,-2.789 0.002,-0.699 -0.688,-0.429 -1.342,-0.838 0.075,-1.513 0.041,-0.838 -0.899,-0.434 -1.887,-0.911 v 0"
       style="fill:#ffffff;fill-opacity:1;fill-rule:nonzero;stroke:none;stroke-width:0.1"
       id="path50" /><path
       d="m -437.95226,-39.540524 c 3.433,-7.935 6.845,-15.806 10.302,-23.55 3.41,-7.639 7.222,-14.982 10.83,-22.276 2.882,1.321 5.765,2.63 8.648,3.902 -4.876,6.63 -9.76,13.349 -14.621,20.313 -4.945,7.085 -9.807,14.403 -14.711,21.828 -0.155,-0.08 -0.302,-0.149 -0.448,-0.217 z m 24.688,-18.38 c -2.529,-0.814 -5.05,-1.634 -7.572,-2.455 -0.309,0.485 -0.619,0.964 -0.928,1.449 2.451,0.888 4.911,1.77 7.371,2.646 -2.352,0.491 -4.695,0.995 -7.038,1.516 -0.055,1.734 -0.109,3.474 -0.155,5.214 -1.795,-0.578 -3.589,-1.156 -5.384,-1.728 -0.302,0.472 -0.595,0.945 -0.889,1.424 1.423,0.502 2.846,1 4.278,1.509 -1.555,0.373 -3.102,0.746 -4.649,1.131 -0.039,1.162 -0.07,2.324 -0.101,3.492 -0.982,-0.323 -1.964,-0.646 -2.939,-0.969 -0.294,0.472 -0.58,0.944 -0.866,1.417 1.098,0.403 2.196,0.82 3.303,1.23 -1.006,0.286 -2.012,0.578 -3.017,0.876 -0.031,0.832 -0.054,1.665 -0.077,2.504 -0.898,-0.286 -1.795,-0.572 -2.684,-0.864 -0.209,0.336 -0.411,0.671 -0.611,1.001 0.734,0.218 1.477,0.441 2.22,0.665 -0.766,0.143 -1.532,0.285 -2.29,0.428 -0.054,1.914 -0.108,3.834 -0.162,5.754 -1.849,-0.404 -3.602,-1.09 -5.443,-1.487 -0.03,-1.144 0.034,-2.153 0.004,-3.29 -0.3563,0.068 -0.7118,0.137 -1.0672,0.211 0,1.081 0,2.162 0,3.244 -1.7871,0.416 -3.7657,0.993 -5.5524,1.409 0,-1.709 0,-3.411 0,-5.114 -0.8972,-0.236 -1.7945,-0.459 -2.6918,-0.69 0.8973,-0.248 1.7946,-0.497 2.6996,-0.739 -0.2476,-0.454 -0.4953,-0.895 -0.7425,-1.336 -0.9981,0.28 -1.9957,0.572 -2.986,0.857 0,-0.826 0,-1.652 0,-2.479 -1.1601,-0.285 -2.3203,-0.559 -3.4722,-0.832 1.4539,-0.441 2.9078,-0.876 4.3621,-1.311 -0.2707,-0.485 -0.5418,-0.963 -0.8043,-1.442 -1.2922,0.379 -2.5758,0.764 -3.8598,1.15 0,-1.156 0,-2.305 0,-3.455 -1.6242,-0.373 -3.241,-0.733 -4.8574,-1.087 1.9262,-0.609 3.8512,-1.212 5.7855,-1.815 -0.2785,-0.484 -0.5566,-0.969 -0.8273,-1.454 -2.3129,0.715 -4.6254,1.436 -6.9383,2.156 0,-1.721 0,-3.442 0,-5.163 -2.4598,-0.497 -4.9191,-0.988 -7.3711,-1.466 3.2871,-1.094 6.5746,-2.182 9.8617,-3.275 -0.2859,-0.497 -0.5722,-0.994 -0.8586,-1.479 -3.264,1.081 -6.5285,2.156 -9.7843,3.231 0,-2.392 0,-4.772 0,-7.152 -3.4571,-0.609 -6.9149,-1.217 -10.3723,-1.845 4.6258,-1.548 9.259,-3.163 13.8914,-4.822 -0.2551,-0.429 -0.5105,-0.858 -0.7656,-1.28 -4.3782,1.553 -8.7555,3.057 -13.1336,4.511 0,-3.069 0,-6.146 0,-9.215 2.8621,-1.062 5.7316,-2.168 8.6012,-3.299 -0.6407,-1.046 -1.2739,-2.092 -1.9063,-3.144 3.8961,-1.613 7.8215,-3.167 11.6738,-4.867 0.4192,1.196 0.8969,2.372 1.3473,3.555 6.0641,-2.553 12.1273,-4.996 18.1992,-7.219 0.0539,3.752 0.1082,7.506 0.1703,11.259 -4.9117,1.466 -9.8226,3.056 -14.7343,4.734 0.1777,0.447 0.3636,0.895 0.5492,1.343 4.7336,-1.635 9.4668,-3.188 14.2086,-4.63 0.0617,4.244 0.1234,8.482 0.1929,12.732 -3.2558,1.075 -6.5125,2.2 -9.7609,3.349 0.2008,0.515 0.4102,1.031 0.6187,1.547 3.0551,-0.982 6.111,-1.932 9.1735,-2.839 0.0465,3.125 0.0926,6.251 0.1469,9.382 -2.011,0.572 -4.0141,1.162 -6.0176,1.758 0.1933,0.504 0.3941,1.007 0.5957,1.511 1.8101,-0.553 3.6273,-1.094 5.4449,-1.616 0.0313,2.063 0.0617,4.12 0.0926,6.183 -1.1211,0.316 -2.2426,0.634 -3.3563,0.962 0.1934,0.492 0.3868,0.989 0.5793,1.492 0.9289,-0.279 1.8571,-0.547 2.7848,-0.808 0,1.479 0,2.958 0,4.443 -0.4098,0.112 -0.8195,0.224 -1.2215,0.341 0.1856,0.479 0.3711,0.964 0.5645,1.448 0.3945,-0.111 0.789,-0.217 1.191,-0.323 0.4259,0.106 0.8509,0.218 1.2759,0.33 0.162,-0.429 0.333,-0.858 0.503,-1.28 -0.356,-0.125 -0.704,-0.249 -1.052,-0.367 0.023,-1.491 0.055,-2.983 0.086,-4.467 0.866,0.279 1.732,0.559 2.606,0.851 0.193,-0.497 0.387,-0.995 0.58,-1.485 -1.075,-0.361 -2.15,-0.709 -3.217,-1.057 0.038,-2.087 0.077,-4.169 0.115,-6.25 1.818,0.571 3.636,1.148 5.461,1.752 0.193,-0.504 0.394,-1.007 0.596,-1.504 -1.996,-0.696 -3.992,-1.379 -5.987,-2.044 0.008,-1.231 0.023,-2.461 0.038,-3.691 0.031,-1.914 0.07,-3.821 0.109,-5.729 3.148,1.001 6.303,2.044 9.46,3.132 0.2,-0.522 0.409,-1.032 0.618,-1.541 -3.302,-1.155 -6.597,-2.275 -9.893,-3.33 0.055,-4.344 0.109,-8.681 0.163,-13.019 4.958,1.492 9.916,3.139 14.881,4.885 0.171,-0.435 0.348,-0.865 0.526,-1.286 -5.151,-1.865 -10.302,-3.623 -15.446,-5.207 0.07,-3.698 0.14,-7.395 0.217,-11.085 3.264,1.061 6.543,2.205 9.8,3.467 3.271,1.266 6.535,2.621 9.807,3.982 0.777,-1.098 1.553,-2.19 2.329,-3.287 4.123,2.015 8.255,3.987 12.387,5.891 -0.683,0.769 -1.358,1.543 -2.032,2.325 1.359,0.606 2.718,1.207 4.077,1.8 0.062,3.077 0.132,6.152 0.201,9.234 -3.241,-1.006 -6.474,-2.044 -9.707,-3.113 -0.27,0.398 -0.541,0.802 -0.804,1.211 3.449,1.268 6.899,2.511 10.349,3.711 -3.288,0.646 -6.575,1.273 -9.854,1.901 -0.077,2.398 -0.147,4.791 -0.217,7.195 z m -28.0361,27.909 c 1.8711,-0.379 2.9351,-0.671 5.1821,-1.075 -1.725,-0.416 -3.507,-0.897 -5.2239,-1.307 -1.7871,0.416 -3.7648,0.993 -5.5519,1.409 1.3691,0.293 4.2168,0.681 5.5937,0.973 z m -4.5031,-9.163 c -4.2699,-7.655 -8.498,-15.224 -12.7934,-22.611 -4.2281,-7.271 -8.1695,-14.012 -12.2574,-20.81 2.5598,-1.054 5.1278,-2.116 7.6957,-3.182 3.0055,7.24 5.8481,14.23 9.0094,22.059 3.1953,7.915 6.3574,15.939 9.5445,24.035 -0.4023,0.168 -0.8043,0.335 -1.1988,0.509 v 0"
       style="fill:#ffffff;fill-opacity:1;fill-rule:evenodd;stroke:none;stroke-width:0.1"
       id="path52" /><path
       d="m -292.26626,125.49948 5.382,-0.223 -4.271,-3.482 1.451,-5.176 -4.641,2.977 -4.485,-2.977 1.403,5.324 -4.224,3.334 5.508,0.314 1.887,5.114 z m -36.889,-63.315004 v 6.208 c 2.212,-1.018 3.225,-2.384 3.613,-3.643 0.537,1.324 1.906,2.756 3.652,3.643 v -8.241 c 1.746,0 3.493,0 5.238,0 v 8.241 c 2.212,-1.018 3.222,-2.384 3.612,-3.643 0.537,1.324 1.906,2.756 3.653,3.643 v -8.241 c 1.745,0 3.492,0 5.237,0 v 8.241 c 2.211,-1.018 3.223,-2.384 3.612,-3.643 0.538,1.324 1.906,2.756 3.654,3.643 v -8.241 c 1.745,0 3.491,0 5.237,0 v 8.241 c 2.211,-1.018 3.222,-2.384 3.613,-3.643 0.535,1.324 1.904,2.756 3.65,3.643 v -8.241 c 1.746,0 3.493,0 5.239,0 v 8.241 c 2.211,-1.018 3.222,-2.384 3.613,-3.643 0.535,1.324 1.904,2.756 3.652,3.643 v -8.241 c 1.744,0 3.49,0 5.237,0 v 8.241 c 2.212,-1.018 3.222,-2.384 3.613,-3.643 0.535,1.324 1.904,2.756 3.652,3.643 v -6.192 c -7.629,-11.129 -20.431,-18.454 -34.894,-18.454 -14.455,0 -27.252,7.319 -34.883,18.438 z m 23.074,17.287 h 23.629 l -0.096,-10.517 -0.769,1.859 c -1.932,-0.876 -3.979,-2.083 -4.545,-3.298 -0.469,1.321 -2.356,2.596 -5.029,3.666 l -0.997,-3.532 -0.671,-0.007 -0.893,3.539 c -2.113,-0.932 -4.431,-2.277 -5.079,-3.666 -0.412,1.156 -2.293,2.294 -4.548,3.277 l -0.985,-2.213 z m 2.231,11.115 h 0.432 l -0.885,3.641 6.131,-1.903 3.932,1.852 3.915,-1.888 6.096,1.827 -0.834,-3.529 h 0.381 v -9.339 h -19.168 z m 5.49,-1.761 v 0 c 1.211,0 2.201,-0.433 2.201,-0.959 v -5.712 h -4.4 v 5.712 c 0,0.526 0.99,0.959 2.199,0.959 z m 8.185,0 v 0 c 1.211,0 2.2,-0.433 2.2,-0.959 v -5.712 h -4.399 v 5.712 c 0,0.526 0.99,0.959 2.199,0.959 z m -4.101,29.490004 7.023,-23.060004 -3.082,-0.835 -3.914,1.708 -3.931,-1.676 -3.102,0.872 7.006,22.991004 v 0"
       style="fill:#ffffff;fill-opacity:1;fill-rule:evenodd;stroke:none;stroke-width:0.1"
       id="path54" /><path
       d="m -307.77926,-43.571524 c 0,1.001 0,2.004 0,3.005 0.021,0 0.04,0 0.061,0 0.669,1.078 0.924,3.689 1.119,6.517 0.299,-2.692 0.662,-4.934 1.121,-6.517 0.018,0 0.039,0 0.058,0 0,-3.796 0,-7.59 0,-11.386 2.671,0 5.341,0 8.011,0 v -3.896 l 0.011,-0.358 c -2.674,0 -5.348,0 -8.022,0 0,-6.814 0,-13.628 0,-20.443 h -13.575 c 0.009,5.319 0.064,11.665 0.064,16.761 -2.388,-6.341 -5.458,-13.582 -10.39,-18.271 2.661,0 5.029,0 7.534,0 v -0.01 h 52.079 v 0.01 c 3.674,0 6.949,0 10.629,0 -4.734,4.464 -8.363,12.691 -10.684,18.736 0,-5.117 0,-11.828 0,-17.226 h -13.58 c 0,6.815 0,13.629 0,20.443 -2.636,0 -5.275,0 -7.912,0 l 0.024,0.335 v 3.919 c 2.629,0 5.259,0 7.888,0 0,3.796 0,7.59 0,11.386 0.012,0 0.026,0 0.037,0 0.469,1.193 0.831,3.584 1.143,6.517 0.305,-2.691 0.676,-4.933 1.141,-6.517 0.013,0 0.025,0 0.039,0 0,-1.001 0,-2.002 0,-3.002 1.838,3.083 3.342,9.936 4.492,15.47 1.016,-4.796 2.674,-11.998 4.367,-15.473 0,1.001 0,2.004 0,3.005 0.014,0 0.025,0 0.039,0 0.332,0.982 0.729,2.844 1.141,6.517 0.234,-2.655 0.668,-4.655 1.14,-6.517 0.014,0 0.028,0 0.041,0 0,-4.432 0,-8.863 0,-13.295 2.495,-9.504 8.481,-17.728 16.11,-24.055 -0.492,-1.361 -1.051,-2.691 -1.672,-3.986 -3.432,0 -6.861,0 -10.291,0 0.945,-2.897 0.734,-5.561 0,-8.122 -6.828,0 -13.658,0 -20.486,0 -0.18,1.666 -0.539,3.333 0,4.997 -1.606,1.664 -3.555,2.707 -6.897,3.125 -0.944,0 -1.887,0 -2.832,0 -3.294,-0.414 -5.467,-1.433 -7.08,-3.056 0.293,-1.835 0.377,-3.567 0,-5.066 -6.577,0 -13.154,0 -19.73,0 -0.844,2.708 -0.507,5.415 0,8.122 -3.77,0 -7.538,0 -11.307,0 -0.584,1.217 -1.114,2.466 -1.585,3.743 0.228,0 0.495,0 0.862,0 7.713,6.357 13.182,14.79 15.674,24.351 0,4.414 0,8.827 0,13.242 0.019,0 0.039,0 0.059,0 0.561,1.512 0.875,3.894 1.12,6.517 0.151,-2.84 0.494,-5.103 1.118,-6.517 0.02,0 0.041,0 0.06,0 0,-1.001 0,-2.004 0,-3.005 1.352,2.325 3.001,8.807 4.448,15.499 1.119,-4.796 2.779,-12.158 4.413,-15.499 z m 11.495,-8.721 c 0.696,-0.408 1.675,0.502 1.944,2.095 0.249,-1.63 1.226,-2.519 1.984,-2.095 0,-1.18 0,-2.36 0,-3.54 0.039,-1.467 -0.924,-0.553 -1.985,-1.509 -1.082,1.029 -2.034,0.051 -1.943,1.509 0,1.18 0,2.36 0,3.54 z m 15.301,5.736 c 2.953,0 5.906,0 8.859,0 0,0.203 0,0.405 0,0.607 -1.476,0 -2.953,0 -4.43,0 -1.476,0 -2.953,0 -4.429,0 0,-0.202 0,-0.404 0,-0.607 z m 0,-21.055 0.691,8.452 h 7.402 l 0.766,-8.424 v 9.239 h -8.859 z m 2.33,16.512 c 1.398,0 2.797,0 4.197,0 0,-1.451 0,-2.903 0,-4.355 -1.4,0 -2.799,0 -4.197,0 0,1.452 0,2.904 0,4.355 z m -29.126,5.15 c -1.476,0 -2.953,0 -4.43,0 -1.477,0 -2.954,0 -4.431,0 0,-0.202 0,-0.404 0,-0.607 2.954,0 5.908,0 8.861,0 0,0.203 0,0.405 0,0.607 z m -8.772,-21.678 0.59,8.469 7.548,-0.03 0.571,-8.455 0.063,9.299 h -8.861 z m 2.244,16.528 c 1.398,0 2.797,0 4.195,0 0,-1.451 0,-2.903 0,-4.355 -1.398,0 -2.797,0 -4.195,0 0,1.452 0,2.904 0,4.355 z m 39.13,8.501 c 0,-0.97 0,-1.941 0,-2.91 -0.918,0 -1.836,0 -2.752,0 0,0.969 0,1.94 0,2.91 0,1.008 0.914,2.381 1.465,2.364 0.307,0.059 1.377,-1.311 1.287,-2.364 z m -35.656,0 c 0,-0.97 0,-1.941 0,-2.91 -0.917,0 -1.834,0 -2.751,0 0,0.969 0,1.94 0,2.91 0,1.008 0.914,2.381 1.466,2.364 0.305,0.059 1.376,-1.311 1.285,-2.364 v 0"
       style="fill:#ffffff;fill-opacity:1;fill-rule:evenodd;stroke:none;stroke-width:0.1"
       id="path56" /><path
       d="m -184.32126,-55.269524 c 3.291,4.953 6.584,9.906 9.877,14.859 2.476,-3.43 4.953,-6.86 7.428,-10.289 6.396,3.573 13.599,12.849 21.984,30.462 4.959,-11.514 11.906,-21.515 23.23,-28.185 1.709,2.397 3.42,4.794 5.129,7.19 3.477,-4.066 6.951,-8.133 10.428,-12.199 l -9.18,6.37 0.268,-3.517 -2.422,3.219 c -1.395,-0.864 -3.328,-2.86 -4.723,-3.723 -7.464,4.516 -15.091,7.45 -19.304,14.994 l -1.348,-8.033 -3.221,8.393 c -4.724,-6.343 -13.851,-13.251 -20.961,-17.397 l -5.199,5.361 -0.941,-3.357 -2.125,3.303 c -2.668,-2.083 -6.25,-5.368 -8.92,-7.451 v 0"
       style="fill:#ffffff;fill-opacity:1;fill-rule:evenodd;stroke:none;stroke-width:0.1"
       id="path58" /><path
       d="m -188.73126,-63.560524 c 1.507,0 3.015,0 4.521,0 l 0.055,-5.306 h 3.228 l -0.033,5.306 c 2.576,0 3.164,0 5.74,0 l -0.033,-5.284 h 3.584 v 5.284 c 1.994,0 3.012,0 5.006,0 v -35.43 c -12.26,7.224 -20.512,20.254 -22.068,35.43 z m 24.48,-15.997 5.672,3.05 0.102,-7.634 c 0.529,0.726 4.201,2.491 4.207,3.243 l 0.039,6.216 c 0.797,0.419 3.591,2.122 4.388,2.542 l 0.084,-5.74 c 0.59,0.269 2.877,1.597 2.873,1.992 l -0.041,4.943 c 0.401,0.24 2.27,0.854 3.123,1.17 l 0.071,-4.387 c 0.136,0.066 2.076,0.611 2.431,1.065 l -0.06,4.051 c 0.299,0.108 2.523,0.997 2.789,0.894 0.105,-0.047 0.025,-3.95 0.16,-3.898 0.625,0.241 1.441,0.541 2.064,0.726 l 0.073,3.58 c 0.258,0.067 2.433,0.394 2.912,0.114 l 0.027,-3.02 c 0.77,0.123 1.086,0.237 1.512,0.321 l 0.033,2.888 c 0.26,0.134 1.885,0.135 2.11,-0.104 l 0.121,-2.635 c 0.691,0.052 0.259,0.125 0.978,0.141 l 0.067,2.394 c 0.275,-0.104 1.513,-0.018 1.947,-0.238 l -0.094,-2.148 c 0.35,-0.007 0.506,0.054 1.014,0.003 l 0.074,1.973 c 0.107,0.039 1.275,-0.14 1.41,-0.377 l -0.055,-1.595 c -0.369,-0.141 0.135,-0.131 0.782,-0.125 l 0.05,1.572 c 0.225,-0.039 1.274,-0.218 1.186,-0.383 l -0.004,-1.203 c -0.174,-0.201 0.256,-0.234 0.654,-0.184 l 0.121,1.371 c 0.227,0.024 0.67,-0.314 0.899,-0.261 l 0.109,-1.265 c 0.272,-0.018 0.305,-0.033 0.594,-0.048 l 0.006,0.978 c 0.209,0.107 0.598,-0.309 0.822,-0.464 l -0.004,-0.561 c 0.949,-0.67 3.778,-0.721 5.401,0.703 -0.758,0.127 -1.52,0.331 -2.287,0.623 l -0.313,6 c -5.408,4.562 -13.16,3.259 -27.842,5.862 -22.312,3.957 -3.301,8.619 4.397,10.629 -6.612,-2.443 -22.209,-7.063 -2.799,-9.001 13.043,-1.302 18.787,-0.763 26.557,-3.903 v 0.646 c 0.705,0 1.412,0 2.119,0 l 0.017,-1.441 h 1.145 l -0.012,1.441 c 0.912,0 1.119,0 2.031,0 l -0.011,-1.436 h 1.267 v 1.436 c 0.707,0 1.217,0 1.924,0 0,-3.412 0,-6.822 0,-10.233 -0.848,-0.296 -1.701,-0.513 -2.559,-0.641 -0.492,-1.225 -1.587,-2.547 -3.795,-3.729 -3.724,-1.994 -8.291,-0.743 -14.746,-1.628 -7.748,-1.063 -13.277,-6.696 -14.218,-8.662 -2.657,-2.541 -5.582,-12.041 -5.545,-20.756996 -5.471,0.673 -11.129,1.828 -15.848,4.244 z m 52.672,17.75 v 0 c 0.576,0 1.047,-0.375 1.047,-0.833 v -2.012 h -2.096 v 2.012 c 0,0.458 0.473,0.833 1.049,0.833 z m -66.434,-11.937 v 0 c 1.629,0 2.961,-1.378 2.961,-3.062 v -7.408 h -5.92 v 7.408 c 0,1.684 1.332,3.062 2.959,3.062 v 0"
       style="fill:#ffffff;fill-opacity:1;fill-rule:evenodd;stroke:none;stroke-width:0.1"
       id="path60" /><path
       d="m -439.92026,115.07148 c 0,0 -0.529,-1.324 -1.2992,-2.094 -0.0988,-0.099 -0.2184,-0.218 -0.3539,-0.352 -0.1485,0.026 -0.2926,0.062 -0.4281,0.106 0.002,0.073 0.008,0.148 0.0183,0.224 0.1442,1.021 -0.5976,1.45 -1.5019,1.63 -0.2606,0.867 -0.4477,1.904 -0.8231,2.791 -0.005,-0.011 -0.007,-0.02 -0.0101,-0.031 l -0.2598,-0.027 c 0.0539,0.379 -1.5418,-0.218 -1.5418,-0.218 -0.6055,-0.074 -0.5981,0.548 -1.1813,0.434 -0.5804,-0.112 -1.7523,-0.961 -2.3582,-1.027 -0.605,-0.067 -1.2972,0.298 -1.9195,0.184 -1.3258,-0.242 -2.8387,-0.888 -3.1891,-0.833 -0.3265,0.053 -1.7039,0.109 -3.1636,0 -1.486,-0.107 -2.9461,-0.054 -3.6199,-0.027 -0.6762,0.027 -2.6235,0.136 -3.1641,0.136 -0.5125,-0.056 -0.7297,-0.136 -0.7297,-0.136 -0.1082,0.217 -0.6746,0.676 -1.2437,0.784 -0.5676,0.082 -1.1325,0 -1.2157,0 -0.0824,0 -0.7301,-0.081 -1.0535,0.027 -0.2973,0.082 -0.5953,0.027 -0.4047,-0.188 0.161,-0.189 0.5672,-0.38 0.5672,-0.38 0,0 -1.1906,0.027 -1.7039,0.027 -0.5414,0 -0.7019,-0.35 -0.7019,-0.35 -0.4133,-0.128 0.5343,-0.784 0.5929,-0.867 0.1625,-0.214 1.191,-0.458 2.65,-0.783 1.4321,-0.297 2.541,0 2.541,0 0.5411,-0.135 1,-1.622 1.7832,-2.944 0.8114,-1.299 2.3793,-1.758 2.3793,-1.758 2.2168,-0.488 6.1352,-1.413 6.8649,-1.307 0.7301,0.109 1.4804,-0.122 1.9726,-0.297 0.509,-0.177 3.6504,-0.884 3.6504,-0.884 0.1621,-0.514 0,-4.756 -0.0832,-5.487 -0.0531,-0.729 -0.1621,-3.701004 -0.1621,-4.540004 0,-0.837 0.5149,-0.405 0.5149,-0.405 0,-0.624 -0.2715,-1.671 0.2695,-2.135 0,0 -0.1074,-1.73 -0.2149,-2.918 -0.1082,-1.191 0.5122,-1.759 0.5122,-1.759 0.002,-0.082 0.004,-0.198 0.001,-0.34 0.0121,0.059 0.0231,0.116 0.0356,0.175 1.4187,-1.217 2.3148,-2.456 4.2543,-3.65 1.9453,-1.191 5.5761,-2.6 7.3001,-3.445 1.077,-0.528 1.599,-0.818 2.086,-1.093 -0.279,-0.054 -0.575,-0.151 -0.89,-0.262 -0.736,-0.262 -1.325,0.115 -2.223,0.516 -0.84,0.375 -1.989,0.704 -3.097,1.57 -0.6652,0.519 -0.9222,0.129 -1.7621,0.329 -0.2797,0.067 -0.8347,-0.422 -1.3019,0.409 -0.7785,1.385 -1.5282,2.85 -1.9246,2.406 -2.175,-2.436 -1.2407,1.36 -2.9907,3.22 -0.0117,-0.055 -0.0234,-0.11 -0.0355,-0.165 -0.0223,-3.53 -1.0156,-25.521 -1.0156,-25.521 8.0547,1.128 17.1514,0.102 17.1514,0.102 -0.325,3.628 -0.83,14.461 -0.937,16.805 v -0.001 c 0.256,0.005 0.422,0.034 0.53,0.094 -0.17,0.121 -0.356,0.237 -0.55,0.349 -0.001,0.005 0,0.008 0,0.008 0.03,0 0.058,0 0.087,0.001 -0.007,0.02 -0.014,0.04 -0.022,0.06 -0.125,0.06 -0.258,0.097 -0.396,0.115 -1.245,0.669 -2.695,1.262 -2.912,2.313 -0.28,1.356 2.245,0.842 2.545,1.786 0.612,1.925 -2.334,1.701 -3.194,1.623 -0.186,6.853 -0.374,13.708004 -0.561,20.563004 0.028,0.032 0.029,0.084 -0.004,0.158 -0.049,1.775 -0.095,3.548 -0.143,5.323 -0.902,-0.573 -1.803,-1.375 -2.695,-2.152 -0.058,0.077 -0.129,0.163 -0.21,0.257 1.004,0.675 1.917,1.484 2.902,1.958 -0.029,1.122 -0.061,2.246 -0.091,3.369 -0.274,-1.225 -0.114,-2.616 -0.779,-3.327 -0.373,-0.4 -1.102,-0.623 -1.856,-0.656 0.202,0.361 0.404,0.719 0.614,1.063 -0.195,0.391 0.158,1.405 0.094,1.444 z m 9.691,-60.062004 c 3.016,-1.631 5.848,-3.58 8.5,-5.464 -5.502,-3.591 -12.208,-5.705 -19.4347,-5.705 -6.8168,0 -13.1692,1.882 -18.486,5.108 2.757,1.907 5.5656,3.861 8.3867,5.518 l 0.0457,6.47 c 10.3273,2.35 20.5433,0.053 20.5433,0.053 z m -13.7316,55.067004 c -0.0754,-0.104 -0.1274,-0.191 -0.1457,-0.251 -0.1446,-0.433 -0.2164,-0.841 0.3609,-0.841 0.5137,0 1.0106,0.23 1.6395,1.096 0.0718,-0.066 0.1476,-0.132 0.2254,-0.198 -0.9442,-0.744 -1.8727,-1.318 -2.7707,-1.406 -2.2563,-0.22 -3.0821,1.622 -4.5411,2.595 1.7239,-0.292 3.5481,-1.019 5.2317,-0.995 z m 4.0586,8.644 c 0.188,0.272 0.408,0.544 0.506,0.714 0.229,0.344 0.66,1.578 0.66,1.578 0.487,1.09 0.027,1.721 0,1.893 -0.029,0.173 -0.086,0.488 -0.086,0.488 -0.028,0.143 -0.028,0.43 -0.028,0.43 -0.202,1.006 -1.034,1.607 -1.034,1.607 0.631,-0.258 0.975,-1.177 1.034,-1.377 0.056,-0.201 0.141,-0.861 0.257,-1.233 0.143,-0.374 0.143,-1.321 0.057,-1.635 -0.086,-0.287 -0.258,-0.976 -0.459,-1.522 -0.005,-0.009 -0.01,-0.02 -0.014,-0.03 -0.011,-0.045 -0.027,-0.095 -0.043,-0.14 -0.115,-0.373 -0.286,-1.666 -0.286,-2.326 0,-0.602 0.257,-0.946 0.257,-0.946 0.574,-0.43 -0.832,-0.23 -0.832,-0.23 0.201,0.23 0.517,1.09 0.545,1.894 0.015,0.378 0.111,0.958 0.205,1.449 -0.134,-0.247 -0.261,-0.446 -0.261,-0.446 -0.061,-0.038 -0.121,-0.084 -0.18,-0.128 0.002,-0.214 -0.493,-1.151 -0.596,-1.305 -0.143,-0.23 -0.459,-1.032 -0.459,-1.032 -0.086,-0.173 -0.143,-0.173 -0.143,-0.087 0.029,0.087 0.201,0.431 0.258,0.631 0.058,0.173 0.344,0.832 0.258,0.975 -0.013,0.017 -0.039,0.03 -0.076,0.039 -0.119,-0.105 -0.293,-0.211 -0.526,-0.211 -0.28,-0.02 -0.491,0.047 -0.6605,0.172 -0.0485,-0.009 -0.0813,-0.02 -0.0856,-0.027 -0.2863,-0.288 0.2012,-1.006 0.2305,-1.291 0.0281,-0.288 0.0566,-0.174 -0.0586,-0.145 -0.0863,0.058 -0.1433,0.46 -0.2297,0.746 -0.0515,0.293 -0.6758,1.281 -0.7406,1.557 -0.0187,0.015 -0.0387,0.031 -0.0621,0.05 0,0 -0.1125,0.121 -0.2293,0.3 0.0812,-0.45 0.159,-0.94 0.1723,-1.276 0.0293,-0.775 0.3437,-1.663 0.5449,-1.893 0,0 -1.4063,-0.172 -0.8317,0.23 0,0 0.2575,0.344 0.2575,0.974 0,0.575 -0.143,1.693 -0.2754,2.193 -0.0375,0.079 -0.0723,0.162 -0.0957,0.246 -0.145,0.516 -0.3742,1.292 -0.461,1.579 -0.0847,0.314 -0.057,1.261 0.0575,1.635 0.1144,0.372 0.2019,1.032 0.2585,1.233 0.0586,0.2 0.4032,1.119 1.0321,1.377 0,0 -0.8317,-0.601 -1.0321,-1.607 0,0 0,-0.287 -0.0285,-0.43 0,0 -0.0582,-0.315 -0.0847,-0.488 -0.0309,-0.172 -0.4895,-0.803 0,-1.893 0,0 0.4293,-1.234 0.6586,-1.578 0.1425,-0.23 0.4593,-0.573 0.6875,-0.889 0,0 0.1722,-0.229 0.2586,-0.345 0.1015,-0.101 0.1812,-0.202 0.4935,-0.204 0.138,0.009 0.285,0.016 0.415,0.016 0.052,0.009 0.102,0.023 0.153,0.045 0,0 0.082,0.033 0.207,0.16 0.053,0.073 0.096,0.148 0.137,0.213 0.06,0.119 0.18,0.223 0.298,0.29 z m -4.3825,-1.254 c 0.179,0.735 0.2856,2.536 0.354,3.176 0.0765,1.094 0.1031,3.097 0.5953,4.082 0.9996,2 2.2972,1.65 2.2972,1.65 1.243,0.133 2.108,-1.002 2.541,-1.732 0.405,-0.729 0.323,-4.837 0.323,-5.918 0,-0.824 0.234,-1.332 0.347,-1.528 -0.743,-0.877 -1.222,-2.008 -1.887,-2.084 -0.818,-0.088 -1.4525,0.003 -2.1564,-0.141 -0.7531,-0.153 -1.4105,1.16 -2.4141,2.495 z m 6.4865,-0.236 0.003,0.008 0.004,-10e-4 c -0.003,-0.003 -0.005,-0.006 -0.007,-0.007 z m 0.022,0.004 0.083,-0.012 c -0.045,-0.024 -0.086,-0.05 -0.122,-0.082 0.012,0.032 0.026,0.063 0.039,0.094 z m -0.181,-0.538 c 1.702,-1.763 1.894,-4.979 1.815,-7.083 0.208,1.507 0.595,1.214 0.805,2.718 1.541,-2.24 1.625,-8.78 2.199,-12.125 0.156,2.057 0.281,9.591 -0.324,12 -0.603,2.408 -0.99,3.711 -2.269,4.703 -0.138,0.125 -0.937,0.436 -1.547,0.407 0.189,0.106 0.547,0.188 1.104,-0.133 0.369,-0.213 1.807,-0.338 2.407,-0.405 0.216,-0.026 1.945,-0.433 2.568,-0.595 0.392,-0.103 2.112,-0.3 2.377,-0.568 0,0 2.191,0.053 2.839,0 1.502,-0.126 2.747,-0.24 4.27,-0.082 0.603,0.065 2.98,-0.229 3.243,0 0.19,0.192 0.568,0.434 0.757,0.487 0.623,0.178 1.137,-0.023 1.757,0.054 0.217,0.027 0.811,0.081 0.947,0.109 0.875,0.145 0.055,-0.417 -0.162,-0.541 0,0 0.674,0.026 0.837,0.026 0.163,0 0.649,-0.053 0.811,-0.081 0.162,-0.027 0.514,-0.027 0.594,-0.188 0.291,-0.581 -0.002,-0.949 -0.566,-1.325 -0.435,-0.216 -1.569,-0.35 -1.569,-0.35 -0.899,-0.335 -2.457,-0.516 -3.38,-0.054 -0.241,0.08 -0.648,-0.054 -0.648,-0.054 0,0 -0.728,-1.326 -0.917,-1.812 -0.191,-0.46 -1.433,-3.001 -2.569,-3.327 0,0 -1.19,-0.159 -2.054,-0.187 -0.839,-0.027 -4.158,-1.103 -4.563,-1.103 -0.432,0 -0.623,-0.051 -0.946,-0.163 -0.299,-0.104 -1.974,-0.676 -2.243,-0.704 0,0 -0.329,-5.517 -0.304,-6.409004 0.028,-0.865 0.3,-9.783 0.3,-10.918 0,-2.484 -0.162,-5.102 -0.162,-7.648 0,-0.248 -0.024,-0.408 -0.159,-0.505 -0.506,0.805 -1.465,1.268 -1.4,2.499 0.066,1.279 1.186,0.79 1.327,1.784 0.143,0.994 -0.58,0.327 -0.592,2.434 0.341,2.975 0.279,3.64 -1.223,10.506 1.366,-9.168 -1.828,-5.576 -1.459,-6.057 0.519,-0.675 -0.403,12.059004 -1.49,21.318004 0.01,0.005 0.019,0.012 0.03,0.018 -0.011,-0.004 -0.021,-0.008 -0.032,-0.013 -0.138,1.176 -0.279,2.295 -0.42,3.325 0.004,0.014 0.007,0.028 0.011,0.042 z m -3.4931,-29.975004 c 0,0 0.4861,-0.759 0.8911,-0.923 0.514,-0.187 0.73,0.136 0.352,1.027 -0.404,0.922 -1.3501,2.622 -3.0267,5.191 -1.7023,2.622 -3.4062,6.73 -3.4062,10.026004 0,0 -0.0817,-6.081004 0.3793,-7.674004 0.4594,-1.595 2.9195,-5.676 4.8105,-7.647 z m -8.8773,29.742004 c 0.8262,-2.476 1.3601,-2.853 3.4472,-4.459 -1.0683,1.736 -1.6707,2.251 -1.4183,4.257 -0.8738,-0.522 -1.5488,-0.455 -2.0289,0.202 z m -3.1117,-1.029 c 0.3781,-1.036 0.2992,-1.795 1.1367,-3.106 0.8406,-1.311 2.5554,-3.106 3.8324,-4.66 -1.5875,0.378 -3.1418,0.862 -4.4523,2.071 0.1722,0.311 0.6293,0.277 0.5171,0.932 -0.1117,0.655 -0.9621,1.878 -1.1382,2.694 -0.1774,0.812 0.0683,1.38 0.1043,2.069 z m 21.2271,-7.352 c 2.726,1.232 3.848,2.535 5.282,4.772 0,-0.655 0.57,-1.345 0.311,-1.976 -0.261,-0.631 -0.145,-0.855 -1.036,-1.45 -0.892,-0.595 -2.743,-1.507 -4.02,-2.163 -0.38,0.139 -0.157,0.679 -0.537,0.817 z m -26.5092,5.489 c -0.3187,-0.317 0.2403,-1.57 0.1973,-2.056 -0.0426,-0.487 1.4852,-0.995 2.2883,-1.465 0.8015,-0.471 1.6433,-1.36 2.173,-0.828 0.5332,0.531 -1.3625,0.845 -1.7594,1.449 -0.3972,0.604 -0.6238,1.324 -1.2429,1.76 -0.6192,0.437 -1.3379,1.457 -1.6563,1.14 z m 15.7145,9.407 c 0.1781,0.802 0.5023,0.884 1.4992,0.949 0.143,-0.2 0.2863,-0.401 0.4295,-0.6 -0.0854,-0.143 -0.1725,-0.33 -0.2572,-0.473 -0.4774,0.917 -1.0028,0.557 -1.6715,0.124 z m 1.1347,-3.211 0.143,0.359 1.587,0.004 0.107,-0.422 -0.915,-0.254 -0.4942,0.25 z m 0.805,2.709 c -0.022,-0.464 -0.045,-0.928 -0.0682,-1.392 -0.0102,-0.015 0.1132,-0.03 -0.0297,-0.047 -0.1442,-0.017 -0.2457,-0.292 -0.2125,-0.448 0.1043,-0.024 0.207,-0.051 0.3104,-0.076 0.082,-0.024 0.104,-0.143 0.242,-0.074 0.139,0.067 0.325,0.228 0.271,0.301 -0.055,0.073 -0.31,0.518 -0.261,0.833 -0.058,0.302 -0.194,0.602 -0.252,0.903 z m 1.048,0.203 c 0.034,-0.075 0.108,-0.131 0.19,-0.131 0.084,0 0.157,0.056 0.19,0.131 h 0.357 c 0.005,0.02 0.008,-0.057 0.008,0.057 0,0.116 -0.267,0.432 -0.596,0.432 -0.33,0 -0.598,-0.316 -0.598,-0.432 0,-0.114 0.003,-0.037 0.008,-0.057 z m 1.024,0.261 c -0.179,0.801 -0.502,0.882 -1.5,0.948 -0.142,-0.2 -0.285,-0.399 -0.429,-0.6 0.086,-0.143 0.172,-0.329 0.257,-0.473 0.477,0.916 1.004,0.559 1.672,0.125 z m -2.9652,-0.211 c -0.0297,-0.091 -0.1071,-0.157 -0.1989,-0.157 -0.0914,0 -0.1699,0.066 -0.1996,0.157 h -0.3609 c -0.005,0.016 -0.008,-0.059 -0.008,0.053 0,0.114 0.2676,0.424 0.5965,0.424 0.3293,0 0.5972,-0.31 0.5972,-0.424 0,-0.112 -0.003,-0.037 -0.008,-0.053 h -0.4183 v 0"
       style="fill:#ffffff;fill-opacity:1;fill-rule:evenodd;stroke:none;stroke-width:0.1"
       id="path62" /><path
       d="m -181.23726,-194.53852 c 0.513,0.49 1.015,0.968 1.525,1.451 3.574,-1.037 7.373,-1.858 11.322,-2.491 0.815,0.128 1.559,0.279 2.196,0.486 -3.963,4.022 -6.147,8.292 -6.93,12.576 0.356,0.496 0.709,0.987 1.063,1.476 4.498,-2.086 9.005,-3.007 13.714,-3.427 0.227,0.081 0.454,0.156 0.672,0.23 0.645,0.316 1.293,0.626 1.936,0.942 0.633,0.372 1.273,0.73 1.902,1.09 0.592,0.44 1.184,0.874 1.772,1.307 0.588,0.489 1.16,0.978 1.744,1.467 0.537,0.52 1.072,1.033 1.599,1.554 0.526,0.562 1.049,1.12 1.577,1.689 0.496,-0.569 1.004,-1.127 1.511,-1.689 0.541,-0.52 1.082,-1.033 1.633,-1.553 0.561,-0.489 1.131,-0.977 1.703,-1.465 0.594,-0.433 1.199,-0.866 1.799,-1.305 0.613,-0.359 1.229,-0.723 1.838,-1.088 0.664,-0.316 1.32,-0.624 1.986,-0.94 0.274,-0.092 0.539,-0.191 0.805,-0.29 4.521,0.368 9.113,1.142 14.277,2.744 0.272,-0.438 0.758,-0.837 1.039,-1.275 -0.324,-3.271 -2.707,-9.309 -6.468,-12.542 0.355,-0.075 0.715,-0.145 1.074,-0.208 4.037,0.506 7.963,1.134 11.703,1.873 0,0.006 0,0.006 0,0.006 0.016,0 0.031,0.006 0.045,0.013 0.494,-0.47 0.988,-0.926 1.475,-1.402 -0.122,-0.21 -0.237,-0.414 -0.36,-0.623 -0.008,-0.008 -0.006,-0.013 -0.014,-0.019 -1.962,-3.944 -3.718,-7.66 -7.445,-11.72 0.83,-0.135 0.987,-0.176 1.799,-0.279 0.025,0 0.059,0.005 0.084,0.005 3.902,0.434 7.789,0.929 11.654,1.496 v 0 c 0.059,0.007 0.116,0.019 0.172,0.025 0.414,-0.709 0.83,-1.419 1.248,-2.1347 -3.158,-4.3738 -8.867,-10.3769 -16.603,-12.3582 0.199,-2.8742 0.341,-5.6113 0.547,-8.5843 -8.518,-0.0223 -17.036,-0.043 -25.559,-0.0625 -8.527,-0.0192 -17.078,-0.0458 -25.621,-0.0684 0.236,3.048 0.459,6.0469 0.687,8.9906 -6.002,1.1774 -13.037,6.6141 -16.472,12.2375 -0.022,0.018 -0.045,0.037 -0.074,0.061 0.009,0.013 0.009,0.026 0.019,0.032 -0.014,0.025 -0.027,0.043 -0.033,0.068 0.027,0.031 0.064,0.055 0.101,0.081 0.352,0.707 0.694,1.408 1.043,2.122 3.19,-0.64 6.44,-1.187 9.76,-1.646 1.697,0.251 3.496,0.054 5.242,0.392 -4.781,4.522 -7.75,10.525 -8.687,12.756 z m 31.594,-1.852 c 0.461,-0.008 0.925,-0.013 1.39,-0.014 0.008,1.541 0.012,2.458 0.018,3.997 -2.043,-0.002 -4.088,-0.003 -6.131,-0.005 -0.033,-1.455 -0.053,-2.247 -0.086,-3.715 0.871,-0.055 1.752,-0.102 2.625,-0.146 0.738,-0.036 1.469,-0.074 2.184,-0.117 z m 3.562,0 c 2.059,0.033 4.131,0.12 6.203,0.268 -0.031,1.464 -0.049,2.268 -0.078,3.723 -2.043,-0.003 -4.088,-0.004 -6.131,-0.007 0.002,-1.54 0.004,-2.496 0.006,-3.984 z m 8.361,0.444 c 2.069,0.19 4.129,0.44 6.164,0.755 -0.05,1.08 -0.076,1.652 -0.128,2.8 -2.045,-0.003 -4.081,-0.004 -6.133,-0.007 0.039,-1.399 0.058,-2.147 0.097,-3.548 z m 8.202,1.044 c 0.107,-0.038 0.214,-0.075 0.322,-0.11 2.871,3.476 4.502,5.636 5.951,10.319 -7.209,-2.297 -15.303,-2.297 -22.814,-2.267 -7.481,0.038 -16.946,-0.317 -24,2.429 0.103,-2.693 2.222,-5.501 5.281,-8.887 0.07,1.275 0.131,2.204 0.201,3.455 5.811,0.005 11.621,0.009 17.414,0.014 5.795,0.004 11.59,0.008 17.377,0.013 0.094,-1.64 0.18,-3.297 0.268,-4.966 z m -27.11,-1.073 c 0.043,1.412 0.065,2.162 0.108,3.561 -2.053,-0.002 -4.104,-0.004 -6.149,-0.006 -0.051,-1.066 -0.072,-1.48 -0.125,-2.558 1.83,-0.518 3.963,-0.807 6.166,-0.997 z m -12.81,-10.173 c 0.459,0.082 0.884,0.162 1.285,0.238 0.129,2.049 0.258,4.07 0.383,6.064 6.879,0.01 13.765,0.019 20.629,0.028 6.863,0.007 13.724,0.017 20.58,0.02 0.134,-2.213 0.271,-4.457 0.418,-6.743 0.615,-0.209 1.314,-0.388 2.062,-0.553 2.947,1.881 7.217,8.342 8.4,10.667 -19.566,-2.44 -42.402,-3.292 -61.853,0.206 1.723,-3.456 4.357,-6.86 7.73,-9.835 0.122,-0.03 0.243,-0.06 0.366,-0.092 z m 3.586,-0.65 c 2.593,-0.263 5.068,-0.468 7.449,-0.62 0.064,1.877 0.088,2.613 0.152,4.465 -2.43,-0.004 -4.867,-0.008 -7.295,-0.012 -0.092,-1.641 -0.121,-2.173 -0.215,-3.833 -0.033,0 -0.056,0 -0.091,0 z m 10.029,-0.769 c 2.517,-0.133 4.955,-0.203 7.379,-0.218 0.01,2.006 0.013,2.872 0.023,4.84 -2.422,-0.004 -4.849,-0.007 -7.279,-0.011 -0.051,-1.894 -0.07,-2.687 -0.123,-4.611 z m 9.967,-0.214 c 2.429,0.029 4.867,0.114 7.377,0.254 -0.047,1.923 -0.065,2.703 -0.112,4.596 -2.429,-0.004 -4.857,-0.007 -7.279,-0.01 0.006,-1.968 0.008,-2.829 0.014,-4.84 z m 9.941,0.414 c 2.356,0.158 4.781,0.372 7.344,0.624 -0.09,1.656 -0.117,2.188 -0.205,3.826 -2.43,-0.004 -4.85,-0.007 -7.28,-0.011 0.059,-1.842 0.082,-2.566 0.141,-4.439 z m -41.887,-25.5245 c 10.186,0.0281 20.373,0.0574 30.534,0.0856 10.158,0.0285 20.31,0.0578 30.453,0.0863 0.463,-1.7356 0.924,-3.4883 1.396,-5.2484 -10.605,-0.0332 -21.226,-0.0653 -31.857,-0.0977 -10.633,-0.032 -21.281,-0.0641 -31.949,-0.0965 0.478,1.7668 0.953,3.5285 1.423,5.2707 z m 55.364,14.8789 c 3.724,-0.2484 11.103,6.0965 13.369,8.8633 -2.879,-0.3949 -6.301,-1.0254 -9.149,-1.3402 -3.974,-0.4403 -7.923,-0.7996 -11.857,-1.0719 -9.525,-0.6613 -18.957,-0.8246 -28.166,-0.4496 -9.207,0.375 -18.699,1.4406 -27.236,2.9746 2.406,-3.0379 9.814,-9.0078 13.521,-8.5145 0.082,1.1594 0.164,2.3114 0.246,3.4579 8.178,0.0101 16.358,0.0265 24.526,0.0421 8.154,0.0157 16.314,0.0332 24.466,0.043 0.092,-1.3223 0.186,-2.6574 0.28,-4.0047 z m -38.325,-0.5851 c 2.055,0.005 4.1,0.009 6.145,0.0136 -0.051,-2.2527 -0.082,-4.0664 -0.133,-6.3879 -2.092,-0.006 -4.174,-0.005 -6.258,-0.01 0.092,2.3164 0.157,4.1301 0.246,6.384 z m 20.567,0.0449 c 2.045,0.005 4.09,0.01 6.135,0.0137 0.082,-2.25 0.146,-4.0684 0.23,-6.3809 -2.082,-0.005 -4.164,-0.0109 -6.238,-0.0156 -0.053,2.3133 -0.086,4.132 -0.127,6.3828 z m 8.387,0.0183 c 2.173,0.005 4.33,0.0102 6.503,0.0149 0.137,-2.25 0.249,-4.0664 0.389,-6.3781 -2.213,-0.005 -4.408,-0.0118 -6.621,-0.0164 -0.1,2.3125 -0.176,4.1296 -0.271,6.3796 z m -37.418,-0.0761 c 2.037,0.005 4.091,0.003 6.136,0.008 -0.103,-2.2547 -0.189,-4.0692 -0.297,-6.3844 -2.082,-0.006 -4.171,-0.0109 -6.246,-0.016 0.147,2.3168 0.264,4.132 0.407,6.3926 z m 18.875,-0.5399 c 2.117,0.005 4.216,0.01 6.316,0.0145 0.031,-2.8766 0.055,-5.8094 0.076,-8.7848 -2.16,-0.006 -4.312,-0.0117 -6.474,-0.0179 0.031,2.9769 0.052,5.9113 0.082,8.7882 v 0"
       style="fill:#ffffff;fill-opacity:1;fill-rule:evenodd;stroke:none;stroke-width:0.1"
       id="path64" /><path
       d="m -327.90526,-195.98252 c 3.615,0.467 7.245,0.9 10.867,1.268 3.623,0.368 7.251,0.689 10.888,0.923 0.602,-3.841 2.553,-7.845 3.168,-11.712 -3.908,-0.068 -8.124,-0.167 -12.325,-0.275 -4.201,-0.107 -8.425,-0.237 -12.325,-0.374 -0.088,3.391 -0.192,6.78 -0.273,10.17 z m -0.977,-12.6021 c 6.026,0.1231 12.06,0.2401 18.102,0.3251 6.049,0.082 12.09,0.147 18.139,0.166 6.041,0.021 12.091,-0.009 18.138,-0.054 6.043,-0.044 12.098,-0.122 18.154,-0.206 -0.005,-0.5162 -0.015,-1.0268 -0.021,-1.5424 -0.508,0 -1.018,0 -1.523,0 -0.034,-2.9828 -0.053,-5.9621 -0.079,-8.9414 -5.761,-0.5062 -11.525,-0.9375 -17.273,-1.2434 -5.74,-0.3035 -11.488,-0.491 -17.238,-0.5 -5.748,-0.0105 -11.495,0.161 -17.245,0.4465 -5.747,0.2848 -11.517,0.6981 -17.273,1.1844 -0.078,2.9445 -0.16,5.8934 -0.238,8.8426 -0.535,-0.003 -1.071,-0.007 -1.607,-0.0106 -0.015,0.5106 -0.029,1.0176 -0.036,1.5332 z m 68.016,-1.3144 c -0.213,0 -0.426,0 -0.641,0 -0.785,-0.1883 -1.392,-1.0567 -1.398,-2.084 -0.016,-2.0645 -0.022,-4.1281 -0.037,-6.1875 1.121,0.0949 2.238,0.1922 3.365,0.2961 0.008,1.9949 0.031,3.9902 0.045,5.9879 0.006,0.9816 -0.574,1.8058 -1.334,1.9875 z m -62.717,-0.1867 c -0.248,-0.002 -0.494,-0.004 -0.74,-0.005 -0.729,-0.2098 -1.265,-1.0137 -1.241,-1.9668 0.05,-1.9805 0.103,-3.9598 0.146,-5.9356 1.128,-0.0984 2.243,-0.1902 3.366,-0.2804 -0.045,2.0441 -0.095,4.089 -0.148,6.1367 -0.024,1.0051 -0.617,1.8457 -1.383,2.0508 z m -0.025,-13.2371 v 0 c 0.925,-0.1231 1.702,-1.1543 1.731,-2.3047 0.052,-2.0477 0.095,-4.0926 0.154,-6.1367 -1.122,0.2257 -2.235,0.4667 -3.351,0.7128 -0.051,1.9758 -0.102,3.9602 -0.153,5.9395 -0.029,1.1102 0.703,1.9062 1.619,1.7891 z m -0.945,26.0443 v 0 c 0.924,0.221 1.706,-0.522 1.731,-1.641 0.041,-2.006 0.094,-4.006 0.146,-6.01 -1.129,-0.102 -2.25,-0.206 -3.366,-0.313 -0.043,1.872 -0.094,3.749 -0.145,5.62 -0.029,1.056 0.711,2.102 1.634,2.344 z m 6.752,1.29 v 0 c 1.035,0.192 1.892,-0.643 1.922,-1.871 0.037,-2.164 0.088,-4.342 0.132,-6.511 -1.248,-0.097 -2.486,-0.191 -3.725,-0.282 -0.044,2.066 -0.103,4.129 -0.139,6.183 -0.029,1.162 0.786,2.279 1.81,2.481 z m 7.4,0.507 v 0 c 1.128,0.141 2.074,-0.743 2.096,-1.966 0.029,-2.157 0.08,-4.321 0.117,-6.485 -1.363,-0.058 -2.727,-0.129 -4.084,-0.207 -0.043,2.088 -0.094,4.179 -0.132,6.258 -0.029,1.174 0.881,2.263 2.003,2.4 z m -6.791,-14.5757 v 0 c 1.019,0 1.877,-0.9883 1.906,-2.2059 0.045,-2.1527 0.088,-4.3039 0.132,-6.4621 -1.232,0.0692 -2.477,0.1485 -3.71,0.2266 -0.051,2.1035 -0.094,4.1953 -0.145,6.2988 -0.023,1.1836 0.799,2.1426 1.817,2.1426 z m 7.369,-0.006 v 0 c 1.121,0.006 2.052,-1.0215 2.075,-2.2793 0.044,-2.2402 0.08,-4.4707 0.11,-6.7117 -1.349,0.0496 -2.705,0.1043 -4.062,0.1582 -0.044,2.1961 -0.088,4.3914 -0.125,6.5879 -0.029,1.2379 0.88,2.2449 2.002,2.2449 z m 8.117,0.0106 v 0 c 1.224,0.004 2.229,-1.0469 2.243,-2.3301 0.029,-2.2879 0.059,-4.5731 0.088,-6.8621 -1.474,0.0187 -2.94,0.0527 -4.42,0.0781 -0.037,2.2695 -0.067,4.5301 -0.104,6.7988 -0.013,1.2684 0.969,2.3153 2.193,2.3153 z m 9.039,0.0187 v 0 c 1.328,0.006 2.41,-1.0519 2.42,-2.3429 0.02,-2.3047 0.035,-4.6024 0.059,-6.902 -1.598,0 -3.189,-0.006 -4.78,-0.006 -0.029,2.3 -0.05,4.5938 -0.074,6.8985 -0.013,1.2871 1.056,2.3488 2.375,2.3527 z m 24.725,0.1192 v 0 c -1.028,-0.0106 -1.864,-1.009 -1.871,-2.2305 -0.006,-2.1668 -0.006,-4.3293 -0.014,-6.4969 1.232,0.075 2.473,0.1543 3.703,0.2371 0.014,2.1125 0.022,4.2246 0.029,6.3387 0.006,1.1926 -0.828,2.1562 -1.847,2.1516 z m -7.369,-0.05 v 0 c -1.121,-0.005 -2.038,-1.0418 -2.038,-2.3036 0,-2.2449 0,-4.4863 0.006,-6.7304 1.358,0.0535 2.705,0.1074 4.069,0.1758 -0.006,2.2011 0,4.407 0,6.6132 0.009,1.2434 -0.916,2.25 -2.037,2.245 z m -41.579,-14.1348 v 0 c 1.011,-0.0973 1.876,-1.1688 1.898,-2.3731 0.037,-2.1562 0.08,-4.3093 0.125,-6.4597 -1.225,0.1816 -2.457,0.373 -3.688,0.584 -0.051,2.0929 -0.088,4.1953 -0.14,6.2988 -0.029,1.1789 0.791,2.0477 1.805,1.95 z m 7.316,-0.5934 v 0 c 1.122,-0.0695 2.054,-1.1457 2.075,-2.3984 0.037,-2.2355 0.073,-4.4758 0.102,-6.7063 -1.34,0.1231 -2.689,0.2598 -4.038,0.4133 -0.039,2.1903 -0.074,4.3903 -0.119,6.5926 -0.021,1.2297 0.873,2.166 1.98,2.0988 z m 8.073,-0.3839 v 0 c 1.21,-0.0305 2.207,-1.1063 2.229,-2.3879 0.021,-2.2891 0.052,-4.575 0.074,-6.8532 -1.459,0.0586 -2.913,0.1317 -4.385,0.2157 -0.03,2.2648 -0.059,4.5293 -0.089,6.7988 -0.022,1.2625 0.956,2.2715 2.171,2.2266 z m 8.967,-0.1278 v 0 c 1.312,0 2.4,-1.0508 2.404,-2.3379 0.01,-2.3 0.03,-4.6047 0.045,-6.8988 -1.576,-0.005 -3.16,-0.005 -4.744,0.006 -0.015,2.2941 -0.04,4.5929 -0.059,6.8929 -0.01,1.2871 1.041,2.3379 2.354,2.3379 z m 31.232,1.9461 v 0 c -0.916,-0.1183 -1.679,-1.1601 -1.683,-2.3203 -0.01,-2.0625 -0.037,-4.1211 -0.053,-6.175 1.115,0.2219 2.223,0.4613 3.344,0.7082 0.013,1.9941 0.029,3.993 0.043,5.9883 0.01,1.1211 -0.733,1.9246 -1.651,1.7988 z m -6.699,-0.7863 v 0 c -1.012,-0.0985 -1.855,-1.1738 -1.855,-2.3836 -0.008,-2.1711 -0.014,-4.3332 -0.024,-6.5 1.225,0.1816 2.457,0.3742 3.682,0.5848 0.016,2.1085 0.021,4.2207 0.037,6.3382 0.008,1.1844 -0.828,2.0692 -1.84,1.9606 z m -7.31,-0.6153 v 0 c -1.116,-0.0683 -2.032,-1.1503 -2.024,-2.407 -0.008,-2.2441 0,-4.4902 0,-6.7305 1.342,0.1231 2.684,0.2598 4.039,0.4231 -0.006,2.1953 0,4.4059 0.008,6.6121 0,1.2375 -0.91,2.1805 -2.023,2.1023 z m -8.059,-0.3972 v 0 c -1.217,-0.034 -2.191,-1.1153 -2.191,-2.3973 0.007,-2.2949 0.023,-4.5851 0.037,-6.8683 1.459,0.0636 2.918,0.1367 4.384,0.2207 -0.007,2.2695 -0.015,4.5402 -0.015,6.8144 -0.006,1.2735 -1.004,2.2746 -2.215,2.2305 z m -0.059,15.0535 v 0 c -1.222,-0.005 -2.212,-1.0574 -2.207,-2.3438 0.016,-2.2945 0.022,-4.5789 0.037,-6.8726 1.475,0.0242 2.942,0.0601 4.422,0.0926 -0.007,2.2765 -0.013,4.5402 -0.021,6.8097 -0.008,1.2809 -1.006,2.3192 -2.231,2.3141 z m 25.418,-11.7789 c -0.023,-3.334 -0.056,-6.6652 -0.093,-9.9953 -15.221,-9.0071 -54.549,-7.2637 -68.553,0.005 -0.092,3.3031 -0.185,6.6027 -0.265,9.9043 -0.508,0.0586 -1.016,0.1172 -1.524,0.1769 -0.015,0.5117 -0.029,1.0223 -0.045,1.5332 6.006,-0.6152 12.019,-1.1398 18.023,-1.5039 6.004,-0.3633 12.002,-0.5801 18,-0.5695 5.996,0.01 12.002,0.2406 18,0.6222 5.989,0.3848 12.01,0.9297 18.03,1.5637 -0.008,-0.5207 -0.008,-1.0363 -0.016,-1.5512 -0.52,-0.0625 -1.039,-0.125 -1.557,-0.1851 z m -71.278,30.8071 c 3.042,0.767 5.946,1.756 8.93,2.598 2.998,0.848 6.085,1.557 9.489,1.765 0.424,-1.509 0.885,-4.206 1.311,-5.714 -3.445,-0.276 -6.636,-0.698 -9.832,-1.169 -3.19,-0.472 -6.372,-0.998 -9.795,-1.488 -0.038,1.33 -0.073,2.667 -0.103,4.008 z m 71.155,-12.961 c -0.006,-0.849 -0.006,-1.104 -0.021,-1.961 -9.742,0.275 -5.242,-0.078 -14.986,-0.044 0.146,1.097 2.654,3.361 2.787,4.521 7.521,-0.855 1.347,-0.187 12.22,-2.516 v 0"
       style="fill:#ffffff;fill-opacity:1;fill-rule:evenodd;stroke:none;stroke-width:0.1"
       id="path66" /><path
       id="path1207"
       style="fill:#ffffff;fill-opacity:1;fill-rule:evenodd;stroke:none;stroke-width:0.1"
       d="m 246.60601,305.56426 c 32.474,0 58.958,-26.485 58.958,-58.9595 0,-32.4738 -26.484,-58.959 -58.958,-58.959 -32.475,0 -58.96,26.4852 -58.96,58.959 0,32.4745 26.485,58.9595 58.96,58.9595 z m 0,-11.05 c 26.388,0 47.908,-21.522 47.908,-47.9095 0,-26.3879 -21.52,-47.9082 -47.908,-47.9082 -26.389,0 -47.909,21.5203 -47.909,47.9082 0,26.3875 21.52,47.9095 47.909,47.9095 v 0" /><path
       id="path1209"
       style="fill:#ffffff;fill-opacity:1;fill-rule:evenodd;stroke:none;stroke-width:0.1"
       d="m 211.51901,262.87702 c 3.615,0.467 7.245,0.9 10.867,1.268 3.623,0.368 7.251,0.689 10.888,0.923 0.602,-3.841 2.553,-7.845 3.168,-11.712 -3.908,-0.068 -8.124,-0.167 -12.325,-0.275 -4.201,-0.107 -8.425,-0.237 -12.325,-0.374 -0.088,3.391 -0.192,6.78 -0.273,10.17 z m -0.977,-12.6021 c 6.026,0.1231 12.06,0.2401 18.102,0.3251 6.049,0.082 12.09,0.147 18.139,0.166 6.041,0.021 12.091,-0.009 18.138,-0.054 6.043,-0.044 12.098,-0.122 18.154,-0.206 -0.005,-0.5162 -0.015,-1.0268 -0.021,-1.5424 -0.508,0 -1.018,0 -1.523,0 -0.034,-2.9828 -0.053,-5.9621 -0.079,-8.9414 -5.761,-0.5062 -11.525,-0.9375 -17.273,-1.2434 -5.74,-0.3035 -11.488,-0.491 -17.238,-0.5 -5.748,-0.0105 -11.495,0.161 -17.245,0.4465 -5.747,0.2848 -11.517,0.6981 -17.273,1.1844 -0.078,2.9445 -0.16,5.8934 -0.238,8.8426 -0.535,-0.003 -1.071,-0.007 -1.607,-0.0106 -0.015,0.5106 -0.029,1.0176 -0.036,1.5332 z m 68.016,-1.3144 c -0.213,0 -0.426,0 -0.641,0 -0.785,-0.1883 -1.392,-1.0567 -1.398,-2.084 -0.016,-2.0645 -0.022,-4.1281 -0.037,-6.1875 1.121,0.0949 2.238,0.1922 3.365,0.2961 0.008,1.9949 0.031,3.9902 0.045,5.9879 0.006,0.9816 -0.574,1.8058 -1.334,1.9875 z m -62.717,-0.1867 c -0.248,-0.002 -0.494,-0.004 -0.74,-0.005 -0.729,-0.2098 -1.265,-1.0137 -1.241,-1.9668 0.05,-1.9805 0.103,-3.9598 0.146,-5.9356 1.128,-0.0984 2.243,-0.1902 3.366,-0.2804 -0.045,2.0441 -0.095,4.089 -0.148,6.1367 -0.024,1.0051 -0.617,1.8457 -1.383,2.0508 z m -0.025,-13.2371 v 0 c 0.925,-0.1231 1.702,-1.1543 1.731,-2.3047 0.052,-2.0477 0.095,-4.0926 0.154,-6.1367 -1.122,0.2257 -2.235,0.4667 -3.351,0.7128 -0.051,1.9758 -0.102,3.9602 -0.153,5.9395 -0.029,1.1102 0.703,1.9062 1.619,1.7891 z m -0.945,26.0443 v 0 c 0.924,0.221 1.706,-0.522 1.731,-1.641 0.041,-2.006 0.094,-4.006 0.146,-6.01 -1.129,-0.102 -2.25,-0.206 -3.366,-0.313 -0.043,1.872 -0.094,3.749 -0.145,5.62 -0.029,1.056 0.711,2.102 1.634,2.344 z m 6.752,1.29 v 0 c 1.035,0.192 1.892,-0.643 1.922,-1.871 0.037,-2.164 0.088,-4.342 0.132,-6.511 -1.248,-0.097 -2.486,-0.191 -3.725,-0.282 -0.044,2.066 -0.103,4.129 -0.139,6.183 -0.029,1.162 0.786,2.279 1.81,2.481 z m 7.4,0.507 v 0 c 1.128,0.141 2.074,-0.743 2.096,-1.966 0.029,-2.157 0.08,-4.321 0.117,-6.485 -1.363,-0.058 -2.727,-0.129 -4.084,-0.207 -0.043,2.088 -0.094,4.179 -0.132,6.258 -0.029,1.174 0.881,2.263 2.003,2.4 z m -6.791,-14.5757 v 0 c 1.019,0 1.877,-0.9883 1.906,-2.2059 0.045,-2.1527 0.088,-4.3039 0.132,-6.4621 -1.232,0.0692 -2.477,0.1485 -3.71,0.2266 -0.051,2.1035 -0.094,4.1953 -0.145,6.2988 -0.023,1.1836 0.799,2.1426 1.817,2.1426 z m 7.369,-0.006 v 0 c 1.121,0.006 2.052,-1.0215 2.075,-2.2793 0.044,-2.2402 0.08,-4.4707 0.11,-6.7117 -1.349,0.0496 -2.705,0.1043 -4.062,0.1582 -0.044,2.1961 -0.088,4.3914 -0.125,6.5879 -0.029,1.2379 0.88,2.2449 2.002,2.2449 z m 8.117,0.0106 v 0 c 1.224,0.004 2.229,-1.0469 2.243,-2.3301 0.029,-2.2879 0.059,-4.5731 0.088,-6.8621 -1.474,0.0187 -2.94,0.0527 -4.42,0.0781 -0.037,2.2695 -0.067,4.5301 -0.104,6.7988 -0.013,1.2684 0.969,2.3153 2.193,2.3153 z m 9.039,0.0187 v 0 c 1.328,0.006 2.41,-1.0519 2.42,-2.3429 0.02,-2.3047 0.035,-4.6024 0.059,-6.902 -1.598,0 -3.189,-0.006 -4.78,-0.006 -0.029,2.3 -0.05,4.5938 -0.074,6.8985 -0.013,1.2871 1.056,2.3488 2.375,2.3527 z m 24.725,0.1192 v 0 c -1.028,-0.0106 -1.864,-1.009 -1.871,-2.2305 -0.006,-2.1668 -0.006,-4.3293 -0.014,-6.4969 1.232,0.075 2.473,0.1543 3.703,0.2371 0.014,2.1125 0.022,4.2246 0.029,6.3387 0.006,1.1926 -0.828,2.1562 -1.847,2.1516 z m -7.369,-0.05 v 0 c -1.121,-0.005 -2.038,-1.0418 -2.038,-2.3036 0,-2.2449 0,-4.4863 0.006,-6.7304 1.358,0.0535 2.705,0.1074 4.069,0.1758 -0.006,2.2011 0,4.407 0,6.6132 0.009,1.2434 -0.916,2.25 -2.037,2.245 z m -41.579,-14.1348 v 0 c 1.011,-0.0973 1.876,-1.1688 1.898,-2.3731 0.037,-2.1562 0.08,-4.3093 0.125,-6.4597 -1.225,0.1816 -2.457,0.373 -3.688,0.584 -0.051,2.0929 -0.088,4.1953 -0.14,6.2988 -0.029,1.1789 0.791,2.0477 1.805,1.95 z m 7.316,-0.5934 v 0 c 1.122,-0.0695 2.054,-1.1457 2.075,-2.3984 0.037,-2.2355 0.073,-4.4758 0.102,-6.7063 -1.34,0.1231 -2.689,0.2598 -4.038,0.4133 -0.039,2.1903 -0.074,4.3903 -0.119,6.5926 -0.021,1.2297 0.873,2.166 1.98,2.0988 z m 8.073,-0.3839 v 0 c 1.21,-0.0305 2.207,-1.1063 2.229,-2.3879 0.021,-2.2891 0.052,-4.575 0.074,-6.8532 -1.459,0.0586 -2.913,0.1317 -4.385,0.2157 -0.03,2.2648 -0.059,4.5293 -0.089,6.7988 -0.022,1.2625 0.956,2.2715 2.171,2.2266 z m 8.967,-0.1278 v 0 c 1.312,0 2.4,-1.0508 2.404,-2.3379 0.01,-2.3 0.03,-4.6047 0.045,-6.8988 -1.576,-0.005 -3.16,-0.005 -4.744,0.006 -0.015,2.2941 -0.04,4.5929 -0.059,6.8929 -0.01,1.2871 1.041,2.3379 2.354,2.3379 z m 31.232,1.9461 v 0 c -0.916,-0.1183 -1.679,-1.1601 -1.683,-2.3203 -0.01,-2.0625 -0.037,-4.1211 -0.053,-6.175 1.115,0.2219 2.223,0.4613 3.344,0.7082 0.013,1.9941 0.029,3.993 0.043,5.9883 0.01,1.1211 -0.733,1.9246 -1.651,1.7988 z m -6.699,-0.7863 v 0 c -1.012,-0.0985 -1.855,-1.1738 -1.855,-2.3836 -0.008,-2.1711 -0.014,-4.3332 -0.024,-6.5 1.225,0.1816 2.457,0.3742 3.682,0.5848 0.016,2.1085 0.021,4.2207 0.037,6.3382 0.008,1.1844 -0.828,2.0692 -1.84,1.9606 z m -7.31,-0.6153 v 0 c -1.116,-0.0683 -2.032,-1.1503 -2.024,-2.407 -0.008,-2.2441 0,-4.4902 0,-6.7305 1.342,0.1231 2.684,0.2598 4.039,0.4231 -0.006,2.1953 0,4.4059 0.008,6.6121 0,1.2375 -0.91,2.1805 -2.023,2.1023 z m -8.059,-0.3972 v 0 c -1.217,-0.034 -2.191,-1.1153 -2.191,-2.3973 0.007,-2.2949 0.023,-4.5851 0.037,-6.8683 1.459,0.0636 2.918,0.1367 4.384,0.2207 -0.007,2.2695 -0.015,4.5402 -0.015,6.8144 -0.006,1.2735 -1.004,2.2746 -2.215,2.2305 z m -0.059,15.0535 v 0 c -1.222,-0.005 -2.212,-1.0574 -2.207,-2.3438 0.016,-2.2945 0.022,-4.5789 0.037,-6.8726 1.475,0.0242 2.942,0.0601 4.422,0.0926 -0.007,2.2765 -0.013,4.5402 -0.021,6.8097 -0.008,1.2809 -1.006,2.3192 -2.231,2.3141 z m 25.418,-11.7789 c -0.023,-3.334 -0.056,-6.6652 -0.093,-9.9953 -15.221,-9.0071 -54.549,-7.2637 -68.553,0.005 -0.092,3.3031 -0.185,6.6027 -0.265,9.9043 -0.508,0.0586 -1.016,0.1172 -1.524,0.1769 -0.015,0.5117 -0.029,1.0223 -0.045,1.5332 6.006,-0.6152 12.019,-1.1398 18.023,-1.5039 6.004,-0.3633 12.002,-0.5801 18,-0.5695 5.996,0.01 12.002,0.2406 18,0.6222 5.989,0.3848 12.01,0.9297 18.03,1.5637 -0.008,-0.5207 -0.008,-1.0363 -0.016,-1.5512 -0.52,-0.0625 -1.039,-0.125 -1.557,-0.1851 z m -71.278,30.8071 c 3.042,0.767 5.946,1.756 8.93,2.598 2.998,0.848 6.085,1.557 9.489,1.765 0.424,-1.509 0.885,-4.206 1.311,-5.714 -3.445,-0.276 -6.636,-0.698 -9.832,-1.169 -3.19,-0.472 -6.372,-0.998 -9.795,-1.488 -0.038,1.33 -0.073,2.667 -0.103,4.008 z m 71.155,-12.961 c -0.006,-0.849 -0.006,-1.104 -0.021,-1.961 -9.742,0.275 -5.242,-0.078 -14.986,-0.044 0.146,1.097 2.654,3.361 2.787,4.521 7.521,-0.855 1.347,-0.187 12.22,-2.516 v 0" /></g></svg>
